<ttFont>
    <TTGlyph name=".ttfautohint" xMin="0" yMin="0" xMax="0" yMax="0">
      <contour>
        <pt x="0" y="0" on="1"/>
      </contour>
    </TTGlyph>
    <TTGlyph name="A" xMin="-20" yMin="0" xMax="700" yMax="710">
      <contour>
        <pt x="165" y="15" on="1"/>
        <pt x="165" y="0" on="1"/>
        <pt x="-20" y="0" on="1"/>
        <pt x="-20" y="15" on="1"/>
        <pt x="60" y="45" on="1"/>
        <pt x="335" y="710" on="1"/>
        <pt x="365" y="710" on="1"/>
        <pt x="650" y="30" on="1"/>
        <pt x="700" y="15" on="1"/>
        <pt x="700" y="0" on="1"/>
        <pt x="580" y="0" on="1"/>
        <pt x="524" y="0" on="0"/>
        <pt x="460" y="51" on="0"/>
        <pt x="446" y="85" on="1"/>
        <pt x="395" y="205" on="1"/>
        <pt x="156" y="205" on="1"/>
        <pt x="90" y="45" on="1"/>
      </contour>
      <contour>
        <pt x="166" y="230" on="1"/>
        <pt x="385" y="230" on="1"/>
        <pt x="275" y="493" on="1"/>
      </contour>
    </TTGlyph>
    <TTGlyph name="AE" xMin="-30" yMin="0" xMax="950" yMax="700">
      <contour>
        <pt x="465" y="265" on="1"/>
        <pt x="208" y="265" on="1"/>
        <pt x="86" y="45" on="1"/>
        <pt x="161" y="15" on="1"/>
        <pt x="161" y="0" on="1"/>
        <pt x="-30" y="0" on="1"/>
        <pt x="-30" y="15" on="1"/>
        <pt x="50" y="45" on="1"/>
        <pt x="416" y="700" on="1"/>
        <pt x="930" y="700" on="1"/>
        <pt x="930" y="520" on="1"/>
        <pt x="900" y="520" on="1"/>
        <pt x="881" y="535" on="0"/>
        <pt x="867" y="558" on="1"/>
        <pt x="855" y="578" on="0"/>
        <pt x="835" y="635" on="0"/>
        <pt x="835" y="675" on="1"/>
        <pt x="630" y="675" on="1"/>
        <pt x="630" y="360" on="1"/>
        <pt x="735" y="360" on="1"/>
        <pt x="739" y="380" on="0"/>
        <pt x="753" y="417" on="0"/>
        <pt x="761" y="431" on="1"/>
        <pt x="770" y="447" on="0"/>
        <pt x="780" y="460" on="1"/>
        <pt x="810" y="460" on="1"/>
        <pt x="810" y="235" on="1"/>
        <pt x="780" y="235" on="1"/>
        <pt x="770" y="248" on="0"/>
        <pt x="761" y="264" on="1"/>
        <pt x="753" y="278" on="0"/>
        <pt x="739" y="314" on="0"/>
        <pt x="735" y="335" on="1"/>
        <pt x="630" y="335" on="1"/>
        <pt x="630" y="25" on="1"/>
        <pt x="855" y="25" on="1"/>
        <pt x="855" y="64" on="0"/>
        <pt x="875" y="122" on="0"/>
        <pt x="887" y="142" on="1"/>
        <pt x="901" y="165" on="0"/>
        <pt x="920" y="180" on="1"/>
        <pt x="950" y="180" on="1"/>
        <pt x="950" y="0" on="1"/>
        <pt x="405" y="0" on="1"/>
        <pt x="405" y="15" on="1"/>
        <pt x="465" y="30" on="1"/>
      </contour>
      <contour>
        <pt x="223" y="290" on="1"/>
        <pt x="465" y="290" on="1"/>
        <pt x="465" y="675" on="1"/>
        <pt x="438" y="675" on="1"/>
      </contour>
    </TTGlyph>
    <TTGlyph name="Aacute" xMin="-20" yMin="0" xMax="700" yMax="900">
      <component glyphName=".ttfautohint" x="0" y="0" flags="0x0"/>
      <component glyphName="A" x="0" y="0" flags="0x204"/>
      <component glyphName="acute" x="300" y="200" flags="0x4"/>
    </TTGlyph>
    <TTGlyph name="Abreve" xMin="-20" yMin="0" xMax="700" yMax="900">
      <component glyphName=".ttfautohint" x="0" y="0" flags="0x0"/>
      <component glyphName="A" x="0" y="0" flags="0x204"/>
      <component glyphName="breve" x="185" y="205" flags="0x4"/>
    </TTGlyph>
    <TTGlyph name="Acircumflex" xMin="-20" yMin="0" xMax="700" yMax="905">
      <component glyphName=".ttfautohint" x="0" y="0" flags="0x0"/>
      <component glyphName="A" x="0" y="0" flags="0x204"/>
      <component glyphName="circumflex" x="190" y="190" flags="0x4"/>
    </TTGlyph>
    <TTGlyph name="Adieresis" xMin="-20" yMin="0" xMax="700" yMax="900">
      <component glyphName=".ttfautohint" x="0" y="0" flags="0x0"/>
      <component glyphName="A" x="0" y="0" flags="0x204"/>
      <component glyphName="dieresis" x="172" y="200" flags="0x4"/>
    </TTGlyph>
    <TTGlyph name="Agrave" xMin="-20" yMin="0" xMax="700" yMax="900">
      <component glyphName=".ttfautohint" x="0" y="0" flags="0x0"/>
      <component glyphName="A" x="0" y="0" flags="0x204"/>
      <component glyphName="grave" x="180" y="200" flags="0x4"/>
    </TTGlyph>
    <TTGlyph name="Amacron" xMin="-20" yMin="0" xMax="700" yMax="829">
      <component glyphName=".ttfautohint" x="0" y="0" flags="0x0"/>
      <component glyphName="A" x="0" y="0" flags="0x204"/>
      <component glyphName="macron" x="210" y="129" flags="0x4"/>
    </TTGlyph>
    <TTGlyph name="Aogonek" xMin="-20" yMin="-190" xMax="700" yMax="710">
      <contour>
        <pt x="165" y="15" on="1"/>
        <pt x="165" y="0" on="1"/>
        <pt x="-20" y="0" on="1"/>
        <pt x="-20" y="15" on="1"/>
        <pt x="60" y="45" on="1"/>
        <pt x="335" y="710" on="1"/>
        <pt x="365" y="710" on="1"/>
        <pt x="650" y="30" on="1"/>
        <pt x="700" y="15" on="1"/>
        <pt x="700" y="0" on="1"/>
        <pt x="673" y="-13" on="0"/>
        <pt x="652" y="-31" on="1"/>
        <pt x="634" y="-47" on="0"/>
        <pt x="605" y="-93" on="0"/>
        <pt x="605" y="-125" on="1"/>
        <pt x="605" y="-165" on="0"/>
        <pt x="645" y="-165" on="1"/>
        <pt x="654" y="-165" on="0"/>
        <pt x="671" y="-159" on="0"/>
        <pt x="677" y="-155" on="1"/>
        <pt x="684" y="-151" on="0"/>
        <pt x="690" y="-145" on="1"/>
        <pt x="690" y="-175" on="1"/>
        <pt x="682" y="-179" on="0"/>
        <pt x="672" y="-183" on="1"/>
        <pt x="653" y="-190" on="0"/>
        <pt x="625" y="-190" on="1"/>
        <pt x="572" y="-190" on="0"/>
        <pt x="520" y="-145" on="0"/>
        <pt x="520" y="-115" on="1"/>
        <pt x="520" y="-95" on="0"/>
        <pt x="538" y="-62" on="0"/>
        <pt x="566" y="-37" on="0"/>
        <pt x="599" y="-19" on="0"/>
        <pt x="629" y="-7" on="0"/>
        <pt x="651" y="-1" on="0"/>
        <pt x="654" y="0" on="1"/>
        <pt x="580" y="0" on="1"/>
        <pt x="524" y="0" on="0"/>
        <pt x="460" y="51" on="0"/>
        <pt x="446" y="85" on="1"/>
        <pt x="395" y="205" on="1"/>
        <pt x="156" y="205" on="1"/>
        <pt x="90" y="45" on="1"/>
      </contour>
      <contour>
        <pt x="166" y="230" on="1"/>
        <pt x="385" y="230" on="1"/>
        <pt x="275" y="493" on="1"/>
      </contour>
    </TTGlyph>
    <TTGlyph name="Aring" xMin="-20" yMin="0" xMax="700" yMax="875">
      <contour>
        <pt x="165" y="15" on="1"/>
        <pt x="165" y="0" on="1"/>
        <pt x="-20" y="0" on="1"/>
        <pt x="-20" y="15" on="1"/>
        <pt x="60" y="45" on="1"/>
        <pt x="322" y="678" on="1"/>
        <pt x="287" y="687" on="0"/>
        <pt x="245" y="740" on="0"/>
        <pt x="245" y="775" on="1"/>
        <pt x="245" y="796" on="0"/>
        <pt x="261" y="832" on="0"/>
        <pt x="289" y="859" on="0"/>
        <pt x="327" y="875" on="0"/>
        <pt x="350" y="875" on="1"/>
        <pt x="372" y="875" on="0"/>
        <pt x="411" y="859" on="0"/>
        <pt x="439" y="832" on="0"/>
        <pt x="455" y="796" on="0"/>
        <pt x="455" y="775" on="1"/>
        <pt x="455" y="740" on="0"/>
        <pt x="412" y="687" on="0"/>
        <pt x="378" y="678" on="1"/>
        <pt x="650" y="30" on="1"/>
        <pt x="700" y="15" on="1"/>
        <pt x="700" y="0" on="1"/>
        <pt x="580" y="0" on="1"/>
        <pt x="524" y="0" on="0"/>
        <pt x="460" y="51" on="0"/>
        <pt x="446" y="85" on="1"/>
        <pt x="395" y="205" on="1"/>
        <pt x="156" y="205" on="1"/>
        <pt x="90" y="45" on="1"/>
      </contour>
      <contour>
        <pt x="166" y="230" on="1"/>
        <pt x="385" y="230" on="1"/>
        <pt x="275" y="493" on="1"/>
      </contour>
      <contour>
        <pt x="405" y="775" on="1"/>
        <pt x="405" y="805" on="0"/>
        <pt x="373" y="840" on="0"/>
        <pt x="350" y="840" on="1"/>
        <pt x="327" y="840" on="0"/>
        <pt x="295" y="805" on="0"/>
        <pt x="295" y="775" on="1"/>
        <pt x="295" y="745" on="0"/>
        <pt x="327" y="710" on="0"/>
        <pt x="350" y="710" on="1"/>
        <pt x="373" y="710" on="0"/>
        <pt x="405" y="745" on="0"/>
      </contour>
    </TTGlyph>
    <TTGlyph name="Atilde" xMin="-20" yMin="0" xMax="700" yMax="885">
      <component glyphName=".ttfautohint" x="0" y="0" flags="0x0"/>
      <component glyphName="A" x="0" y="0" flags="0x204"/>
      <component glyphName="tilde" x="197" y="185" flags="0x4"/>
    </TTGlyph>
    <TTGlyph name="B" xMin="50" yMin="0" xMax="650" yMax="700">
      <contour>
        <pt x="395" y="365" on="1"/>
        <pt x="466" y="362" on="0"/>
        <pt x="522" y="343" on="1"/>
        <pt x="546" y="335" on="0"/>
        <pt x="592" y="309" on="0"/>
        <pt x="628" y="272" on="0"/>
        <pt x="650" y="223" on="0"/>
        <pt x="650" y="190" on="1"/>
        <pt x="650" y="149" on="0"/>
        <pt x="618" y="79" on="0"/>
        <pt x="545" y="28" on="0"/>
        <pt x="426" y="0" on="0"/>
        <pt x="340" y="0" on="1"/>
        <pt x="50" y="0" on="1"/>
        <pt x="50" y="15" on="1"/>
        <pt x="110" y="30" on="1"/>
        <pt x="110" y="670" on="1"/>
        <pt x="50" y="685" on="1"/>
        <pt x="50" y="700" on="1"/>
        <pt x="320" y="700" on="1"/>
        <pt x="401" y="700" on="0"/>
        <pt x="513" y="672" on="0"/>
        <pt x="583" y="624" on="0"/>
        <pt x="615" y="561" on="0"/>
        <pt x="615" y="525" on="1"/>
        <pt x="615" y="496" on="0"/>
        <pt x="596" y="451" on="0"/>
        <pt x="565" y="418" on="0"/>
        <pt x="526" y="396" on="0"/>
        <pt x="505" y="389" on="1"/>
        <pt x="457" y="372" on="0"/>
        <pt x="395" y="370" on="1"/>
      </contour>
      <contour>
        <pt x="275" y="355" on="1"/>
        <pt x="275" y="25" on="1"/>
        <pt x="340" y="25" on="1"/>
        <pt x="400" y="25" on="0"/>
        <pt x="480" y="111" on="0"/>
        <pt x="480" y="190" on="1"/>
        <pt x="480" y="269" on="0"/>
        <pt x="400" y="355" on="0"/>
        <pt x="340" y="355" on="1"/>
      </contour>
      <contour>
        <pt x="275" y="380" on="1"/>
        <pt x="320" y="380" on="1"/>
        <pt x="344" y="380" on="0"/>
        <pt x="390" y="401" on="0"/>
        <pt x="424" y="440" on="0"/>
        <pt x="445" y="493" on="0"/>
        <pt x="445" y="525" on="1"/>
        <pt x="445" y="559" on="0"/>
        <pt x="424" y="614" on="0"/>
        <pt x="390" y="653" on="0"/>
        <pt x="344" y="675" on="0"/>
        <pt x="320" y="675" on="1"/>
        <pt x="275" y="675" on="1"/>
      </contour>
    </TTGlyph>
    <TTGlyph name="C" xMin="45" yMin="-15" xMax="615" yMax="715">
      <contour>
        <pt x="361" y="715" on="1"/>
        <pt x="396" y="715" on="0"/>
        <pt x="455" y="694" on="0"/>
        <pt x="476" y="682" on="1"/>
        <pt x="501" y="668" on="0"/>
        <pt x="520" y="650" on="1"/>
        <pt x="528" y="663" on="0"/>
        <pt x="547" y="684" on="0"/>
        <pt x="555" y="691" on="1"/>
        <pt x="565" y="699" on="0"/>
        <pt x="575" y="705" on="1"/>
        <pt x="600" y="705" on="1"/>
        <pt x="600" y="515" on="1"/>
        <pt x="560" y="515" on="1"/>
        <pt x="546" y="563" on="0"/>
        <pt x="521" y="602" on="1"/>
        <pt x="500" y="635" on="0"/>
        <pt x="430" y="690" on="0"/>
        <pt x="380" y="690" on="1"/>
        <pt x="350" y="690" on="0"/>
        <pt x="292" y="657" on="0"/>
        <pt x="247" y="578" on="0"/>
        <pt x="220" y="447" on="0"/>
        <pt x="220" y="350" on="1"/>
        <pt x="220" y="252" on="0"/>
        <pt x="248" y="122" on="0"/>
        <pt x="298" y="43" on="0"/>
        <pt x="366" y="10" on="0"/>
        <pt x="405" y="10" on="1"/>
        <pt x="441" y="10" on="0"/>
        <pt x="507" y="41" on="0"/>
        <pt x="559" y="94" on="0"/>
        <pt x="590" y="162" on="0"/>
        <pt x="590" y="200" on="1"/>
        <pt x="615" y="200" on="1"/>
        <pt x="615" y="157" on="0"/>
        <pt x="580" y="79" on="0"/>
        <pt x="518" y="20" on="0"/>
        <pt x="434" y="-15" on="0"/>
        <pt x="385" y="-15" on="1"/>
        <pt x="306" y="-15" on="0"/>
        <pt x="180" y="33" on="0"/>
        <pt x="92" y="126" on="0"/>
        <pt x="45" y="262" on="0"/>
        <pt x="45" y="350" on="1"/>
        <pt x="45" y="438" on="0"/>
        <pt x="91" y="574" on="0"/>
        <pt x="175" y="667" on="0"/>
        <pt x="291" y="715" on="0"/>
      </contour>
    </TTGlyph>
    <TTGlyph name="Cacute" xMin="45" yMin="-15" xMax="615" yMax="900">
      <component glyphName=".ttfautohint" x="45" y="0" flags="0x0"/>
      <component glyphName="C" x="0" y="0" flags="0x204"/>
      <component glyphName="acute" x="292" y="200" flags="0x4"/>
    </TTGlyph>
    <TTGlyph name="Ccaron" xMin="45" yMin="-15" xMax="615" yMax="915">
      <component glyphName=".ttfautohint" x="45" y="0" flags="0x0"/>
      <component glyphName="C" x="0" y="0" flags="0x204"/>
      <component glyphName="caron" x="187" y="55" flags="0x4"/>
    </TTGlyph>
    <TTGlyph name="Ccedilla" xMin="45" yMin="-200" xMax="615" yMax="715">
      <contour>
        <pt x="361" y="715" on="1"/>
        <pt x="396" y="715" on="0"/>
        <pt x="455" y="694" on="0"/>
        <pt x="476" y="682" on="1"/>
        <pt x="501" y="668" on="0"/>
        <pt x="520" y="650" on="1"/>
        <pt x="528" y="663" on="0"/>
        <pt x="547" y="684" on="0"/>
        <pt x="555" y="691" on="1"/>
        <pt x="565" y="699" on="0"/>
        <pt x="575" y="705" on="1"/>
        <pt x="600" y="705" on="1"/>
        <pt x="600" y="515" on="1"/>
        <pt x="560" y="515" on="1"/>
        <pt x="546" y="563" on="0"/>
        <pt x="521" y="602" on="1"/>
        <pt x="500" y="635" on="0"/>
        <pt x="430" y="690" on="0"/>
        <pt x="380" y="690" on="1"/>
        <pt x="350" y="690" on="0"/>
        <pt x="292" y="657" on="0"/>
        <pt x="247" y="578" on="0"/>
        <pt x="220" y="447" on="0"/>
        <pt x="220" y="350" on="1"/>
        <pt x="220" y="252" on="0"/>
        <pt x="248" y="122" on="0"/>
        <pt x="298" y="43" on="0"/>
        <pt x="366" y="10" on="0"/>
        <pt x="405" y="10" on="1"/>
        <pt x="441" y="10" on="0"/>
        <pt x="507" y="41" on="0"/>
        <pt x="559" y="94" on="0"/>
        <pt x="590" y="162" on="0"/>
        <pt x="590" y="200" on="1"/>
        <pt x="615" y="200" on="1"/>
        <pt x="615" y="157" on="0"/>
        <pt x="580" y="79" on="0"/>
        <pt x="518" y="20" on="0"/>
        <pt x="434" y="-15" on="0"/>
        <pt x="385" y="-15" on="1"/>
        <pt x="373" y="-15" on="1"/>
        <pt x="373" y="-50" on="1"/>
        <pt x="418" y="-50" on="0"/>
        <pt x="468" y="-95" on="0"/>
        <pt x="468" y="-125" on="1"/>
        <pt x="468" y="-155" on="0"/>
        <pt x="416" y="-200" on="0"/>
        <pt x="363" y="-200" on="1"/>
        <pt x="352" y="-200" on="0"/>
        <pt x="332" y="-199" on="0"/>
        <pt x="324" y="-198" on="1"/>
        <pt x="315" y="-197" on="0"/>
        <pt x="307" y="-195" on="1"/>
        <pt x="307" y="-165" on="1"/>
        <pt x="311" y="-168" on="0"/>
        <pt x="317" y="-170" on="1"/>
        <pt x="327" y="-175" on="0"/>
        <pt x="343" y="-175" on="1"/>
        <pt x="366" y="-175" on="0"/>
        <pt x="393" y="-148" on="0"/>
        <pt x="393" y="-125" on="1"/>
        <pt x="393" y="-102" on="0"/>
        <pt x="364" y="-75" on="0"/>
        <pt x="338" y="-75" on="1"/>
        <pt x="338" y="-12" on="1"/>
        <pt x="200" y="1" on="0"/>
        <pt x="45" y="186" on="0"/>
        <pt x="45" y="350" on="1"/>
        <pt x="45" y="438" on="0"/>
        <pt x="91" y="574" on="0"/>
        <pt x="175" y="667" on="0"/>
        <pt x="291" y="715" on="0"/>
      </contour>
    </TTGlyph>
    <TTGlyph name="Ccircumflex" xMin="45" yMin="-15" xMax="615" yMax="930">
      <component glyphName=".ttfautohint" x="45" y="0" flags="0x0"/>
      <component glyphName="C" x="0" y="0" flags="0x204"/>
      <component glyphName="circumflex" x="182" y="215" flags="0x4"/>
    </TTGlyph>
    <TTGlyph name="Cdotaccent" xMin="45" yMin="-15" xMax="615" yMax="915">
      <component glyphName=".ttfautohint" x="45" y="0" flags="0x0"/>
      <component glyphName="C" x="0" y="0" flags="0x204"/>
      <component glyphName="dotaccent" x="267" y="215" flags="0x4"/>
    </TTGlyph>
    <TTGlyph name="D" xMin="50" yMin="0" xMax="675" yMax="700">
      <contour>
        <pt x="305" y="700" on="1"/>
        <pt x="485" y="700" on="0"/>
        <pt x="675" y="515" on="0"/>
        <pt x="675" y="350" on="1"/>
        <pt x="675" y="185" on="0"/>
        <pt x="485" y="0" on="0"/>
        <pt x="305" y="0" on="1"/>
        <pt x="50" y="0" on="1"/>
        <pt x="50" y="15" on="1"/>
        <pt x="110" y="30" on="1"/>
        <pt x="110" y="670" on="1"/>
        <pt x="50" y="685" on="1"/>
        <pt x="50" y="700" on="1"/>
      </contour>
      <contour>
        <pt x="275" y="675" on="1"/>
        <pt x="275" y="25" on="1"/>
        <pt x="305" y="25" on="1"/>
        <pt x="348" y="25" on="0"/>
        <pt x="420" y="58" on="0"/>
        <pt x="471" y="134" on="0"/>
        <pt x="500" y="258" on="0"/>
        <pt x="500" y="350" on="1"/>
        <pt x="500" y="442" on="0"/>
        <pt x="471" y="566" on="0"/>
        <pt x="420" y="642" on="0"/>
        <pt x="348" y="675" on="0"/>
        <pt x="305" y="675" on="1"/>
      </contour>
    </TTGlyph>
    <TTGlyph name="Dcaron" xMin="50" yMin="0" xMax="675" yMax="910">
      <component glyphName=".ttfautohint" x="50" y="0" flags="0x0"/>
      <component glyphName="D" x="0" y="0" flags="0x204"/>
      <component glyphName="caron" x="172" y="50" flags="0x4"/>
    </TTGlyph>
    <TTGlyph name="Dcroat" xMin="50" yMin="0" xMax="680" yMax="700">
      <contour>
        <pt x="115" y="370" on="1"/>
        <pt x="115" y="670" on="1"/>
        <pt x="55" y="685" on="1"/>
        <pt x="55" y="700" on="1"/>
        <pt x="310" y="700" on="1"/>
        <pt x="490" y="700" on="0"/>
        <pt x="680" y="515" on="0"/>
        <pt x="680" y="350" on="1"/>
        <pt x="680" y="185" on="0"/>
        <pt x="490" y="0" on="0"/>
        <pt x="310" y="0" on="1"/>
        <pt x="55" y="0" on="1"/>
        <pt x="55" y="15" on="1"/>
        <pt x="115" y="30" on="1"/>
        <pt x="115" y="340" on="1"/>
        <pt x="50" y="340" on="1"/>
        <pt x="50" y="370" on="1"/>
      </contour>
      <contour>
        <pt x="280" y="675" on="1"/>
        <pt x="280" y="370" on="1"/>
        <pt x="400" y="370" on="1"/>
        <pt x="400" y="340" on="1"/>
        <pt x="280" y="340" on="1"/>
        <pt x="280" y="25" on="1"/>
        <pt x="310" y="25" on="1"/>
        <pt x="353" y="25" on="0"/>
        <pt x="425" y="58" on="0"/>
        <pt x="476" y="134" on="0"/>
        <pt x="505" y="258" on="0"/>
        <pt x="505" y="350" on="1"/>
        <pt x="505" y="442" on="0"/>
        <pt x="476" y="566" on="0"/>
        <pt x="425" y="642" on="0"/>
        <pt x="353" y="675" on="0"/>
        <pt x="310" y="675" on="1"/>
      </contour>
    </TTGlyph>
    <TTGlyph name="E" xMin="50" yMin="0" xMax="605" yMax="700">
      <contour>
        <pt x="390" y="360" on="1"/>
        <pt x="394" y="380" on="0"/>
        <pt x="408" y="417" on="0"/>
        <pt x="416" y="431" on="1"/>
        <pt x="425" y="447" on="0"/>
        <pt x="435" y="460" on="1"/>
        <pt x="465" y="460" on="1"/>
        <pt x="465" y="235" on="1"/>
        <pt x="435" y="235" on="1"/>
        <pt x="425" y="248" on="0"/>
        <pt x="416" y="264" on="1"/>
        <pt x="408" y="278" on="0"/>
        <pt x="394" y="314" on="0"/>
        <pt x="390" y="335" on="1"/>
        <pt x="275" y="335" on="1"/>
        <pt x="275" y="25" on="1"/>
        <pt x="510" y="25" on="1"/>
        <pt x="510" y="64" on="0"/>
        <pt x="530" y="122" on="0"/>
        <pt x="542" y="142" on="1"/>
        <pt x="556" y="165" on="0"/>
        <pt x="575" y="180" on="1"/>
        <pt x="605" y="180" on="1"/>
        <pt x="605" y="0" on="1"/>
        <pt x="50" y="0" on="1"/>
        <pt x="50" y="15" on="1"/>
        <pt x="110" y="30" on="1"/>
        <pt x="110" y="670" on="1"/>
        <pt x="50" y="685" on="1"/>
        <pt x="50" y="700" on="1"/>
        <pt x="585" y="700" on="1"/>
        <pt x="585" y="520" on="1"/>
        <pt x="555" y="520" on="1"/>
        <pt x="536" y="535" on="0"/>
        <pt x="522" y="558" on="1"/>
        <pt x="510" y="578" on="0"/>
        <pt x="490" y="635" on="0"/>
        <pt x="490" y="675" on="1"/>
        <pt x="275" y="675" on="1"/>
        <pt x="275" y="360" on="1"/>
      </contour>
    </TTGlyph>
    <TTGlyph name="Eacute" xMin="50" yMin="0" xMax="605" yMax="900">
      <component glyphName=".ttfautohint" x="50" y="0" flags="0x0"/>
      <component glyphName="E" x="0" y="0" flags="0x204"/>
      <component glyphName="acute" x="267" y="200" flags="0x4"/>
    </TTGlyph>
    <TTGlyph name="Ebreve" xMin="50" yMin="0" xMax="605" yMax="915">
      <component glyphName=".ttfautohint" x="50" y="0" flags="0x0"/>
      <component glyphName="E" x="0" y="0" flags="0x204"/>
      <component glyphName="breve" x="177" y="220" flags="0x4"/>
    </TTGlyph>
    <TTGlyph name="Ecaron" xMin="50" yMin="0" xMax="605" yMax="910">
      <component glyphName=".ttfautohint" x="50" y="0" flags="0x0"/>
      <component glyphName="E" x="0" y="0" flags="0x204"/>
      <component glyphName="caron" x="187" y="50" flags="0x4"/>
    </TTGlyph>
    <TTGlyph name="Ecircumflex" xMin="50" yMin="0" xMax="605" yMax="925">
      <component glyphName=".ttfautohint" x="50" y="0" flags="0x0"/>
      <component glyphName="E" x="0" y="0" flags="0x204"/>
      <component glyphName="circumflex" x="177" y="210" flags="0x4"/>
    </TTGlyph>
    <TTGlyph name="Edieresis" xMin="50" yMin="0" xMax="605" yMax="910">
      <component glyphName=".ttfautohint" x="50" y="0" flags="0x0"/>
      <component glyphName="E" x="0" y="0" flags="0x204"/>
      <component glyphName="dieresis" x="160" y="210" flags="0x4"/>
    </TTGlyph>
    <TTGlyph name="Edotaccent" xMin="50" yMin="0" xMax="605" yMax="910">
      <component glyphName=".ttfautohint" x="50" y="0" flags="0x0"/>
      <component glyphName="E" x="0" y="0" flags="0x204"/>
      <component glyphName="dotaccent" x="262" y="210" flags="0x4"/>
    </TTGlyph>
    <TTGlyph name="Egrave" xMin="50" yMin="0" xMax="605" yMax="900">
      <component glyphName=".ttfautohint" x="50" y="0" flags="0x0"/>
      <component glyphName="E" x="0" y="0" flags="0x204"/>
      <component glyphName="grave" x="197" y="200" flags="0x4"/>
    </TTGlyph>
    <TTGlyph name="Emacron" xMin="50" yMin="0" xMax="605" yMax="839">
      <component glyphName=".ttfautohint" x="50" y="0" flags="0x0"/>
      <component glyphName="E" x="0" y="0" flags="0x204"/>
      <component glyphName="macron" x="202" y="139" flags="0x4"/>
    </TTGlyph>
    <TTGlyph name="Eogonek" xMin="50" yMin="-190" xMax="605" yMax="700">
      <contour>
        <pt x="50" y="685" on="1"/>
        <pt x="50" y="700" on="1"/>
        <pt x="585" y="700" on="1"/>
        <pt x="585" y="520" on="1"/>
        <pt x="555" y="520" on="1"/>
        <pt x="536" y="535" on="0"/>
        <pt x="522" y="558" on="1"/>
        <pt x="510" y="578" on="0"/>
        <pt x="490" y="635" on="0"/>
        <pt x="490" y="675" on="1"/>
        <pt x="275" y="675" on="1"/>
        <pt x="275" y="360" on="1"/>
        <pt x="390" y="360" on="1"/>
        <pt x="394" y="380" on="0"/>
        <pt x="408" y="417" on="0"/>
        <pt x="416" y="431" on="1"/>
        <pt x="425" y="447" on="0"/>
        <pt x="435" y="460" on="1"/>
        <pt x="465" y="460" on="1"/>
        <pt x="465" y="235" on="1"/>
        <pt x="435" y="235" on="1"/>
        <pt x="425" y="248" on="0"/>
        <pt x="416" y="264" on="1"/>
        <pt x="408" y="278" on="0"/>
        <pt x="394" y="314" on="0"/>
        <pt x="390" y="335" on="1"/>
        <pt x="275" y="335" on="1"/>
        <pt x="275" y="25" on="1"/>
        <pt x="510" y="25" on="1"/>
        <pt x="510" y="64" on="0"/>
        <pt x="530" y="122" on="0"/>
        <pt x="542" y="142" on="1"/>
        <pt x="556" y="165" on="0"/>
        <pt x="575" y="180" on="1"/>
        <pt x="605" y="180" on="1"/>
        <pt x="605" y="0" on="1"/>
        <pt x="445" y="0" on="1"/>
        <pt x="418" y="-13" on="0"/>
        <pt x="397" y="-31" on="1"/>
        <pt x="379" y="-47" on="0"/>
        <pt x="350" y="-93" on="0"/>
        <pt x="350" y="-125" on="1"/>
        <pt x="350" y="-165" on="0"/>
        <pt x="390" y="-165" on="1"/>
        <pt x="399" y="-165" on="0"/>
        <pt x="416" y="-159" on="0"/>
        <pt x="422" y="-155" on="1"/>
        <pt x="429" y="-151" on="0"/>
        <pt x="435" y="-145" on="1"/>
        <pt x="435" y="-175" on="1"/>
        <pt x="427" y="-179" on="0"/>
        <pt x="417" y="-183" on="1"/>
        <pt x="398" y="-190" on="0"/>
        <pt x="370" y="-190" on="1"/>
        <pt x="317" y="-190" on="0"/>
        <pt x="265" y="-145" on="0"/>
        <pt x="265" y="-115" on="1"/>
        <pt x="265" y="-95" on="0"/>
        <pt x="283" y="-62" on="0"/>
        <pt x="311" y="-37" on="0"/>
        <pt x="344" y="-19" on="0"/>
        <pt x="374" y="-7" on="0"/>
        <pt x="396" y="-1" on="0"/>
        <pt x="399" y="0" on="1"/>
        <pt x="50" y="0" on="1"/>
        <pt x="50" y="15" on="1"/>
        <pt x="110" y="30" on="1"/>
        <pt x="110" y="670" on="1"/>
      </contour>
    </TTGlyph>
    <TTGlyph name="Eth" xMin="50" yMin="0" xMax="680" yMax="700">
      <contour>
        <pt x="115" y="370" on="1"/>
        <pt x="115" y="670" on="1"/>
        <pt x="55" y="685" on="1"/>
        <pt x="55" y="700" on="1"/>
        <pt x="310" y="700" on="1"/>
        <pt x="490" y="700" on="0"/>
        <pt x="680" y="515" on="0"/>
        <pt x="680" y="350" on="1"/>
        <pt x="680" y="185" on="0"/>
        <pt x="490" y="0" on="0"/>
        <pt x="310" y="0" on="1"/>
        <pt x="55" y="0" on="1"/>
        <pt x="55" y="15" on="1"/>
        <pt x="115" y="30" on="1"/>
        <pt x="115" y="340" on="1"/>
        <pt x="50" y="340" on="1"/>
        <pt x="50" y="370" on="1"/>
      </contour>
      <contour>
        <pt x="280" y="675" on="1"/>
        <pt x="280" y="370" on="1"/>
        <pt x="400" y="370" on="1"/>
        <pt x="400" y="340" on="1"/>
        <pt x="280" y="340" on="1"/>
        <pt x="280" y="25" on="1"/>
        <pt x="310" y="25" on="1"/>
        <pt x="353" y="25" on="0"/>
        <pt x="425" y="58" on="0"/>
        <pt x="476" y="134" on="0"/>
        <pt x="505" y="258" on="0"/>
        <pt x="505" y="350" on="1"/>
        <pt x="505" y="442" on="0"/>
        <pt x="476" y="566" on="0"/>
        <pt x="425" y="642" on="0"/>
        <pt x="353" y="675" on="0"/>
        <pt x="310" y="675" on="1"/>
      </contour>
    </TTGlyph>
    <TTGlyph name="Euro" xMin="10" yMin="-15" xMax="660" yMax="715">
      <contour>
        <pt x="94" y="420" on="1"/>
        <pt x="103" y="491" on="0"/>
        <pt x="156" y="601" on="0"/>
        <pt x="237" y="676" on="0"/>
        <pt x="344" y="715" on="0"/>
        <pt x="406" y="715" on="1"/>
        <pt x="441" y="715" on="0"/>
        <pt x="500" y="694" on="0"/>
        <pt x="521" y="682" on="1"/>
        <pt x="546" y="668" on="0"/>
        <pt x="565" y="650" on="1"/>
        <pt x="573" y="663" on="0"/>
        <pt x="592" y="684" on="0"/>
        <pt x="600" y="691" on="1"/>
        <pt x="610" y="699" on="0"/>
        <pt x="620" y="705" on="1"/>
        <pt x="645" y="705" on="1"/>
        <pt x="645" y="515" on="1"/>
        <pt x="605" y="515" on="1"/>
        <pt x="591" y="563" on="0"/>
        <pt x="566" y="602" on="1"/>
        <pt x="545" y="635" on="0"/>
        <pt x="475" y="690" on="0"/>
        <pt x="425" y="690" on="1"/>
        <pt x="398" y="690" on="0"/>
        <pt x="345" y="663" on="0"/>
        <pt x="302" y="600" on="0"/>
        <pt x="272" y="496" on="0"/>
        <pt x="267" y="420" on="1"/>
        <pt x="545" y="420" on="1"/>
        <pt x="545" y="390" on="1"/>
        <pt x="265" y="390" on="1"/>
        <pt x="265" y="300" on="1"/>
        <pt x="535" y="300" on="1"/>
        <pt x="535" y="270" on="1"/>
        <pt x="268" y="270" on="1"/>
        <pt x="274" y="196" on="0"/>
        <pt x="305" y="96" on="0"/>
        <pt x="353" y="36" on="0"/>
        <pt x="415" y="10" on="0"/>
        <pt x="450" y="10" on="1"/>
        <pt x="486" y="10" on="0"/>
        <pt x="552" y="41" on="0"/>
        <pt x="604" y="94" on="0"/>
        <pt x="635" y="162" on="0"/>
        <pt x="635" y="200" on="1"/>
        <pt x="660" y="200" on="1"/>
        <pt x="660" y="157" on="0"/>
        <pt x="625" y="79" on="0"/>
        <pt x="563" y="20" on="0"/>
        <pt x="479" y="-15" on="0"/>
        <pt x="430" y="-15" on="1"/>
        <pt x="291" y="-15" on="0"/>
        <pt x="115" y="131" on="0"/>
        <pt x="95" y="270" on="1"/>
        <pt x="10" y="270" on="1"/>
        <pt x="10" y="300" on="1"/>
        <pt x="91" y="300" on="1"/>
        <pt x="90" y="309" on="0"/>
        <pt x="90" y="319" on="1"/>
        <pt x="90" y="350" on="1"/>
        <pt x="90" y="376" on="1"/>
        <pt x="90" y="383" on="0"/>
        <pt x="91" y="390" on="1"/>
        <pt x="20" y="390" on="1"/>
        <pt x="20" y="420" on="1"/>
      </contour>
    </TTGlyph>
    <TTGlyph name="F" xMin="50" yMin="0" xMax="585" yMax="700">
      <contour>
        <pt x="390" y="360" on="1"/>
        <pt x="394" y="380" on="0"/>
        <pt x="408" y="417" on="0"/>
        <pt x="416" y="431" on="1"/>
        <pt x="425" y="447" on="0"/>
        <pt x="435" y="460" on="1"/>
        <pt x="465" y="460" on="1"/>
        <pt x="465" y="235" on="1"/>
        <pt x="435" y="235" on="1"/>
        <pt x="425" y="248" on="0"/>
        <pt x="416" y="264" on="1"/>
        <pt x="408" y="278" on="0"/>
        <pt x="394" y="314" on="0"/>
        <pt x="390" y="335" on="1"/>
        <pt x="275" y="335" on="1"/>
        <pt x="275" y="30" on="1"/>
        <pt x="335" y="15" on="1"/>
        <pt x="335" y="0" on="1"/>
        <pt x="50" y="0" on="1"/>
        <pt x="50" y="15" on="1"/>
        <pt x="110" y="30" on="1"/>
        <pt x="110" y="670" on="1"/>
        <pt x="50" y="685" on="1"/>
        <pt x="50" y="700" on="1"/>
        <pt x="585" y="700" on="1"/>
        <pt x="585" y="520" on="1"/>
        <pt x="555" y="520" on="1"/>
        <pt x="536" y="535" on="0"/>
        <pt x="522" y="558" on="1"/>
        <pt x="510" y="578" on="0"/>
        <pt x="490" y="635" on="0"/>
        <pt x="490" y="675" on="1"/>
        <pt x="275" y="675" on="1"/>
        <pt x="275" y="360" on="1"/>
      </contour>
    </TTGlyph>
    <TTGlyph name="G" xMin="45" yMin="-15" xMax="680" yMax="715">
      <contour>
        <pt x="365" y="20" on="1"/>
        <pt x="388" y="20" on="0"/>
        <pt x="421" y="45" on="0"/>
        <pt x="432" y="60" on="1"/>
        <pt x="445" y="78" on="0"/>
        <pt x="455" y="100" on="1"/>
        <pt x="455" y="330" on="1"/>
        <pt x="395" y="345" on="1"/>
        <pt x="395" y="360" on="1"/>
        <pt x="680" y="360" on="1"/>
        <pt x="680" y="345" on="1"/>
        <pt x="620" y="330" on="1"/>
        <pt x="620" y="-5" on="1"/>
        <pt x="605" y="-5" on="1"/>
        <pt x="561" y="-5" on="0"/>
        <pt x="508" y="20" on="0"/>
        <pt x="494" y="35" on="1"/>
        <pt x="477" y="53" on="0"/>
        <pt x="470" y="75" on="1"/>
        <pt x="457" y="49" on="0"/>
        <pt x="437" y="30" on="1"/>
        <pt x="420" y="13" on="0"/>
        <pt x="364" y="-15" on="0"/>
        <pt x="325" y="-15" on="1"/>
        <pt x="269" y="-15" on="0"/>
        <pt x="167" y="33" on="0"/>
        <pt x="90" y="126" on="0"/>
        <pt x="45" y="262" on="0"/>
        <pt x="45" y="350" on="1"/>
        <pt x="45" y="438" on="0"/>
        <pt x="91" y="574" on="0"/>
        <pt x="175" y="667" on="0"/>
        <pt x="291" y="715" on="0"/>
        <pt x="361" y="715" on="1"/>
        <pt x="396" y="715" on="0"/>
        <pt x="455" y="694" on="0"/>
        <pt x="476" y="682" on="1"/>
        <pt x="501" y="668" on="0"/>
        <pt x="520" y="650" on="1"/>
        <pt x="528" y="663" on="0"/>
        <pt x="547" y="684" on="0"/>
        <pt x="555" y="691" on="1"/>
        <pt x="565" y="699" on="0"/>
        <pt x="575" y="705" on="1"/>
        <pt x="600" y="705" on="1"/>
        <pt x="600" y="515" on="1"/>
        <pt x="560" y="515" on="1"/>
        <pt x="546" y="563" on="0"/>
        <pt x="521" y="602" on="1"/>
        <pt x="500" y="635" on="0"/>
        <pt x="430" y="690" on="0"/>
        <pt x="380" y="690" on="1"/>
        <pt x="350" y="690" on="0"/>
        <pt x="292" y="657" on="0"/>
        <pt x="247" y="578" on="0"/>
        <pt x="220" y="447" on="0"/>
        <pt x="220" y="350" on="1"/>
        <pt x="220" y="252" on="0"/>
        <pt x="244" y="125" on="0"/>
        <pt x="285" y="50" on="0"/>
        <pt x="337" y="20" on="0"/>
      </contour>
    </TTGlyph>
    <TTGlyph name="Gbreve" xMin="45" yMin="-15" xMax="680" yMax="915">
      <component glyphName=".ttfautohint" x="45" y="0" flags="0x0"/>
      <component glyphName="G" x="0" y="0" flags="0x204"/>
      <component glyphName="breve" x="185" y="220" flags="0x4"/>
    </TTGlyph>
    <TTGlyph name="Gcircumflex" xMin="45" yMin="-15" xMax="680" yMax="935">
      <component glyphName=".ttfautohint" x="45" y="0" flags="0x0"/>
      <component glyphName="G" x="0" y="0" flags="0x204"/>
      <component glyphName="circumflex" x="190" y="220" flags="0x4"/>
    </TTGlyph>
    <TTGlyph name="Gcommaaccent" xMin="45" yMin="-309" xMax="680" yMax="715">
      <component glyphName=".ttfautohint" x="45" y="0" flags="0x0"/>
      <component glyphName="G" x="0" y="0" flags="0x204"/>
      <component glyphName="commaaccent" x="262" y="-59" flags="0x4"/>
    </TTGlyph>
    <TTGlyph name="Gdotaccent" xMin="45" yMin="-15" xMax="680" yMax="915">
      <component glyphName=".ttfautohint" x="45" y="0" flags="0x0"/>
      <component glyphName="G" x="0" y="0" flags="0x204"/>
      <component glyphName="dotaccent" x="265" y="215" flags="0x4"/>
    </TTGlyph>
    <TTGlyph name="H" xMin="50" yMin="0" xMax="715" yMax="700">
      <contour>
        <pt x="50" y="685" on="1"/>
        <pt x="50" y="700" on="1"/>
        <pt x="335" y="700" on="1"/>
        <pt x="335" y="685" on="1"/>
        <pt x="275" y="670" on="1"/>
        <pt x="275" y="360" on="1"/>
        <pt x="490" y="360" on="1"/>
        <pt x="490" y="670" on="1"/>
        <pt x="430" y="685" on="1"/>
        <pt x="430" y="700" on="1"/>
        <pt x="715" y="700" on="1"/>
        <pt x="715" y="685" on="1"/>
        <pt x="655" y="670" on="1"/>
        <pt x="655" y="30" on="1"/>
        <pt x="715" y="15" on="1"/>
        <pt x="715" y="0" on="1"/>
        <pt x="430" y="0" on="1"/>
        <pt x="430" y="15" on="1"/>
        <pt x="490" y="30" on="1"/>
        <pt x="490" y="335" on="1"/>
        <pt x="275" y="335" on="1"/>
        <pt x="275" y="30" on="1"/>
        <pt x="335" y="15" on="1"/>
        <pt x="335" y="0" on="1"/>
        <pt x="50" y="0" on="1"/>
        <pt x="50" y="15" on="1"/>
        <pt x="110" y="30" on="1"/>
        <pt x="110" y="670" on="1"/>
      </contour>
    </TTGlyph>
    <TTGlyph name="Hcircumflex" xMin="50" yMin="0" xMax="715" yMax="930">
      <component glyphName=".ttfautohint" x="50" y="0" flags="0x0"/>
      <component glyphName="H" x="0" y="0" flags="0x204"/>
      <component glyphName="circumflex" x="217" y="215" flags="0x4"/>
    </TTGlyph>
    <TTGlyph name="I" xMin="50" yMin="0" xMax="335" yMax="700">
      <contour>
        <pt x="50" y="685" on="1"/>
        <pt x="50" y="700" on="1"/>
        <pt x="335" y="700" on="1"/>
        <pt x="335" y="685" on="1"/>
        <pt x="275" y="670" on="1"/>
        <pt x="275" y="30" on="1"/>
        <pt x="335" y="15" on="1"/>
        <pt x="335" y="0" on="1"/>
        <pt x="50" y="0" on="1"/>
        <pt x="50" y="15" on="1"/>
        <pt x="110" y="30" on="1"/>
        <pt x="110" y="670" on="1"/>
      </contour>
    </TTGlyph>
    <TTGlyph name="Iacute" xMin="50" yMin="0" xMax="337" yMax="900">
      <component glyphName=".ttfautohint" x="50" y="0" flags="0x0"/>
      <component glyphName="I" x="0" y="0" flags="0x204"/>
      <component glyphName="acute" x="137" y="200" flags="0x4"/>
    </TTGlyph>
    <TTGlyph name="Ibreve" xMin="45" yMin="0" xMax="345" yMax="910">
      <component glyphName=".ttfautohint" x="45" y="0" flags="0x0"/>
      <component glyphName="I" x="0" y="0" flags="0x204"/>
      <component glyphName="breve" x="30" y="215" flags="0x4"/>
    </TTGlyph>
    <TTGlyph name="Icircumflex" xMin="47" yMin="0" xMax="337" yMax="930">
      <component glyphName=".ttfautohint" x="47" y="0" flags="0x0"/>
      <component glyphName="I" x="0" y="0" flags="0x204"/>
      <component glyphName="circumflex" x="27" y="215" flags="0x4"/>
    </TTGlyph>
    <TTGlyph name="Idieresis" xMin="30" yMin="0" xMax="355" yMax="915">
      <component glyphName=".ttfautohint" x="30" y="0" flags="0x0"/>
      <component glyphName="I" x="0" y="0" flags="0x204"/>
      <component glyphName="dieresis" x="10" y="215" flags="0x4"/>
    </TTGlyph>
    <TTGlyph name="Idotaccent" xMin="50" yMin="0" xMax="335" yMax="910">
      <component glyphName=".ttfautohint" x="50" y="0" flags="0x0"/>
      <component glyphName="I" x="0" y="0" flags="0x204"/>
      <component glyphName="dotaccent" x="102" y="210" flags="0x4"/>
    </TTGlyph>
    <TTGlyph name="Igrave" xMin="47" yMin="0" xMax="335" yMax="900">
      <component glyphName=".ttfautohint" x="47" y="0" flags="0x0"/>
      <component glyphName="I" x="0" y="0" flags="0x204"/>
      <component glyphName="grave" x="27" y="200" flags="0x4"/>
    </TTGlyph>
    <TTGlyph name="Imacron" xMin="50" yMin="0" xMax="335" yMax="825">
      <component glyphName=".ttfautohint" x="50" y="0" flags="0x0"/>
      <component glyphName="I" x="0" y="0" flags="0x204"/>
      <component glyphName="macron" x="40" y="125" flags="0x4"/>
    </TTGlyph>
    <TTGlyph name="Iogonek" xMin="50" yMin="-190" xMax="335" yMax="700">
      <contour>
        <pt x="50" y="685" on="1"/>
        <pt x="50" y="700" on="1"/>
        <pt x="335" y="700" on="1"/>
        <pt x="335" y="685" on="1"/>
        <pt x="275" y="670" on="1"/>
        <pt x="275" y="30" on="1"/>
        <pt x="335" y="15" on="1"/>
        <pt x="335" y="0" on="1"/>
        <pt x="275" y="0" on="1"/>
        <pt x="248" y="-13" on="0"/>
        <pt x="227" y="-31" on="1"/>
        <pt x="209" y="-47" on="0"/>
        <pt x="180" y="-93" on="0"/>
        <pt x="180" y="-125" on="1"/>
        <pt x="180" y="-165" on="0"/>
        <pt x="220" y="-165" on="1"/>
        <pt x="229" y="-165" on="0"/>
        <pt x="246" y="-159" on="0"/>
        <pt x="252" y="-155" on="1"/>
        <pt x="259" y="-151" on="0"/>
        <pt x="265" y="-145" on="1"/>
        <pt x="265" y="-175" on="1"/>
        <pt x="257" y="-179" on="0"/>
        <pt x="247" y="-183" on="1"/>
        <pt x="228" y="-190" on="0"/>
        <pt x="200" y="-190" on="1"/>
        <pt x="147" y="-190" on="0"/>
        <pt x="95" y="-145" on="0"/>
        <pt x="95" y="-115" on="1"/>
        <pt x="95" y="-95" on="0"/>
        <pt x="113" y="-62" on="0"/>
        <pt x="141" y="-37" on="0"/>
        <pt x="174" y="-19" on="0"/>
        <pt x="204" y="-7" on="0"/>
        <pt x="226" y="-1" on="0"/>
        <pt x="229" y="0" on="1"/>
        <pt x="50" y="0" on="1"/>
        <pt x="50" y="15" on="1"/>
        <pt x="110" y="30" on="1"/>
        <pt x="110" y="670" on="1"/>
      </contour>
    </TTGlyph>
    <TTGlyph name="Itilde" xMin="46" yMin="0" xMax="331" yMax="895">
      <component glyphName=".ttfautohint" x="46" y="0" flags="0x0"/>
      <component glyphName="I" x="-4" y="0" flags="0x4"/>
      <component glyphName="tilde" x="30" y="195" flags="0x4"/>
    </TTGlyph>
    <TTGlyph name="J" xMin="0" yMin="-15" xMax="510" yMax="700">
      <contour>
        <pt x="165" y="5" on="1"/>
        <pt x="191" y="5" on="0"/>
        <pt x="235" y="25" on="0"/>
        <pt x="267" y="71" on="0"/>
        <pt x="285" y="146" on="0"/>
        <pt x="285" y="200" on="1"/>
        <pt x="285" y="670" on="1"/>
        <pt x="225" y="685" on="1"/>
        <pt x="225" y="700" on="1"/>
        <pt x="510" y="700" on="1"/>
        <pt x="510" y="685" on="1"/>
        <pt x="450" y="670" on="1"/>
        <pt x="450" y="200" on="1"/>
        <pt x="450" y="99" on="0"/>
        <pt x="324" y="-15" on="0"/>
        <pt x="185" y="-15" on="1"/>
        <pt x="136" y="-15" on="0"/>
        <pt x="66" y="4" on="0"/>
        <pt x="21" y="35" on="0"/>
        <pt x="0" y="74" on="0"/>
        <pt x="0" y="95" on="1"/>
        <pt x="0" y="129" on="0"/>
        <pt x="41" y="170" on="0"/>
        <pt x="75" y="170" on="1"/>
        <pt x="83" y="170" on="0"/>
        <pt x="96" y="168" on="0"/>
        <pt x="102" y="167" on="1"/>
        <pt x="108" y="166" on="0"/>
        <pt x="115" y="165" on="1"/>
        <pt x="115" y="15" on="1"/>
        <pt x="121" y="12" on="0"/>
        <pt x="129" y="10" on="1"/>
        <pt x="144" y="5" on="0"/>
      </contour>
    </TTGlyph>
    <TTGlyph name="Jcircumflex" xMin="0" yMin="-15" xMax="510" yMax="925">
      <component glyphName=".ttfautohint" x="0" y="0" flags="0x0"/>
      <component glyphName="J" x="0" y="0" flags="0x204"/>
      <component glyphName="circumflex" x="197" y="210" flags="0x4"/>
    </TTGlyph>
    <TTGlyph name="K" xMin="50" yMin="0" xMax="700" yMax="700">
      <contour>
        <pt x="700" y="15" on="1"/>
        <pt x="700" y="0" on="1"/>
        <pt x="560" y="0" on="1"/>
        <pt x="511" y="0" on="0"/>
        <pt x="448" y="51" on="0"/>
        <pt x="425" y="85" on="1"/>
        <pt x="275" y="315" on="1"/>
        <pt x="275" y="30" on="1"/>
        <pt x="335" y="15" on="1"/>
        <pt x="335" y="0" on="1"/>
        <pt x="50" y="0" on="1"/>
        <pt x="50" y="15" on="1"/>
        <pt x="110" y="30" on="1"/>
        <pt x="110" y="670" on="1"/>
        <pt x="50" y="685" on="1"/>
        <pt x="50" y="700" on="1"/>
        <pt x="335" y="700" on="1"/>
        <pt x="335" y="685" on="1"/>
        <pt x="275" y="670" on="1"/>
        <pt x="275" y="356" on="1"/>
        <pt x="520" y="655" on="1"/>
        <pt x="445" y="685" on="1"/>
        <pt x="445" y="700" on="1"/>
        <pt x="635" y="700" on="1"/>
        <pt x="635" y="685" on="1"/>
        <pt x="555" y="655" on="1"/>
        <pt x="380" y="440" on="1"/>
        <pt x="650" y="30" on="1"/>
      </contour>
    </TTGlyph>
    <TTGlyph name="Kcommaaccent" xMin="50" yMin="-284" xMax="700" yMax="700">
      <component glyphName=".ttfautohint" x="50" y="0" flags="0x0"/>
      <component glyphName="K" x="0" y="0" flags="0x204"/>
      <component glyphName="commaaccent" x="285" y="-34" flags="0x4"/>
    </TTGlyph>
    <TTGlyph name="L" xMin="50" yMin="0" xMax="585" yMax="700">
      <contour>
        <pt x="335" y="700" on="1"/>
        <pt x="335" y="685" on="1"/>
        <pt x="275" y="670" on="1"/>
        <pt x="275" y="25" on="1"/>
        <pt x="490" y="25" on="1"/>
        <pt x="490" y="64" on="0"/>
        <pt x="510" y="122" on="0"/>
        <pt x="522" y="142" on="1"/>
        <pt x="536" y="165" on="0"/>
        <pt x="555" y="180" on="1"/>
        <pt x="585" y="180" on="1"/>
        <pt x="585" y="0" on="1"/>
        <pt x="50" y="0" on="1"/>
        <pt x="50" y="15" on="1"/>
        <pt x="110" y="30" on="1"/>
        <pt x="110" y="670" on="1"/>
        <pt x="50" y="685" on="1"/>
        <pt x="50" y="700" on="1"/>
      </contour>
    </TTGlyph>
    <TTGlyph name="Lacute" xMin="50" yMin="0" xMax="585" yMax="900">
      <component glyphName=".ttfautohint" x="50" y="0" flags="0x0"/>
      <component glyphName="L" x="0" y="0" flags="0x204"/>
      <component glyphName="acute" x="130" y="200" flags="0x4"/>
    </TTGlyph>
    <TTGlyph name="Lcaron" xMin="50" yMin="0" xMax="585" yMax="700">
      <component glyphName=".ttfautohint" x="50" y="0" flags="0x0"/>
      <component glyphName="L" x="0" y="0" flags="0x204"/>
      <component glyphName="commaaccent" x="347" y="699" flags="0x4"/>
    </TTGlyph>
    <TTGlyph name="Lcommaaccent" xMin="50" yMin="-304" xMax="585" yMax="700">
      <component glyphName=".ttfautohint" x="50" y="0" flags="0x0"/>
      <component glyphName="L" x="0" y="0" flags="0x204"/>
      <component glyphName="commaaccent" x="262" y="-54" flags="0x4"/>
    </TTGlyph>
    <TTGlyph name="Ldot" xMin="50" yMin="0" xMax="585" yMax="700">
      <component glyphName=".ttfautohint" x="50" y="0" flags="0x0"/>
      <component glyphName="L" x="0" y="0" flags="0x204"/>
      <component glyphName="dotaccent" x="325" y="-279" flags="0x4"/>
    </TTGlyph>
    <TTGlyph name="Lslash" xMin="35" yMin="0" xMax="595" yMax="700">
      <contour>
        <pt x="345" y="700" on="1"/>
        <pt x="345" y="685" on="1"/>
        <pt x="285" y="670" on="1"/>
        <pt x="285" y="451" on="1"/>
        <pt x="365" y="500" on="1"/>
        <pt x="365" y="465" on="1"/>
        <pt x="285" y="416" on="1"/>
        <pt x="285" y="25" on="1"/>
        <pt x="500" y="25" on="1"/>
        <pt x="500" y="64" on="0"/>
        <pt x="520" y="122" on="0"/>
        <pt x="532" y="142" on="1"/>
        <pt x="546" y="165" on="0"/>
        <pt x="565" y="180" on="1"/>
        <pt x="595" y="180" on="1"/>
        <pt x="595" y="0" on="1"/>
        <pt x="60" y="0" on="1"/>
        <pt x="60" y="15" on="1"/>
        <pt x="120" y="30" on="1"/>
        <pt x="120" y="316" on="1"/>
        <pt x="35" y="265" on="1"/>
        <pt x="35" y="300" on="1"/>
        <pt x="120" y="351" on="1"/>
        <pt x="120" y="670" on="1"/>
        <pt x="60" y="685" on="1"/>
        <pt x="60" y="700" on="1"/>
      </contour>
    </TTGlyph>
    <TTGlyph name="M" xMin="30" yMin="-10" xMax="935" yMax="700">
      <contour>
        <pt x="935" y="700" on="1"/>
        <pt x="935" y="685" on="1"/>
        <pt x="875" y="670" on="1"/>
        <pt x="875" y="30" on="1"/>
        <pt x="935" y="15" on="1"/>
        <pt x="935" y="0" on="1"/>
        <pt x="650" y="0" on="1"/>
        <pt x="650" y="15" on="1"/>
        <pt x="710" y="30" on="1"/>
        <pt x="710" y="575" on="1"/>
        <pt x="475" y="-10" on="1"/>
        <pt x="445" y="-10" on="1"/>
        <pt x="140" y="575" on="1"/>
        <pt x="140" y="45" on="1"/>
        <pt x="220" y="15" on="1"/>
        <pt x="220" y="0" on="1"/>
        <pt x="30" y="0" on="1"/>
        <pt x="30" y="15" on="1"/>
        <pt x="110" y="45" on="1"/>
        <pt x="110" y="670" on="1"/>
        <pt x="50" y="685" on="1"/>
        <pt x="50" y="700" on="1"/>
        <pt x="175" y="700" on="1"/>
        <pt x="203" y="700" on="0"/>
        <pt x="245" y="687" on="0"/>
        <pt x="277" y="665" on="0"/>
        <pt x="300" y="634" on="0"/>
        <pt x="310" y="615" on="1"/>
        <pt x="528" y="198" on="1"/>
        <pt x="695" y="615" on="1"/>
        <pt x="703" y="636" on="0"/>
        <pt x="724" y="667" on="0"/>
        <pt x="754" y="689" on="0"/>
        <pt x="798" y="700" on="0"/>
        <pt x="830" y="700" on="1"/>
      </contour>
    </TTGlyph>
    <TTGlyph name="N" xMin="30" yMin="-15" xMax="715" yMax="700">
      <contour>
        <pt x="605" y="655" on="1"/>
        <pt x="525" y="685" on="1"/>
        <pt x="525" y="700" on="1"/>
        <pt x="715" y="700" on="1"/>
        <pt x="715" y="685" on="1"/>
        <pt x="635" y="655" on="1"/>
        <pt x="635" y="-15" on="1"/>
        <pt x="605" y="-15" on="1"/>
        <pt x="140" y="530" on="1"/>
        <pt x="140" y="45" on="1"/>
        <pt x="220" y="15" on="1"/>
        <pt x="220" y="0" on="1"/>
        <pt x="30" y="0" on="1"/>
        <pt x="30" y="15" on="1"/>
        <pt x="110" y="45" on="1"/>
        <pt x="110" y="665" on="1"/>
        <pt x="40" y="685" on="1"/>
        <pt x="40" y="700" on="1"/>
        <pt x="145" y="700" on="1"/>
        <pt x="175" y="700" on="0"/>
        <pt x="219" y="687" on="0"/>
        <pt x="252" y="666" on="0"/>
        <pt x="276" y="641" on="0"/>
        <pt x="285" y="630" on="1"/>
        <pt x="605" y="255" on="1"/>
      </contour>
    </TTGlyph>
    <TTGlyph name="Nacute" xMin="30" yMin="-15" xMax="715" yMax="890">
      <component glyphName=".ttfautohint" x="30" y="0" flags="0x0"/>
      <component glyphName="N" x="0" y="0" flags="0x204"/>
      <component glyphName="acute" x="307" y="190" flags="0x4"/>
    </TTGlyph>
    <TTGlyph name="Ncaron" xMin="30" yMin="-15" xMax="715" yMax="890">
      <component glyphName=".ttfautohint" x="30" y="0" flags="0x0"/>
      <component glyphName="N" x="0" y="0" flags="0x204"/>
      <component glyphName="caron" x="217" y="30" flags="0x4"/>
    </TTGlyph>
    <TTGlyph name="Ncommaaccent" xMin="30" yMin="-245" xMax="715" yMax="700">
      <component glyphName=".ttfautohint" x="30" y="0" flags="0x0"/>
      <component glyphName="N" x="0" y="0" flags="0x204"/>
      <component glyphName="commaaccent" x="280" y="5" flags="0x4"/>
    </TTGlyph>
    <TTGlyph name="Ntilde" xMin="30" yMin="-15" xMax="715" yMax="885">
      <component glyphName=".ttfautohint" x="30" y="0" flags="0x0"/>
      <component glyphName="N" x="0" y="0" flags="0x204"/>
      <component glyphName="tilde" x="235" y="185" flags="0x4"/>
    </TTGlyph>
    <TTGlyph name="O" xMin="45" yMin="-15" xMax="695" yMax="715">
      <contour>
        <pt x="520" y="350" on="1"/>
        <pt x="520" y="449" on="0"/>
        <pt x="493" y="582" on="0"/>
        <pt x="450" y="662" on="0"/>
        <pt x="396" y="695" on="0"/>
        <pt x="370" y="695" on="1"/>
        <pt x="344" y="695" on="0"/>
        <pt x="290" y="662" on="0"/>
        <pt x="247" y="582" on="0"/>
        <pt x="220" y="449" on="0"/>
        <pt x="220" y="350" on="1"/>
        <pt x="220" y="251" on="0"/>
        <pt x="247" y="118" on="0"/>
        <pt x="290" y="38" on="0"/>
        <pt x="344" y="5" on="0"/>
        <pt x="370" y="5" on="1"/>
        <pt x="396" y="5" on="0"/>
        <pt x="450" y="38" on="0"/>
        <pt x="493" y="118" on="0"/>
        <pt x="520" y="251" on="0"/>
      </contour>
      <contour>
        <pt x="695" y="350" on="1"/>
        <pt x="695" y="262" on="0"/>
        <pt x="648" y="126" on="0"/>
        <pt x="563" y="33" on="0"/>
        <pt x="443" y="-15" on="0"/>
        <pt x="370" y="-15" on="1"/>
        <pt x="297" y="-15" on="0"/>
        <pt x="177" y="33" on="0"/>
        <pt x="92" y="126" on="0"/>
        <pt x="45" y="262" on="0"/>
        <pt x="45" y="350" on="1"/>
        <pt x="45" y="438" on="0"/>
        <pt x="92" y="574" on="0"/>
        <pt x="177" y="667" on="0"/>
        <pt x="297" y="715" on="0"/>
        <pt x="370" y="715" on="1"/>
        <pt x="443" y="715" on="0"/>
        <pt x="563" y="667" on="0"/>
        <pt x="648" y="574" on="0"/>
        <pt x="695" y="438" on="0"/>
      </contour>
    </TTGlyph>
    <TTGlyph name="OE" xMin="45" yMin="0" xMax="945" yMax="700">
      <contour>
        <pt x="925" y="700" on="1"/>
        <pt x="925" y="520" on="1"/>
        <pt x="895" y="520" on="1"/>
        <pt x="876" y="535" on="0"/>
        <pt x="862" y="558" on="1"/>
        <pt x="850" y="578" on="0"/>
        <pt x="830" y="635" on="0"/>
        <pt x="830" y="675" on="1"/>
        <pt x="625" y="675" on="1"/>
        <pt x="625" y="360" on="1"/>
        <pt x="730" y="360" on="1"/>
        <pt x="734" y="380" on="0"/>
        <pt x="748" y="417" on="0"/>
        <pt x="756" y="431" on="1"/>
        <pt x="765" y="447" on="0"/>
        <pt x="775" y="460" on="1"/>
        <pt x="805" y="460" on="1"/>
        <pt x="805" y="235" on="1"/>
        <pt x="775" y="235" on="1"/>
        <pt x="765" y="248" on="0"/>
        <pt x="756" y="264" on="1"/>
        <pt x="748" y="278" on="0"/>
        <pt x="734" y="314" on="0"/>
        <pt x="730" y="335" on="1"/>
        <pt x="625" y="335" on="1"/>
        <pt x="625" y="25" on="1"/>
        <pt x="850" y="25" on="1"/>
        <pt x="850" y="64" on="0"/>
        <pt x="870" y="122" on="0"/>
        <pt x="882" y="142" on="1"/>
        <pt x="896" y="165" on="0"/>
        <pt x="915" y="180" on="1"/>
        <pt x="945" y="180" on="1"/>
        <pt x="945" y="0" on="1"/>
        <pt x="415" y="0" on="1"/>
        <pt x="235" y="0" on="0"/>
        <pt x="45" y="185" on="0"/>
        <pt x="45" y="350" on="1"/>
        <pt x="45" y="515" on="0"/>
        <pt x="235" y="700" on="0"/>
        <pt x="415" y="700" on="1"/>
      </contour>
      <contour>
        <pt x="415" y="675" on="1"/>
        <pt x="372" y="675" on="0"/>
        <pt x="300" y="642" on="0"/>
        <pt x="249" y="566" on="0"/>
        <pt x="220" y="442" on="0"/>
        <pt x="220" y="350" on="1"/>
        <pt x="220" y="258" on="0"/>
        <pt x="249" y="134" on="0"/>
        <pt x="300" y="58" on="0"/>
        <pt x="372" y="25" on="0"/>
        <pt x="415" y="25" on="1"/>
        <pt x="460" y="25" on="1"/>
        <pt x="460" y="675" on="1"/>
      </contour>
    </TTGlyph>
    <TTGlyph name="Oacute" xMin="45" yMin="-15" xMax="695" yMax="900">
      <component glyphName=".ttfautohint" x="45" y="0" flags="0x0"/>
      <component glyphName="O" x="0" y="0" flags="0x204"/>
      <component glyphName="acute" x="315" y="200" flags="0x4"/>
    </TTGlyph>
    <TTGlyph name="Obreve" xMin="45" yMin="-15" xMax="695" yMax="910">
      <component glyphName=".ttfautohint" x="45" y="0" flags="0x0"/>
      <component glyphName="O" x="0" y="0" flags="0x204"/>
      <component glyphName="breve" x="205" y="215" flags="0x4"/>
    </TTGlyph>
    <TTGlyph name="Ocircumflex" xMin="45" yMin="-15" xMax="695" yMax="930">
      <component glyphName=".ttfautohint" x="45" y="0" flags="0x0"/>
      <component glyphName="O" x="0" y="0" flags="0x204"/>
      <component glyphName="circumflex" x="205" y="215" flags="0x4"/>
    </TTGlyph>
    <TTGlyph name="Odieresis" xMin="45" yMin="-15" xMax="695" yMax="915">
      <component glyphName=".ttfautohint" x="45" y="0" flags="0x0"/>
      <component glyphName="O" x="0" y="0" flags="0x204"/>
      <component glyphName="dieresis" x="187" y="215" flags="0x4"/>
    </TTGlyph>
    <TTGlyph name="Ograve" xMin="45" yMin="-15" xMax="695" yMax="900">
      <component glyphName=".ttfautohint" x="45" y="0" flags="0x0"/>
      <component glyphName="O" x="0" y="0" flags="0x204"/>
      <component glyphName="grave" x="205" y="200" flags="0x4"/>
    </TTGlyph>
    <TTGlyph name="Ohungarumlaut" xMin="45" yMin="-15" xMax="695" yMax="905">
      <component glyphName=".ttfautohint" x="45" y="0" flags="0x0"/>
      <component glyphName="O" x="0" y="0" flags="0x204"/>
      <component glyphName="hungarumlaut" x="262" y="205" flags="0x4"/>
    </TTGlyph>
    <TTGlyph name="Omacron" xMin="45" yMin="-15" xMax="695" yMax="840">
      <component glyphName=".ttfautohint" x="45" y="0" flags="0x0"/>
      <component glyphName="O" x="0" y="0" flags="0x204"/>
      <component glyphName="macron" x="220" y="140" flags="0x4"/>
    </TTGlyph>
    <TTGlyph name="Oslash" xMin="45" yMin="-15" xMax="695" yMax="715">
      <contour>
        <pt x="695" y="350" on="1"/>
        <pt x="695" y="262" on="0"/>
        <pt x="648" y="126" on="0"/>
        <pt x="563" y="33" on="0"/>
        <pt x="443" y="-15" on="0"/>
        <pt x="370" y="-15" on="1"/>
        <pt x="245" y="-15" on="0"/>
        <pt x="163" y="56" on="1"/>
        <pt x="120" y="0" on="1"/>
        <pt x="85" y="0" on="1"/>
        <pt x="142" y="75" on="1"/>
        <pt x="98" y="122" on="0"/>
        <pt x="45" y="259" on="0"/>
        <pt x="45" y="350" on="1"/>
        <pt x="45" y="438" on="0"/>
        <pt x="92" y="574" on="0"/>
        <pt x="177" y="667" on="0"/>
        <pt x="297" y="715" on="0"/>
        <pt x="370" y="715" on="1"/>
        <pt x="494" y="715" on="0"/>
        <pt x="577" y="644" on="1"/>
        <pt x="620" y="700" on="1"/>
        <pt x="655" y="700" on="1"/>
        <pt x="597" y="624" on="1"/>
        <pt x="642" y="577" on="0"/>
        <pt x="695" y="441" on="0"/>
      </contour>
      <contour>
        <pt x="520" y="350" on="1"/>
        <pt x="520" y="397" on="0"/>
        <pt x="513" y="475" on="0"/>
        <pt x="508" y="507" on="1"/>
        <pt x="239" y="156" on="1"/>
        <pt x="249" y="114" on="0"/>
        <pt x="279" y="56" on="0"/>
        <pt x="314" y="20" on="0"/>
        <pt x="352" y="5" on="0"/>
        <pt x="370" y="5" on="1"/>
        <pt x="396" y="5" on="0"/>
        <pt x="450" y="38" on="0"/>
        <pt x="493" y="118" on="0"/>
        <pt x="520" y="251" on="0"/>
      </contour>
      <contour>
        <pt x="220" y="350" on="1"/>
        <pt x="220" y="256" on="0"/>
        <pt x="232" y="192" on="1"/>
        <pt x="500" y="543" on="1"/>
        <pt x="489" y="585" on="0"/>
        <pt x="460" y="643" on="0"/>
        <pt x="425" y="679" on="0"/>
        <pt x="388" y="695" on="0"/>
        <pt x="370" y="695" on="1"/>
        <pt x="344" y="695" on="0"/>
        <pt x="290" y="662" on="0"/>
        <pt x="247" y="582" on="0"/>
        <pt x="220" y="449" on="0"/>
      </contour>
    </TTGlyph>
    <TTGlyph name="Oslashacute" xMin="45" yMin="-15" xMax="695" yMax="900">
      <contour>
        <pt x="695" y="350" on="1"/>
        <pt x="695" y="262" on="0"/>
        <pt x="648" y="126" on="0"/>
        <pt x="563" y="33" on="0"/>
        <pt x="443" y="-15" on="0"/>
        <pt x="370" y="-15" on="1"/>
        <pt x="245" y="-15" on="0"/>
        <pt x="163" y="56" on="1"/>
        <pt x="120" y="0" on="1"/>
        <pt x="85" y="0" on="1"/>
        <pt x="142" y="75" on="1"/>
        <pt x="98" y="122" on="0"/>
        <pt x="45" y="259" on="0"/>
        <pt x="45" y="350" on="1"/>
        <pt x="45" y="438" on="0"/>
        <pt x="92" y="574" on="0"/>
        <pt x="177" y="667" on="0"/>
        <pt x="297" y="715" on="0"/>
        <pt x="370" y="715" on="1"/>
        <pt x="494" y="715" on="0"/>
        <pt x="577" y="644" on="1"/>
        <pt x="620" y="700" on="1"/>
        <pt x="655" y="700" on="1"/>
        <pt x="597" y="624" on="1"/>
        <pt x="642" y="577" on="0"/>
        <pt x="695" y="441" on="0"/>
      </contour>
      <contour>
        <pt x="520" y="350" on="1"/>
        <pt x="520" y="397" on="0"/>
        <pt x="513" y="475" on="0"/>
        <pt x="508" y="507" on="1"/>
        <pt x="239" y="156" on="1"/>
        <pt x="249" y="114" on="0"/>
        <pt x="279" y="56" on="0"/>
        <pt x="314" y="20" on="0"/>
        <pt x="352" y="5" on="0"/>
        <pt x="370" y="5" on="1"/>
        <pt x="396" y="5" on="0"/>
        <pt x="450" y="38" on="0"/>
        <pt x="493" y="118" on="0"/>
        <pt x="520" y="251" on="0"/>
      </contour>
      <contour>
        <pt x="220" y="350" on="1"/>
        <pt x="220" y="256" on="0"/>
        <pt x="232" y="192" on="1"/>
        <pt x="500" y="543" on="1"/>
        <pt x="489" y="585" on="0"/>
        <pt x="460" y="643" on="0"/>
        <pt x="425" y="679" on="0"/>
        <pt x="388" y="695" on="0"/>
        <pt x="370" y="695" on="1"/>
        <pt x="344" y="695" on="0"/>
        <pt x="290" y="662" on="0"/>
        <pt x="247" y="582" on="0"/>
        <pt x="220" y="449" on="0"/>
      </contour>
      <contour>
        <pt x="505" y="900" on="1"/>
        <pt x="370" y="750" on="1"/>
        <pt x="335" y="750" on="1"/>
        <pt x="375" y="900" on="1"/>
      </contour>
    </TTGlyph>
    <TTGlyph name="Otilde" xMin="45" yMin="-15" xMax="695" yMax="895">
      <component glyphName=".ttfautohint" x="45" y="0" flags="0x0"/>
      <component glyphName="O" x="0" y="0" flags="0x204"/>
      <component glyphName="tilde" x="217" y="195" flags="0x4"/>
    </TTGlyph>
    <TTGlyph name="P" xMin="50" yMin="0" xMax="640" yMax="700">
      <contour>
        <pt x="330" y="295" on="1"/>
        <pt x="360" y="295" on="0"/>
        <pt x="411" y="318" on="0"/>
        <pt x="449" y="365" on="0"/>
        <pt x="470" y="436" on="0"/>
        <pt x="470" y="485" on="1"/>
        <pt x="470" y="582" on="0"/>
        <pt x="390" y="675" on="0"/>
        <pt x="330" y="675" on="1"/>
        <pt x="275" y="675" on="1"/>
        <pt x="275" y="295" on="1"/>
      </contour>
      <contour>
        <pt x="275" y="270" on="1"/>
        <pt x="275" y="30" on="1"/>
        <pt x="335" y="15" on="1"/>
        <pt x="335" y="0" on="1"/>
        <pt x="50" y="0" on="1"/>
        <pt x="50" y="15" on="1"/>
        <pt x="110" y="30" on="1"/>
        <pt x="110" y="670" on="1"/>
        <pt x="50" y="685" on="1"/>
        <pt x="50" y="700" on="1"/>
        <pt x="330" y="700" on="1"/>
        <pt x="416" y="700" on="0"/>
        <pt x="535" y="671" on="0"/>
        <pt x="608" y="615" on="0"/>
        <pt x="640" y="536" on="0"/>
        <pt x="640" y="485" on="1"/>
        <pt x="640" y="434" on="0"/>
        <pt x="608" y="355" on="0"/>
        <pt x="535" y="299" on="0"/>
        <pt x="416" y="270" on="0"/>
        <pt x="330" y="270" on="1"/>
      </contour>
    </TTGlyph>
    <TTGlyph name="Q" xMin="45" yMin="-170" xMax="695" yMax="715">
      <contour>
        <pt x="695" y="350" on="1"/>
        <pt x="695" y="199" on="0"/>
        <pt x="563" y="18" on="0"/>
        <pt x="450" y="-5" on="1"/>
        <pt x="450" y="-46" on="0"/>
        <pt x="459" y="-99" on="0"/>
        <pt x="473" y="-129" on="0"/>
        <pt x="491" y="-140" on="0"/>
        <pt x="500" y="-140" on="1"/>
        <pt x="514" y="-140" on="0"/>
        <pt x="522" y="-135" on="1"/>
        <pt x="526" y="-133" on="0"/>
        <pt x="530" y="-130" on="1"/>
        <pt x="540" y="-155" on="1"/>
        <pt x="534" y="-159" on="0"/>
        <pt x="524" y="-163" on="1"/>
        <pt x="505" y="-170" on="0"/>
        <pt x="470" y="-170" on="1"/>
        <pt x="429" y="-170" on="0"/>
        <pt x="362" y="-145" on="0"/>
        <pt x="315" y="-101" on="0"/>
        <pt x="290" y="-41" on="0"/>
        <pt x="290" y="-5" on="1"/>
        <pt x="177" y="18" on="0"/>
        <pt x="45" y="199" on="0"/>
        <pt x="45" y="350" on="1"/>
        <pt x="45" y="438" on="0"/>
        <pt x="92" y="574" on="0"/>
        <pt x="177" y="667" on="0"/>
        <pt x="297" y="715" on="0"/>
        <pt x="370" y="715" on="1"/>
        <pt x="443" y="715" on="0"/>
        <pt x="563" y="667" on="0"/>
        <pt x="648" y="574" on="0"/>
        <pt x="695" y="438" on="0"/>
      </contour>
      <contour>
        <pt x="520" y="350" on="1"/>
        <pt x="520" y="449" on="0"/>
        <pt x="493" y="582" on="0"/>
        <pt x="450" y="662" on="0"/>
        <pt x="396" y="695" on="0"/>
        <pt x="370" y="695" on="1"/>
        <pt x="344" y="695" on="0"/>
        <pt x="290" y="662" on="0"/>
        <pt x="247" y="582" on="0"/>
        <pt x="220" y="449" on="0"/>
        <pt x="220" y="350" on="1"/>
        <pt x="220" y="251" on="0"/>
        <pt x="247" y="118" on="0"/>
        <pt x="290" y="38" on="0"/>
        <pt x="344" y="5" on="0"/>
        <pt x="370" y="5" on="1"/>
        <pt x="396" y="5" on="0"/>
        <pt x="450" y="38" on="0"/>
        <pt x="493" y="118" on="0"/>
        <pt x="520" y="251" on="0"/>
      </contour>
    </TTGlyph>
    <TTGlyph name="R" xMin="50" yMin="0" xMax="700" yMax="700">
      <contour>
        <pt x="400" y="320" on="1"/>
        <pt x="434" y="319" on="0"/>
        <pt x="465" y="309" on="1"/>
        <pt x="491" y="301" on="0"/>
        <pt x="545" y="264" on="0"/>
        <pt x="560" y="230" on="1"/>
        <pt x="650" y="30" on="1"/>
        <pt x="700" y="15" on="1"/>
        <pt x="700" y="0" on="1"/>
        <pt x="560" y="0" on="1"/>
        <pt x="515" y="0" on="0"/>
        <pt x="457" y="47" on="0"/>
        <pt x="440" y="85" on="1"/>
        <pt x="340" y="310" on="1"/>
        <pt x="275" y="310" on="1"/>
        <pt x="275" y="30" on="1"/>
        <pt x="345" y="15" on="1"/>
        <pt x="345" y="0" on="1"/>
        <pt x="50" y="0" on="1"/>
        <pt x="50" y="15" on="1"/>
        <pt x="110" y="30" on="1"/>
        <pt x="110" y="670" on="1"/>
        <pt x="50" y="685" on="1"/>
        <pt x="50" y="700" on="1"/>
        <pt x="315" y="700" on="1"/>
        <pt x="405" y="700" on="0"/>
        <pt x="527" y="671" on="0"/>
        <pt x="602" y="620" on="0"/>
        <pt x="635" y="548" on="0"/>
        <pt x="635" y="505" on="1"/>
        <pt x="635" y="471" on="0"/>
        <pt x="615" y="420" on="0"/>
        <pt x="582" y="381" on="0"/>
        <pt x="539" y="355" on="0"/>
        <pt x="517" y="347" on="1"/>
        <pt x="465" y="327" on="0"/>
        <pt x="400" y="325" on="1"/>
      </contour>
      <contour>
        <pt x="315" y="335" on="1"/>
        <pt x="383" y="335" on="0"/>
        <pt x="465" y="422" on="0"/>
        <pt x="465" y="505" on="1"/>
        <pt x="465" y="588" on="0"/>
        <pt x="383" y="675" on="0"/>
        <pt x="315" y="675" on="1"/>
        <pt x="275" y="675" on="1"/>
        <pt x="275" y="335" on="1"/>
      </contour>
    </TTGlyph>
    <TTGlyph name="Racute" xMin="50" yMin="0" xMax="700" yMax="900">
      <component glyphName=".ttfautohint" x="50" y="0" flags="0x0"/>
      <component glyphName="R" x="0" y="0" flags="0x204"/>
      <component glyphName="acute" x="277" y="200" flags="0x4"/>
    </TTGlyph>
    <TTGlyph name="Rcaron" xMin="50" yMin="0" xMax="700" yMax="910">
      <component glyphName=".ttfautohint" x="50" y="0" flags="0x0"/>
      <component glyphName="R" x="0" y="0" flags="0x204"/>
      <component glyphName="caron" x="187" y="50" flags="0x4"/>
    </TTGlyph>
    <TTGlyph name="Rcommaaccent" xMin="50" yMin="-284" xMax="700" yMax="700">
      <component glyphName=".ttfautohint" x="50" y="0" flags="0x0"/>
      <component glyphName="R" x="0" y="0" flags="0x204"/>
      <component glyphName="commaaccent" x="293" y="-34" flags="0x4"/>
    </TTGlyph>
    <TTGlyph name="S" xMin="35" yMin="-15" xMax="570" yMax="715">
      <contour>
        <pt x="275" y="10" on="1"/>
        <pt x="332" y="10" on="0"/>
        <pt x="400" y="78" on="0"/>
        <pt x="400" y="135" on="1"/>
        <pt x="400" y="174" on="0"/>
        <pt x="347" y="231" on="0"/>
        <pt x="269" y="281" on="0"/>
        <pt x="176" y="331" on="0"/>
        <pt x="98" y="395" on="0"/>
        <pt x="45" y="480" on="0"/>
        <pt x="45" y="540" on="1"/>
        <pt x="45" y="576" on="0"/>
        <pt x="75" y="639" on="0"/>
        <pt x="136" y="687" on="0"/>
        <pt x="228" y="715" on="0"/>
        <pt x="290" y="715" on="1"/>
        <pt x="325" y="715" on="0"/>
        <pt x="385" y="694" on="0"/>
        <pt x="406" y="682" on="1"/>
        <pt x="431" y="668" on="0"/>
        <pt x="450" y="650" on="1"/>
        <pt x="458" y="663" on="0"/>
        <pt x="477" y="684" on="0"/>
        <pt x="485" y="691" on="1"/>
        <pt x="495" y="699" on="0"/>
        <pt x="505" y="705" on="1"/>
        <pt x="530" y="705" on="1"/>
        <pt x="530" y="515" on="1"/>
        <pt x="490" y="515" on="1"/>
        <pt x="476" y="563" on="0"/>
        <pt x="451" y="602" on="1"/>
        <pt x="430" y="635" on="0"/>
        <pt x="360" y="690" on="0"/>
        <pt x="310" y="690" on="1"/>
        <pt x="291" y="690" on="0"/>
        <pt x="257" y="674" on="0"/>
        <pt x="231" y="645" on="0"/>
        <pt x="215" y="604" on="0"/>
        <pt x="215" y="580" on="1"/>
        <pt x="215" y="537" on="0"/>
        <pt x="268" y="476" on="0"/>
        <pt x="346" y="424" on="0"/>
        <pt x="439" y="374" on="0"/>
        <pt x="517" y="313" on="0"/>
        <pt x="570" y="235" on="0"/>
        <pt x="570" y="180" on="1"/>
        <pt x="570" y="141" on="0"/>
        <pt x="536" y="70" on="0"/>
        <pt x="468" y="16" on="0"/>
        <pt x="364" y="-15" on="0"/>
        <pt x="295" y="-15" on="1"/>
        <pt x="251" y="-15" on="0"/>
        <pt x="185" y="5" on="0"/>
        <pt x="162" y="17" on="1"/>
        <pt x="135" y="31" on="0"/>
        <pt x="115" y="50" on="1"/>
        <pt x="107" y="36" on="0"/>
        <pt x="88" y="16" on="0"/>
        <pt x="80" y="9" on="1"/>
        <pt x="70" y="1" on="0"/>
        <pt x="60" y="-5" on="1"/>
        <pt x="35" y="-5" on="1"/>
        <pt x="35" y="185" on="1"/>
        <pt x="75" y="185" on="1"/>
        <pt x="90" y="136" on="0"/>
        <pt x="117" y="97" on="1"/>
        <pt x="129" y="80" on="0"/>
        <pt x="159" y="49" on="0"/>
        <pt x="198" y="25" on="0"/>
        <pt x="246" y="10" on="0"/>
      </contour>
    </TTGlyph>
    <TTGlyph name="Sacute" xMin="35" yMin="-15" xMax="570" yMax="900">
      <component glyphName=".ttfautohint" x="35" y="0" flags="0x0"/>
      <component glyphName="S" x="0" y="0" flags="0x204"/>
      <component glyphName="acute" x="232" y="200" flags="0x4"/>
    </TTGlyph>
    <TTGlyph name="Scaron" xMin="35" yMin="-15" xMax="570" yMax="915">
      <component glyphName=".ttfautohint" x="35" y="0" flags="0x0"/>
      <component glyphName="S" x="0" y="0" flags="0x204"/>
      <component glyphName="caron" x="132" y="55" flags="0x4"/>
    </TTGlyph>
    <TTGlyph name="Scedilla" xMin="35" yMin="-200" xMax="570" yMax="715">
      <contour>
        <pt x="275" y="10" on="1"/>
        <pt x="332" y="10" on="0"/>
        <pt x="400" y="78" on="0"/>
        <pt x="400" y="135" on="1"/>
        <pt x="400" y="174" on="0"/>
        <pt x="348" y="231" on="0"/>
        <pt x="270" y="281" on="0"/>
        <pt x="180" y="331" on="0"/>
        <pt x="102" y="395" on="0"/>
        <pt x="50" y="480" on="0"/>
        <pt x="50" y="540" on="1"/>
        <pt x="50" y="576" on="0"/>
        <pt x="80" y="639" on="0"/>
        <pt x="141" y="687" on="0"/>
        <pt x="233" y="715" on="0"/>
        <pt x="295" y="715" on="1"/>
        <pt x="330" y="715" on="0"/>
        <pt x="390" y="694" on="0"/>
        <pt x="411" y="682" on="1"/>
        <pt x="436" y="668" on="0"/>
        <pt x="455" y="650" on="1"/>
        <pt x="463" y="663" on="0"/>
        <pt x="482" y="684" on="0"/>
        <pt x="490" y="691" on="1"/>
        <pt x="500" y="699" on="0"/>
        <pt x="510" y="705" on="1"/>
        <pt x="535" y="705" on="1"/>
        <pt x="535" y="515" on="1"/>
        <pt x="495" y="515" on="1"/>
        <pt x="481" y="563" on="0"/>
        <pt x="456" y="602" on="1"/>
        <pt x="435" y="635" on="0"/>
        <pt x="365" y="690" on="0"/>
        <pt x="315" y="690" on="1"/>
        <pt x="296" y="690" on="0"/>
        <pt x="262" y="674" on="0"/>
        <pt x="236" y="645" on="0"/>
        <pt x="220" y="604" on="0"/>
        <pt x="220" y="580" on="1"/>
        <pt x="220" y="537" on="0"/>
        <pt x="272" y="476" on="0"/>
        <pt x="350" y="424" on="0"/>
        <pt x="440" y="374" on="0"/>
        <pt x="518" y="313" on="0"/>
        <pt x="570" y="235" on="0"/>
        <pt x="570" y="180" on="1"/>
        <pt x="570" y="142" on="0"/>
        <pt x="538" y="73" on="0"/>
        <pt x="474" y="20" on="0"/>
        <pt x="377" y="-13" on="0"/>
        <pt x="313" y="-15" on="1"/>
        <pt x="313" y="-50" on="1"/>
        <pt x="358" y="-50" on="0"/>
        <pt x="408" y="-95" on="0"/>
        <pt x="408" y="-125" on="1"/>
        <pt x="408" y="-155" on="0"/>
        <pt x="356" y="-200" on="0"/>
        <pt x="303" y="-200" on="1"/>
        <pt x="292" y="-200" on="0"/>
        <pt x="272" y="-199" on="0"/>
        <pt x="264" y="-198" on="1"/>
        <pt x="255" y="-197" on="0"/>
        <pt x="247" y="-195" on="1"/>
        <pt x="247" y="-165" on="1"/>
        <pt x="251" y="-168" on="0"/>
        <pt x="257" y="-170" on="1"/>
        <pt x="267" y="-175" on="0"/>
        <pt x="283" y="-175" on="1"/>
        <pt x="306" y="-175" on="0"/>
        <pt x="333" y="-148" on="0"/>
        <pt x="333" y="-125" on="1"/>
        <pt x="333" y="-102" on="0"/>
        <pt x="304" y="-75" on="0"/>
        <pt x="278" y="-75" on="1"/>
        <pt x="278" y="-14" on="1"/>
        <pt x="238" y="-12" on="0"/>
        <pt x="178" y="9" on="0"/>
        <pt x="157" y="20" on="1"/>
        <pt x="132" y="33" on="0"/>
        <pt x="115" y="50" on="1"/>
        <pt x="107" y="36" on="0"/>
        <pt x="88" y="16" on="0"/>
        <pt x="80" y="9" on="1"/>
        <pt x="70" y="1" on="0"/>
        <pt x="60" y="-5" on="1"/>
        <pt x="35" y="-5" on="1"/>
        <pt x="35" y="185" on="1"/>
        <pt x="75" y="185" on="1"/>
        <pt x="90" y="136" on="0"/>
        <pt x="117" y="97" on="1"/>
        <pt x="129" y="80" on="0"/>
        <pt x="159" y="49" on="0"/>
        <pt x="198" y="25" on="0"/>
        <pt x="246" y="10" on="0"/>
      </contour>
    </TTGlyph>
    <TTGlyph name="Scircumflex" xMin="35" yMin="-15" xMax="570" yMax="940">
      <component glyphName=".ttfautohint" x="35" y="0" flags="0x0"/>
      <component glyphName="S" x="0" y="0" flags="0x204"/>
      <component glyphName="circumflex" x="137" y="225" flags="0x4"/>
    </TTGlyph>
    <TTGlyph name="Scommaaccent" xMin="35" yMin="-304" xMax="570" yMax="715">
      <component glyphName=".ttfautohint" x="35" y="0" flags="0x0"/>
      <component glyphName="S" x="0" y="0" flags="0x204"/>
      <component glyphName="commaaccent" x="223" y="-54" flags="0x4"/>
    </TTGlyph>
    <TTGlyph name="T" xMin="25" yMin="0" xMax="610" yMax="700">
      <contour>
        <pt x="175" y="0" on="1"/>
        <pt x="175" y="15" on="1"/>
        <pt x="235" y="30" on="1"/>
        <pt x="235" y="675" on="1"/>
        <pt x="120" y="675" on="1"/>
        <pt x="120" y="635" on="0"/>
        <pt x="99" y="578" on="0"/>
        <pt x="87" y="558" on="1"/>
        <pt x="73" y="535" on="0"/>
        <pt x="55" y="520" on="1"/>
        <pt x="25" y="520" on="1"/>
        <pt x="25" y="700" on="1"/>
        <pt x="610" y="700" on="1"/>
        <pt x="610" y="520" on="1"/>
        <pt x="580" y="520" on="1"/>
        <pt x="561" y="535" on="0"/>
        <pt x="547" y="558" on="1"/>
        <pt x="535" y="578" on="0"/>
        <pt x="515" y="635" on="0"/>
        <pt x="515" y="675" on="1"/>
        <pt x="400" y="675" on="1"/>
        <pt x="400" y="30" on="1"/>
        <pt x="460" y="15" on="1"/>
        <pt x="460" y="0" on="1"/>
      </contour>
    </TTGlyph>
    <TTGlyph name="Tcaron" xMin="25" yMin="0" xMax="610" yMax="910">
      <component glyphName=".ttfautohint" x="25" y="0" flags="0x0"/>
      <component glyphName="T" x="0" y="0" flags="0x204"/>
      <component glyphName="caron" x="152" y="50" flags="0x4"/>
    </TTGlyph>
    <TTGlyph name="Tcommaaccent" xMin="25" yMin="-304" xMax="610" yMax="700">
      <component glyphName=".ttfautohint" x="25" y="0" flags="0x0"/>
      <component glyphName="T" x="0" y="0" flags="0x204"/>
      <component glyphName="commaaccent" x="225" y="-54" flags="0x4"/>
    </TTGlyph>
    <TTGlyph name="Thorn" xMin="50" yMin="0" xMax="670" yMax="700">
      <contour>
        <pt x="320" y="610" on="1"/>
        <pt x="410" y="610" on="0"/>
        <pt x="542" y="571" on="0"/>
        <pt x="628" y="502" on="0"/>
        <pt x="670" y="406" on="0"/>
        <pt x="670" y="350" on="1"/>
        <pt x="670" y="294" on="0"/>
        <pt x="628" y="198" on="0"/>
        <pt x="542" y="129" on="0"/>
        <pt x="410" y="90" on="0"/>
        <pt x="320" y="90" on="1"/>
        <pt x="275" y="90" on="1"/>
        <pt x="275" y="30" on="1"/>
        <pt x="335" y="15" on="1"/>
        <pt x="335" y="0" on="1"/>
        <pt x="50" y="0" on="1"/>
        <pt x="50" y="15" on="1"/>
        <pt x="110" y="30" on="1"/>
        <pt x="110" y="670" on="1"/>
        <pt x="50" y="685" on="1"/>
        <pt x="50" y="700" on="1"/>
        <pt x="335" y="700" on="1"/>
        <pt x="335" y="685" on="1"/>
        <pt x="275" y="670" on="1"/>
        <pt x="275" y="610" on="1"/>
      </contour>
      <contour>
        <pt x="275" y="115" on="1"/>
        <pt x="320" y="115" on="1"/>
        <pt x="356" y="115" on="0"/>
        <pt x="419" y="145" on="0"/>
        <pt x="467" y="204" on="0"/>
        <pt x="495" y="292" on="0"/>
        <pt x="495" y="350" on="1"/>
        <pt x="495" y="408" on="0"/>
        <pt x="467" y="496" on="0"/>
        <pt x="419" y="555" on="0"/>
        <pt x="356" y="585" on="0"/>
        <pt x="320" y="585" on="1"/>
        <pt x="275" y="585" on="1"/>
      </contour>
    </TTGlyph>
    <TTGlyph name="U" xMin="35" yMin="-15" xMax="705" yMax="700">
      <contour>
        <pt x="595" y="655" on="1"/>
        <pt x="515" y="685" on="1"/>
        <pt x="515" y="700" on="1"/>
        <pt x="705" y="700" on="1"/>
        <pt x="705" y="685" on="1"/>
        <pt x="625" y="655" on="1"/>
        <pt x="625" y="250" on="1"/>
        <pt x="625" y="188" on="0"/>
        <pt x="590" y="90" on="0"/>
        <pt x="528" y="21" on="0"/>
        <pt x="444" y="-15" on="0"/>
        <pt x="395" y="-15" on="1"/>
        <pt x="245" y="-15" on="0"/>
        <pt x="95" y="126" on="0"/>
        <pt x="95" y="250" on="1"/>
        <pt x="95" y="670" on="1"/>
        <pt x="35" y="685" on="1"/>
        <pt x="35" y="700" on="1"/>
        <pt x="320" y="700" on="1"/>
        <pt x="320" y="685" on="1"/>
        <pt x="260" y="670" on="1"/>
        <pt x="260" y="250" on="1"/>
        <pt x="260" y="182" on="0"/>
        <pt x="282" y="91" on="0"/>
        <pt x="322" y="34" on="0"/>
        <pt x="379" y="10" on="0"/>
        <pt x="415" y="10" on="1"/>
        <pt x="449" y="10" on="0"/>
        <pt x="513" y="43" on="0"/>
        <pt x="564" y="105" on="0"/>
        <pt x="595" y="194" on="0"/>
        <pt x="595" y="250" on="1"/>
      </contour>
    </TTGlyph>
    <TTGlyph name="Uacute" xMin="35" yMin="-15" xMax="705" yMax="900">
      <component glyphName=".ttfautohint" x="35" y="0" flags="0x0"/>
      <component glyphName="U" x="0" y="0" flags="0x204"/>
      <component glyphName="acute" x="340" y="200" flags="0x4"/>
    </TTGlyph>
    <TTGlyph name="Ubreve" xMin="35" yMin="-15" xMax="705" yMax="900">
      <component glyphName=".ttfautohint" x="35" y="0" flags="0x0"/>
      <component glyphName="U" x="0" y="0" flags="0x204"/>
      <component glyphName="breve" x="235" y="205" flags="0x4"/>
    </TTGlyph>
    <TTGlyph name="Ucircumflex" xMin="35" yMin="-15" xMax="705" yMax="925">
      <component glyphName=".ttfautohint" x="35" y="0" flags="0x0"/>
      <component glyphName="U" x="0" y="0" flags="0x204"/>
      <component glyphName="circumflex" x="240" y="210" flags="0x4"/>
    </TTGlyph>
    <TTGlyph name="Udieresis" xMin="35" yMin="-15" xMax="705" yMax="910">
      <component glyphName=".ttfautohint" x="35" y="0" flags="0x0"/>
      <component glyphName="U" x="0" y="0" flags="0x204"/>
      <component glyphName="dieresis" x="212" y="210" flags="0x4"/>
    </TTGlyph>
    <TTGlyph name="Ugrave" xMin="35" yMin="-15" xMax="705" yMax="900">
      <component glyphName=".ttfautohint" x="35" y="0" flags="0x0"/>
      <component glyphName="U" x="0" y="0" flags="0x204"/>
      <component glyphName="grave" x="250" y="200" flags="0x4"/>
    </TTGlyph>
    <TTGlyph name="Uhungarumlaut" xMin="35" yMin="-15" xMax="705" yMax="905">
      <component glyphName=".ttfautohint" x="35" y="0" flags="0x0"/>
      <component glyphName="U" x="0" y="0" flags="0x204"/>
      <component glyphName="hungarumlaut" x="290" y="205" flags="0x4"/>
    </TTGlyph>
    <TTGlyph name="Umacron" xMin="35" yMin="-15" xMax="705" yMax="829">
      <component glyphName=".ttfautohint" x="35" y="0" flags="0x0"/>
      <component glyphName="U" x="0" y="0" flags="0x204"/>
      <component glyphName="macron" x="255" y="129" flags="0x4"/>
    </TTGlyph>
    <TTGlyph name="Uogonek" xMin="35" yMin="-190" xMax="705" yMax="700">
      <contour>
        <pt x="595" y="655" on="1"/>
        <pt x="515" y="685" on="1"/>
        <pt x="515" y="700" on="1"/>
        <pt x="705" y="700" on="1"/>
        <pt x="705" y="685" on="1"/>
        <pt x="625" y="655" on="1"/>
        <pt x="625" y="250" on="1"/>
        <pt x="625" y="149" on="0"/>
        <pt x="536" y="18" on="0"/>
        <pt x="465" y="-4" on="1"/>
        <pt x="456" y="-9" on="0"/>
        <pt x="428" y="-28" on="0"/>
        <pt x="400" y="-58" on="0"/>
        <pt x="380" y="-99" on="0"/>
        <pt x="380" y="-125" on="1"/>
        <pt x="380" y="-165" on="0"/>
        <pt x="420" y="-165" on="1"/>
        <pt x="429" y="-165" on="0"/>
        <pt x="446" y="-159" on="0"/>
        <pt x="452" y="-155" on="1"/>
        <pt x="459" y="-151" on="0"/>
        <pt x="465" y="-145" on="1"/>
        <pt x="465" y="-175" on="1"/>
        <pt x="457" y="-179" on="0"/>
        <pt x="447" y="-183" on="1"/>
        <pt x="428" y="-190" on="0"/>
        <pt x="400" y="-190" on="1"/>
        <pt x="347" y="-190" on="0"/>
        <pt x="295" y="-145" on="0"/>
        <pt x="295" y="-115" on="1"/>
        <pt x="295" y="-96" on="0"/>
        <pt x="312" y="-64" on="0"/>
        <pt x="338" y="-39" on="0"/>
        <pt x="369" y="-21" on="0"/>
        <pt x="384" y="-15" on="1"/>
        <pt x="239" y="-12" on="0"/>
        <pt x="95" y="128" on="0"/>
        <pt x="95" y="250" on="1"/>
        <pt x="95" y="670" on="1"/>
        <pt x="35" y="685" on="1"/>
        <pt x="35" y="700" on="1"/>
        <pt x="320" y="700" on="1"/>
        <pt x="320" y="685" on="1"/>
        <pt x="260" y="670" on="1"/>
        <pt x="260" y="250" on="1"/>
        <pt x="260" y="182" on="0"/>
        <pt x="282" y="91" on="0"/>
        <pt x="322" y="34" on="0"/>
        <pt x="379" y="10" on="0"/>
        <pt x="415" y="10" on="1"/>
        <pt x="449" y="10" on="0"/>
        <pt x="513" y="43" on="0"/>
        <pt x="564" y="105" on="0"/>
        <pt x="595" y="194" on="0"/>
        <pt x="595" y="250" on="1"/>
      </contour>
    </TTGlyph>
    <TTGlyph name="Uring" xMin="35" yMin="-15" xMax="705" yMax="930">
      <component glyphName=".ttfautohint" x="35" y="0" flags="0x0"/>
      <component glyphName="U" x="0" y="0" flags="0x204"/>
      <component glyphName="ring" x="280" y="230" flags="0x4"/>
    </TTGlyph>
    <TTGlyph name="Utilde" xMin="35" yMin="-15" xMax="705" yMax="885">
      <component glyphName=".ttfautohint" x="35" y="0" flags="0x0"/>
      <component glyphName="U" x="0" y="0" flags="0x204"/>
      <component glyphName="tilde" x="247" y="185" flags="0x4"/>
    </TTGlyph>
    <TTGlyph name="V" xMin="-20" yMin="-10" xMax="685" yMax="700">
      <contour>
        <pt x="575" y="655" on="1"/>
        <pt x="500" y="685" on="1"/>
        <pt x="500" y="700" on="1"/>
        <pt x="685" y="700" on="1"/>
        <pt x="685" y="685" on="1"/>
        <pt x="605" y="655" on="1"/>
        <pt x="360" y="-10" on="1"/>
        <pt x="330" y="-10" on="1"/>
        <pt x="30" y="670" on="1"/>
        <pt x="-20" y="685" on="1"/>
        <pt x="-20" y="700" on="1"/>
        <pt x="100" y="700" on="1"/>
        <pt x="156" y="700" on="0"/>
        <pt x="220" y="649" on="0"/>
        <pt x="235" y="615" on="1"/>
        <pt x="412" y="212" on="1"/>
      </contour>
    </TTGlyph>
    <TTGlyph name="W" xMin="-20" yMin="-10" xMax="1005" yMax="700">
      <contour>
        <pt x="35" y="675" on="1"/>
        <pt x="-20" y="685" on="1"/>
        <pt x="-20" y="700" on="1"/>
        <pt x="100" y="700" on="1"/>
        <pt x="157" y="700" on="0"/>
        <pt x="222" y="649" on="0"/>
        <pt x="235" y="615" on="1"/>
        <pt x="386" y="230" on="1"/>
        <pt x="474" y="488" on="1"/>
        <pt x="400" y="675" on="1"/>
        <pt x="345" y="685" on="1"/>
        <pt x="345" y="700" on="1"/>
        <pt x="465" y="700" on="1"/>
        <pt x="522" y="700" on="0"/>
        <pt x="586" y="649" on="0"/>
        <pt x="600" y="615" on="1"/>
        <pt x="751" y="230" on="1"/>
        <pt x="895" y="655" on="1"/>
        <pt x="820" y="685" on="1"/>
        <pt x="820" y="700" on="1"/>
        <pt x="1005" y="700" on="1"/>
        <pt x="1005" y="685" on="1"/>
        <pt x="925" y="655" on="1"/>
        <pt x="700" y="-10" on="1"/>
        <pt x="670" y="-10" on="1"/>
        <pt x="490" y="447" on="1"/>
        <pt x="335" y="-10" on="1"/>
        <pt x="305" y="-10" on="1"/>
      </contour>
    </TTGlyph>
    <TTGlyph name="Wacute" xMin="-20" yMin="-10" xMax="1005" yMax="900">
      <component glyphName=".ttfautohint" x="0" y="0" flags="0x0"/>
      <component glyphName="W" x="0" y="0" flags="0x204"/>
      <component glyphName="acute" x="432" y="200" flags="0x4"/>
    </TTGlyph>
    <TTGlyph name="Wcircumflex" xMin="-20" yMin="-10" xMax="1005" yMax="935">
      <component glyphName=".ttfautohint" x="0" y="0" flags="0x0"/>
      <component glyphName="W" x="0" y="0" flags="0x204"/>
      <component glyphName="circumflex" x="332" y="220" flags="0x4"/>
    </TTGlyph>
    <TTGlyph name="Wdieresis" xMin="-20" yMin="-10" xMax="1005" yMax="910">
      <component glyphName=".ttfautohint" x="0" y="0" flags="0x0"/>
      <component glyphName="W" x="0" y="0" flags="0x204"/>
      <component glyphName="dieresis" x="315" y="210" flags="0x4"/>
    </TTGlyph>
    <TTGlyph name="Wgrave" xMin="-20" yMin="-10" xMax="1005" yMax="900">
      <component glyphName=".ttfautohint" x="0" y="0" flags="0x0"/>
      <component glyphName="W" x="0" y="0" flags="0x204"/>
      <component glyphName="grave" x="312" y="200" flags="0x4"/>
    </TTGlyph>
    <TTGlyph name="X" xMin="-5" yMin="0" xMax="670" yMax="700">
      <contour>
        <pt x="265" y="296" on="1"/>
        <pt x="45" y="670" on="1"/>
        <pt x="-5" y="685" on="1"/>
        <pt x="-5" y="700" on="1"/>
        <pt x="140" y="700" on="1"/>
        <pt x="193" y="700" on="0"/>
        <pt x="252" y="653" on="0"/>
        <pt x="275" y="615" on="1"/>
        <pt x="371" y="451" on="1"/>
        <pt x="510" y="655" on="1"/>
        <pt x="435" y="685" on="1"/>
        <pt x="435" y="700" on="1"/>
        <pt x="625" y="700" on="1"/>
        <pt x="625" y="685" on="1"/>
        <pt x="545" y="655" on="1"/>
        <pt x="388" y="424" on="1"/>
        <pt x="620" y="30" on="1"/>
        <pt x="670" y="15" on="1"/>
        <pt x="670" y="0" on="1"/>
        <pt x="525" y="0" on="1"/>
        <pt x="472" y="0" on="0"/>
        <pt x="413" y="47" on="0"/>
        <pt x="390" y="85" on="1"/>
        <pt x="282" y="268" on="1"/>
        <pt x="130" y="45" on="1"/>
        <pt x="205" y="15" on="1"/>
        <pt x="205" y="0" on="1"/>
        <pt x="15" y="0" on="1"/>
        <pt x="15" y="15" on="1"/>
        <pt x="95" y="45" on="1"/>
      </contour>
    </TTGlyph>
    <TTGlyph name="Y" xMin="0" yMin="0" xMax="675" yMax="700">
      <contour>
        <pt x="50" y="670" on="1"/>
        <pt x="0" y="685" on="1"/>
        <pt x="0" y="700" on="1"/>
        <pt x="125" y="700" on="1"/>
        <pt x="153" y="700" on="0"/>
        <pt x="195" y="687" on="0"/>
        <pt x="227" y="665" on="0"/>
        <pt x="251" y="634" on="0"/>
        <pt x="260" y="615" on="1"/>
        <pt x="408" y="320" on="1"/>
        <pt x="560" y="655" on="1"/>
        <pt x="485" y="685" on="1"/>
        <pt x="485" y="700" on="1"/>
        <pt x="675" y="700" on="1"/>
        <pt x="675" y="685" on="1"/>
        <pt x="595" y="655" on="1"/>
        <pt x="420" y="270" on="1"/>
        <pt x="420" y="30" on="1"/>
        <pt x="480" y="15" on="1"/>
        <pt x="480" y="0" on="1"/>
        <pt x="195" y="0" on="1"/>
        <pt x="195" y="15" on="1"/>
        <pt x="255" y="30" on="1"/>
        <pt x="255" y="260" on="1"/>
      </contour>
    </TTGlyph>
    <TTGlyph name="Yacute" xMin="0" yMin="0" xMax="675" yMax="900">
      <component glyphName=".ttfautohint" x="0" y="0" flags="0x0"/>
      <component glyphName="Y" x="0" y="0" flags="0x204"/>
      <component glyphName="acute" x="287" y="200" flags="0x4"/>
    </TTGlyph>
    <TTGlyph name="Ycircumflex" xMin="0" yMin="0" xMax="675" yMax="915">
      <component glyphName=".ttfautohint" x="0" y="0" flags="0x0"/>
      <component glyphName="Y" x="0" y="0" flags="0x204"/>
      <component glyphName="circumflex" x="187" y="200" flags="0x4"/>
    </TTGlyph>
    <TTGlyph name="Ydieresis" xMin="0" yMin="0" xMax="675" yMax="895">
      <component glyphName=".ttfautohint" x="0" y="0" flags="0x0"/>
      <component glyphName="Y" x="0" y="0" flags="0x204"/>
      <component glyphName="dieresis" x="170" y="195" flags="0x4"/>
    </TTGlyph>
    <TTGlyph name="Ygrave" xMin="0" yMin="0" xMax="675" yMax="900">
      <component glyphName=".ttfautohint" x="0" y="0" flags="0x0"/>
      <component glyphName="Y" x="0" y="0" flags="0x204"/>
      <component glyphName="grave" x="197" y="200" flags="0x4"/>
    </TTGlyph>
    <TTGlyph name="Z" xMin="40" yMin="0" xMax="595" yMax="700">
      <contour>
        <pt x="495" y="25" on="1"/>
        <pt x="495" y="64" on="0"/>
        <pt x="515" y="122" on="0"/>
        <pt x="527" y="142" on="1"/>
        <pt x="541" y="165" on="0"/>
        <pt x="560" y="180" on="1"/>
        <pt x="590" y="180" on="1"/>
        <pt x="590" y="0" on="1"/>
        <pt x="40" y="0" on="1"/>
        <pt x="40" y="25" on="1"/>
        <pt x="411" y="675" on="1"/>
        <pt x="150" y="675" on="1"/>
        <pt x="150" y="635" on="0"/>
        <pt x="129" y="578" on="0"/>
        <pt x="117" y="558" on="1"/>
        <pt x="103" y="535" on="0"/>
        <pt x="85" y="520" on="1"/>
        <pt x="55" y="520" on="1"/>
        <pt x="55" y="700" on="1"/>
        <pt x="595" y="700" on="1"/>
        <pt x="595" y="675" on="1"/>
        <pt x="225" y="25" on="1"/>
      </contour>
    </TTGlyph>
    <TTGlyph name="Zacute" xMin="40" yMin="0" xMax="595" yMax="900">
      <component glyphName=".ttfautohint" x="40" y="0" flags="0x0"/>
      <component glyphName="Z" x="0" y="0" flags="0x204"/>
      <component glyphName="acute" x="247" y="200" flags="0x4"/>
    </TTGlyph>
    <TTGlyph name="Zcaron" xMin="40" yMin="0" xMax="595" yMax="915">
      <component glyphName=".ttfautohint" x="40" y="0" flags="0x0"/>
      <component glyphName="Z" x="0" y="0" flags="0x204"/>
      <component glyphName="caron" x="147" y="55" flags="0x4"/>
    </TTGlyph>
    <TTGlyph name="Zdotaccent" xMin="40" yMin="0" xMax="595" yMax="910">
      <component glyphName=".ttfautohint" x="40" y="0" flags="0x0"/>
      <component glyphName="Z" x="0" y="0" flags="0x204"/>
      <component glyphName="dotaccent" x="232" y="210" flags="0x4"/>
    </TTGlyph>
    <TTGlyph name="a" xMin="50" yMin="-15" xMax="585" yMax="515">
      <contour>
        <pt x="235" y="235" on="1"/>
        <pt x="229" y="222" on="0"/>
        <pt x="225" y="205" on="1"/>
        <pt x="221" y="191" on="0"/>
        <pt x="215" y="153" on="0"/>
        <pt x="215" y="130" on="1"/>
        <pt x="215" y="70" on="0"/>
        <pt x="252" y="20" on="0"/>
        <pt x="275" y="20" on="1"/>
        <pt x="298" y="20" on="0"/>
        <pt x="331" y="45" on="0"/>
        <pt x="342" y="60" on="1"/>
        <pt x="355" y="78" on="0"/>
        <pt x="365" y="100" on="1"/>
        <pt x="365" y="245" on="1"/>
        <pt x="342" y="245" on="0"/>
        <pt x="296" y="242" on="0"/>
        <pt x="277" y="240" on="1"/>
        <pt x="255" y="237" on="0"/>
      </contour>
      <contour>
        <pt x="275" y="515" on="1"/>
        <pt x="335" y="515" on="0"/>
        <pt x="428" y="483" on="0"/>
        <pt x="492" y="426" on="0"/>
        <pt x="525" y="347" on="0"/>
        <pt x="525" y="300" on="1"/>
        <pt x="525" y="30" on="1"/>
        <pt x="585" y="15" on="1"/>
        <pt x="585" y="0" on="1"/>
        <pt x="495" y="0" on="1"/>
        <pt x="459" y="0" on="0"/>
        <pt x="415" y="23" on="0"/>
        <pt x="402" y="37" on="1"/>
        <pt x="387" y="54" on="0"/>
        <pt x="380" y="75" on="1"/>
        <pt x="367" y="49" on="0"/>
        <pt x="347" y="30" on="1"/>
        <pt x="330" y="13" on="0"/>
        <pt x="274" y="-15" on="0"/>
        <pt x="235" y="-15" on="1"/>
        <pt x="188" y="-15" on="0"/>
        <pt x="119" y="6" on="0"/>
        <pt x="73" y="43" on="0"/>
        <pt x="50" y="92" on="0"/>
        <pt x="50" y="120" on="1"/>
        <pt x="50" y="143" on="0"/>
        <pt x="60" y="182" on="0"/>
        <pt x="67" y="197" on="1"/>
        <pt x="75" y="215" on="0"/>
        <pt x="85" y="230" on="1"/>
        <pt x="127" y="240" on="0"/>
        <pt x="174" y="248" on="1"/>
        <pt x="214" y="255" on="0"/>
        <pt x="314" y="268" on="0"/>
        <pt x="365" y="270" on="1"/>
        <pt x="365" y="300" on="1"/>
        <pt x="365" y="358" on="0"/>
        <pt x="350" y="434" on="0"/>
        <pt x="322" y="478" on="0"/>
        <pt x="281" y="495" on="0"/>
        <pt x="255" y="495" on="1"/>
        <pt x="244" y="495" on="0"/>
        <pt x="226" y="492" on="0"/>
        <pt x="219" y="490" on="1"/>
        <pt x="211" y="487" on="0"/>
        <pt x="205" y="485" on="1"/>
        <pt x="205" y="335" on="1"/>
        <pt x="198" y="333" on="0"/>
        <pt x="192" y="332" on="1"/>
        <pt x="186" y="331" on="0"/>
        <pt x="173" y="330" on="0"/>
        <pt x="165" y="330" on="1"/>
        <pt x="131" y="330" on="0"/>
        <pt x="90" y="371" on="0"/>
        <pt x="90" y="405" on="1"/>
        <pt x="90" y="426" on="0"/>
        <pt x="111" y="465" on="0"/>
        <pt x="156" y="496" on="0"/>
        <pt x="226" y="515" on="0"/>
      </contour>
    </TTGlyph>
    <TTGlyph name="aacute" xMin="50" yMin="-15" xMax="585" yMax="710">
      <component glyphName=".ttfautohint" x="50" y="0" flags="0x0"/>
      <component glyphName="a" x="0" y="0" flags="0x204"/>
      <component glyphName="acute" x="225" y="10" flags="0x4"/>
    </TTGlyph>
    <TTGlyph name="abreve" xMin="50" yMin="-15" xMax="585" yMax="720">
      <component glyphName=".ttfautohint" x="50" y="0" flags="0x0"/>
      <component glyphName="a" x="0" y="0" flags="0x204"/>
      <component glyphName="breve" x="135" y="25" flags="0x4"/>
    </TTGlyph>
    <TTGlyph name="acircumflex" xMin="50" yMin="-15" xMax="585" yMax="730">
      <component glyphName=".ttfautohint" x="50" y="0" flags="0x0"/>
      <component glyphName="a" x="0" y="0" flags="0x204"/>
      <component glyphName="circumflex" x="135" y="15" flags="0x4"/>
    </TTGlyph>
    <TTGlyph name="acute" xMin="30" yMin="550" xMax="200" yMax="700">
      <contour>
        <pt x="200" y="700" on="1"/>
        <pt x="65" y="550" on="1"/>
        <pt x="30" y="550" on="1"/>
        <pt x="70" y="700" on="1"/>
      </contour>
    </TTGlyph>
    <TTGlyph name="adieresis" xMin="50" yMin="-15" xMax="585" yMax="715">
      <component glyphName=".ttfautohint" x="50" y="0" flags="0x0"/>
      <component glyphName="a" x="0" y="0" flags="0x204"/>
      <component glyphName="dieresis" x="117" y="15" flags="0x4"/>
    </TTGlyph>
    <TTGlyph name="ae" xMin="50" yMin="-15" xMax="845" yMax="515">
      <contour>
        <pt x="630" y="-15" on="1"/>
        <pt x="579" y="-15" on="0"/>
        <pt x="510" y="14" on="0"/>
        <pt x="489" y="32" on="1"/>
        <pt x="464" y="53" on="0"/>
        <pt x="450" y="80" on="1"/>
        <pt x="429" y="53" on="0"/>
        <pt x="401" y="32" on="1"/>
        <pt x="376" y="14" on="0"/>
        <pt x="304" y="-15" on="0"/>
        <pt x="255" y="-15" on="1"/>
        <pt x="201" y="-15" on="0"/>
        <pt x="123" y="6" on="0"/>
        <pt x="73" y="43" on="0"/>
        <pt x="50" y="92" on="0"/>
        <pt x="50" y="120" on="1"/>
        <pt x="50" y="143" on="0"/>
        <pt x="60" y="178" on="0"/>
        <pt x="67" y="192" on="1"/>
        <pt x="75" y="207" on="0"/>
        <pt x="85" y="220" on="1"/>
        <pt x="127" y="230" on="0"/>
        <pt x="174" y="238" on="1"/>
        <pt x="214" y="245" on="0"/>
        <pt x="314" y="258" on="0"/>
        <pt x="365" y="260" on="1"/>
        <pt x="365" y="300" on="1"/>
        <pt x="365" y="358" on="0"/>
        <pt x="350" y="434" on="0"/>
        <pt x="322" y="478" on="0"/>
        <pt x="281" y="495" on="0"/>
        <pt x="255" y="495" on="1"/>
        <pt x="244" y="495" on="0"/>
        <pt x="226" y="492" on="0"/>
        <pt x="219" y="490" on="1"/>
        <pt x="211" y="487" on="0"/>
        <pt x="205" y="485" on="1"/>
        <pt x="205" y="335" on="1"/>
        <pt x="198" y="333" on="0"/>
        <pt x="192" y="332" on="1"/>
        <pt x="186" y="331" on="0"/>
        <pt x="173" y="330" on="0"/>
        <pt x="165" y="330" on="1"/>
        <pt x="131" y="330" on="0"/>
        <pt x="90" y="371" on="0"/>
        <pt x="90" y="405" on="1"/>
        <pt x="90" y="426" on="0"/>
        <pt x="111" y="465" on="0"/>
        <pt x="156" y="496" on="0"/>
        <pt x="226" y="515" on="0"/>
        <pt x="275" y="515" on="1"/>
        <pt x="324" y="515" on="0"/>
        <pt x="390" y="487" on="0"/>
        <pt x="411" y="470" on="1"/>
        <pt x="435" y="450" on="0"/>
        <pt x="450" y="425" on="1"/>
        <pt x="464" y="450" on="0"/>
        <pt x="487" y="470" on="1"/>
        <pt x="507" y="487" on="0"/>
        <pt x="570" y="515" on="0"/>
        <pt x="615" y="515" on="1"/>
        <pt x="667" y="515" on="0"/>
        <pt x="752" y="483" on="0"/>
        <pt x="812" y="429" on="0"/>
        <pt x="845" y="356" on="0"/>
        <pt x="845" y="315" on="1"/>
        <pt x="845" y="304" on="0"/>
        <pt x="842" y="286" on="0"/>
        <pt x="840" y="279" on="1"/>
        <pt x="837" y="271" on="0"/>
        <pt x="835" y="265" on="1"/>
        <pt x="791" y="256" on="0"/>
        <pt x="742" y="250" on="1"/>
        <pt x="700" y="244" on="0"/>
        <pt x="590" y="235" on="0"/>
        <pt x="530" y="235" on="1"/>
        <pt x="530" y="213" on="1"/>
        <pt x="531" y="154" on="0"/>
        <pt x="549" y="76" on="0"/>
        <pt x="581" y="30" on="0"/>
        <pt x="624" y="10" on="0"/>
        <pt x="650" y="10" on="1"/>
        <pt x="680" y="10" on="0"/>
        <pt x="733" y="32" on="0"/>
        <pt x="772" y="69" on="0"/>
        <pt x="795" y="116" on="0"/>
        <pt x="795" y="140" on="1"/>
        <pt x="820" y="140" on="1"/>
        <pt x="820" y="110" on="0"/>
        <pt x="793" y="54" on="0"/>
        <pt x="743" y="11" on="0"/>
        <pt x="673" y="-15" on="0"/>
      </contour>
      <contour>
        <pt x="530" y="260" on="1"/>
        <pt x="564" y="260" on="0"/>
        <pt x="616" y="263" on="0"/>
        <pt x="634" y="265" on="1"/>
        <pt x="655" y="267" on="0"/>
        <pt x="670" y="270" on="1"/>
        <pt x="672" y="280" on="0"/>
        <pt x="675" y="291" on="1"/>
        <pt x="677" y="300" on="0"/>
        <pt x="680" y="324" on="0"/>
        <pt x="680" y="335" on="1"/>
        <pt x="680" y="380" on="0"/>
        <pt x="666" y="441" on="0"/>
        <pt x="645" y="479" on="0"/>
        <pt x="618" y="495" on="0"/>
        <pt x="605" y="495" on="1"/>
        <pt x="592" y="495" on="0"/>
        <pt x="566" y="477" on="0"/>
        <pt x="545" y="427" on="0"/>
        <pt x="531" y="337" on="0"/>
        <pt x="530" y="265" on="1"/>
      </contour>
      <contour>
        <pt x="235" y="225" on="1"/>
        <pt x="229" y="212" on="0"/>
        <pt x="225" y="195" on="1"/>
        <pt x="221" y="181" on="0"/>
        <pt x="215" y="143" on="0"/>
        <pt x="215" y="120" on="1"/>
        <pt x="215" y="60" on="0"/>
        <pt x="252" y="10" on="0"/>
        <pt x="275" y="10" on="1"/>
        <pt x="301" y="10" on="0"/>
        <pt x="335" y="39" on="0"/>
        <pt x="346" y="57" on="1"/>
        <pt x="358" y="78" on="0"/>
        <pt x="365" y="105" on="1"/>
        <pt x="365" y="235" on="1"/>
        <pt x="342" y="235" on="0"/>
        <pt x="296" y="232" on="0"/>
        <pt x="277" y="230" on="1"/>
        <pt x="255" y="227" on="0"/>
      </contour>
    </TTGlyph>
    <TTGlyph name="afii10017" xMin="-20" yMin="0" xMax="700" yMax="710">
      <contour>
        <pt x="165" y="15" on="1"/>
        <pt x="165" y="0" on="1"/>
        <pt x="-20" y="0" on="1"/>
        <pt x="-20" y="15" on="1"/>
        <pt x="60" y="45" on="1"/>
        <pt x="335" y="710" on="1"/>
        <pt x="365" y="710" on="1"/>
        <pt x="650" y="30" on="1"/>
        <pt x="700" y="15" on="1"/>
        <pt x="700" y="0" on="1"/>
        <pt x="580" y="0" on="1"/>
        <pt x="524" y="0" on="0"/>
        <pt x="460" y="51" on="0"/>
        <pt x="446" y="85" on="1"/>
        <pt x="395" y="205" on="1"/>
        <pt x="156" y="205" on="1"/>
        <pt x="90" y="45" on="1"/>
      </contour>
      <contour>
        <pt x="166" y="230" on="1"/>
        <pt x="385" y="230" on="1"/>
        <pt x="275" y="493" on="1"/>
      </contour>
    </TTGlyph>
    <TTGlyph name="afii10018" xMin="50" yMin="0" xMax="640" yMax="700">
      <contour>
        <pt x="330" y="410" on="1"/>
        <pt x="416" y="410" on="0"/>
        <pt x="535" y="381" on="0"/>
        <pt x="608" y="328" on="0"/>
        <pt x="640" y="252" on="0"/>
        <pt x="640" y="205" on="1"/>
        <pt x="640" y="158" on="0"/>
        <pt x="608" y="82" on="0"/>
        <pt x="535" y="29" on="0"/>
        <pt x="416" y="0" on="0"/>
        <pt x="330" y="0" on="1"/>
        <pt x="50" y="0" on="1"/>
        <pt x="50" y="15" on="1"/>
        <pt x="110" y="30" on="1"/>
        <pt x="110" y="670" on="1"/>
        <pt x="50" y="685" on="1"/>
        <pt x="50" y="700" on="1"/>
        <pt x="580" y="700" on="1"/>
        <pt x="580" y="520" on="1"/>
        <pt x="550" y="520" on="1"/>
        <pt x="531" y="535" on="0"/>
        <pt x="517" y="558" on="1"/>
        <pt x="505" y="578" on="0"/>
        <pt x="485" y="635" on="0"/>
        <pt x="485" y="675" on="1"/>
        <pt x="275" y="675" on="1"/>
        <pt x="275" y="410" on="1"/>
      </contour>
      <contour>
        <pt x="275" y="385" on="1"/>
        <pt x="275" y="25" on="1"/>
        <pt x="330" y="25" on="1"/>
        <pt x="390" y="25" on="0"/>
        <pt x="470" y="115" on="0"/>
        <pt x="470" y="205" on="1"/>
        <pt x="470" y="295" on="0"/>
        <pt x="390" y="385" on="0"/>
        <pt x="330" y="385" on="1"/>
      </contour>
    </TTGlyph>
    <TTGlyph name="afii10019" xMin="50" yMin="0" xMax="650" yMax="700">
      <contour>
        <pt x="395" y="365" on="1"/>
        <pt x="466" y="362" on="0"/>
        <pt x="522" y="343" on="1"/>
        <pt x="546" y="335" on="0"/>
        <pt x="592" y="309" on="0"/>
        <pt x="628" y="272" on="0"/>
        <pt x="650" y="223" on="0"/>
        <pt x="650" y="190" on="1"/>
        <pt x="650" y="149" on="0"/>
        <pt x="618" y="79" on="0"/>
        <pt x="545" y="28" on="0"/>
        <pt x="426" y="0" on="0"/>
        <pt x="340" y="0" on="1"/>
        <pt x="50" y="0" on="1"/>
        <pt x="50" y="15" on="1"/>
        <pt x="110" y="30" on="1"/>
        <pt x="110" y="670" on="1"/>
        <pt x="50" y="685" on="1"/>
        <pt x="50" y="700" on="1"/>
        <pt x="320" y="700" on="1"/>
        <pt x="401" y="700" on="0"/>
        <pt x="513" y="672" on="0"/>
        <pt x="583" y="624" on="0"/>
        <pt x="615" y="561" on="0"/>
        <pt x="615" y="525" on="1"/>
        <pt x="615" y="496" on="0"/>
        <pt x="596" y="451" on="0"/>
        <pt x="565" y="418" on="0"/>
        <pt x="526" y="396" on="0"/>
        <pt x="505" y="389" on="1"/>
        <pt x="457" y="372" on="0"/>
        <pt x="395" y="370" on="1"/>
      </contour>
      <contour>
        <pt x="275" y="355" on="1"/>
        <pt x="275" y="25" on="1"/>
        <pt x="340" y="25" on="1"/>
        <pt x="400" y="25" on="0"/>
        <pt x="480" y="111" on="0"/>
        <pt x="480" y="190" on="1"/>
        <pt x="480" y="269" on="0"/>
        <pt x="400" y="355" on="0"/>
        <pt x="340" y="355" on="1"/>
      </contour>
      <contour>
        <pt x="275" y="380" on="1"/>
        <pt x="320" y="380" on="1"/>
        <pt x="344" y="380" on="0"/>
        <pt x="390" y="401" on="0"/>
        <pt x="424" y="440" on="0"/>
        <pt x="445" y="493" on="0"/>
        <pt x="445" y="525" on="1"/>
        <pt x="445" y="559" on="0"/>
        <pt x="424" y="614" on="0"/>
        <pt x="390" y="653" on="0"/>
        <pt x="344" y="675" on="0"/>
        <pt x="320" y="675" on="1"/>
        <pt x="275" y="675" on="1"/>
      </contour>
    </TTGlyph>
    <TTGlyph name="afii10020" xMin="50" yMin="0" xMax="585" yMax="700">
      <contour>
        <pt x="50" y="0" on="1"/>
        <pt x="50" y="15" on="1"/>
        <pt x="110" y="30" on="1"/>
        <pt x="110" y="670" on="1"/>
        <pt x="50" y="685" on="1"/>
        <pt x="50" y="700" on="1"/>
        <pt x="585" y="700" on="1"/>
        <pt x="585" y="520" on="1"/>
        <pt x="555" y="520" on="1"/>
        <pt x="536" y="535" on="0"/>
        <pt x="522" y="558" on="1"/>
        <pt x="510" y="578" on="0"/>
        <pt x="490" y="635" on="0"/>
        <pt x="490" y="675" on="1"/>
        <pt x="275" y="675" on="1"/>
        <pt x="275" y="30" on="1"/>
        <pt x="335" y="15" on="1"/>
        <pt x="335" y="0" on="1"/>
      </contour>
    </TTGlyph>
    <TTGlyph name="afii10021" xMin="-10" yMin="-170" xMax="685" yMax="700">
      <contour>
        <pt x="205" y="250" on="1"/>
        <pt x="202" y="190" on="0"/>
        <pt x="170" y="104" on="0"/>
        <pt x="152" y="77" on="1"/>
        <pt x="131" y="45" on="0"/>
        <pt x="105" y="25" on="1"/>
        <pt x="425" y="25" on="1"/>
        <pt x="425" y="675" on="1"/>
        <pt x="225" y="675" on="1"/>
      </contour>
      <contour>
        <pt x="70" y="25" on="1"/>
        <pt x="97" y="45" on="0"/>
        <pt x="119" y="77" on="1"/>
        <pt x="138" y="104" on="0"/>
        <pt x="172" y="190" on="0"/>
        <pt x="175" y="250" on="1"/>
        <pt x="195" y="665" on="1"/>
        <pt x="125" y="685" on="1"/>
        <pt x="125" y="700" on="1"/>
        <pt x="650" y="700" on="1"/>
        <pt x="650" y="685" on="1"/>
        <pt x="590" y="670" on="1"/>
        <pt x="590" y="25" on="1"/>
        <pt x="685" y="25" on="1"/>
        <pt x="685" y="-170" on="1"/>
        <pt x="655" y="-170" on="1"/>
        <pt x="630" y="-152" on="0"/>
        <pt x="612" y="-126" on="1"/>
        <pt x="596" y="-104" on="0"/>
        <pt x="570" y="-42" on="0"/>
        <pt x="570" y="0" on="1"/>
        <pt x="105" y="0" on="1"/>
        <pt x="105" y="-42" on="0"/>
        <pt x="78" y="-104" on="0"/>
        <pt x="62" y="-126" on="1"/>
        <pt x="44" y="-152" on="0"/>
        <pt x="20" y="-170" on="1"/>
        <pt x="-10" y="-170" on="1"/>
        <pt x="-10" y="25" on="1"/>
      </contour>
    </TTGlyph>
    <TTGlyph name="afii10022" xMin="50" yMin="0" xMax="605" yMax="700">
      <contour>
        <pt x="390" y="360" on="1"/>
        <pt x="394" y="380" on="0"/>
        <pt x="408" y="417" on="0"/>
        <pt x="416" y="431" on="1"/>
        <pt x="425" y="447" on="0"/>
        <pt x="435" y="460" on="1"/>
        <pt x="465" y="460" on="1"/>
        <pt x="465" y="235" on="1"/>
        <pt x="435" y="235" on="1"/>
        <pt x="425" y="248" on="0"/>
        <pt x="416" y="264" on="1"/>
        <pt x="408" y="278" on="0"/>
        <pt x="394" y="314" on="0"/>
        <pt x="390" y="335" on="1"/>
        <pt x="275" y="335" on="1"/>
        <pt x="275" y="25" on="1"/>
        <pt x="510" y="25" on="1"/>
        <pt x="510" y="64" on="0"/>
        <pt x="530" y="122" on="0"/>
        <pt x="542" y="142" on="1"/>
        <pt x="556" y="165" on="0"/>
        <pt x="575" y="180" on="1"/>
        <pt x="605" y="180" on="1"/>
        <pt x="605" y="0" on="1"/>
        <pt x="50" y="0" on="1"/>
        <pt x="50" y="15" on="1"/>
        <pt x="110" y="30" on="1"/>
        <pt x="110" y="670" on="1"/>
        <pt x="50" y="685" on="1"/>
        <pt x="50" y="700" on="1"/>
        <pt x="585" y="700" on="1"/>
        <pt x="585" y="520" on="1"/>
        <pt x="555" y="520" on="1"/>
        <pt x="536" y="535" on="0"/>
        <pt x="522" y="558" on="1"/>
        <pt x="510" y="578" on="0"/>
        <pt x="490" y="635" on="0"/>
        <pt x="490" y="675" on="1"/>
        <pt x="275" y="675" on="1"/>
        <pt x="275" y="360" on="1"/>
      </contour>
    </TTGlyph>
    <TTGlyph name="afii10023" xMin="50" yMin="0" xMax="605" yMax="910">
      <contour>
        <pt x="180" y="840" on="1"/>
        <pt x="180" y="870" on="0"/>
        <pt x="220" y="910" on="0"/>
        <pt x="250" y="910" on="1"/>
        <pt x="280" y="910" on="0"/>
        <pt x="320" y="870" on="0"/>
        <pt x="320" y="840" on="1"/>
        <pt x="320" y="810" on="0"/>
        <pt x="280" y="770" on="0"/>
        <pt x="250" y="770" on="1"/>
        <pt x="220" y="770" on="0"/>
        <pt x="180" y="810" on="0"/>
      </contour>
      <contour>
        <pt x="365" y="840" on="1"/>
        <pt x="365" y="870" on="0"/>
        <pt x="405" y="910" on="0"/>
        <pt x="435" y="910" on="1"/>
        <pt x="465" y="910" on="0"/>
        <pt x="505" y="870" on="0"/>
        <pt x="505" y="840" on="1"/>
        <pt x="505" y="810" on="0"/>
        <pt x="465" y="770" on="0"/>
        <pt x="435" y="770" on="1"/>
        <pt x="405" y="770" on="0"/>
        <pt x="365" y="810" on="0"/>
      </contour>
      <contour>
        <pt x="390" y="360" on="1"/>
        <pt x="394" y="380" on="0"/>
        <pt x="408" y="417" on="0"/>
        <pt x="416" y="431" on="1"/>
        <pt x="425" y="447" on="0"/>
        <pt x="435" y="460" on="1"/>
        <pt x="465" y="460" on="1"/>
        <pt x="465" y="235" on="1"/>
        <pt x="435" y="235" on="1"/>
        <pt x="425" y="248" on="0"/>
        <pt x="416" y="264" on="1"/>
        <pt x="408" y="278" on="0"/>
        <pt x="394" y="314" on="0"/>
        <pt x="390" y="335" on="1"/>
        <pt x="275" y="335" on="1"/>
        <pt x="275" y="25" on="1"/>
        <pt x="510" y="25" on="1"/>
        <pt x="510" y="64" on="0"/>
        <pt x="530" y="122" on="0"/>
        <pt x="542" y="142" on="1"/>
        <pt x="556" y="165" on="0"/>
        <pt x="575" y="180" on="1"/>
        <pt x="605" y="180" on="1"/>
        <pt x="605" y="0" on="1"/>
        <pt x="50" y="0" on="1"/>
        <pt x="50" y="15" on="1"/>
        <pt x="110" y="30" on="1"/>
        <pt x="110" y="670" on="1"/>
        <pt x="50" y="685" on="1"/>
        <pt x="50" y="700" on="1"/>
        <pt x="585" y="700" on="1"/>
        <pt x="585" y="520" on="1"/>
        <pt x="555" y="520" on="1"/>
        <pt x="536" y="535" on="0"/>
        <pt x="522" y="558" on="1"/>
        <pt x="510" y="578" on="0"/>
        <pt x="490" y="635" on="0"/>
        <pt x="490" y="675" on="1"/>
        <pt x="275" y="675" on="1"/>
        <pt x="275" y="360" on="1"/>
      </contour>
    </TTGlyph>
    <TTGlyph name="afii10024" xMin="5" yMin="0" xMax="1020" yMax="710">
      <contour>
        <pt x="319" y="380" on="1"/>
        <pt x="318" y="380" on="0"/>
        <pt x="304" y="390" on="0"/>
        <pt x="284" y="412" on="0"/>
        <pt x="263" y="451" on="0"/>
        <pt x="255" y="480" on="1"/>
        <pt x="220" y="610" on="1"/>
        <pt x="212" y="640" on="0"/>
        <pt x="181" y="676" on="0"/>
        <pt x="165" y="680" on="1"/>
        <pt x="165" y="540" on="1"/>
        <pt x="158" y="538" on="0"/>
        <pt x="152" y="537" on="1"/>
        <pt x="146" y="536" on="0"/>
        <pt x="133" y="535" on="0"/>
        <pt x="125" y="535" on="1"/>
        <pt x="91" y="535" on="0"/>
        <pt x="45" y="582" on="0"/>
        <pt x="45" y="620" on="1"/>
        <pt x="45" y="658" on="0"/>
        <pt x="100" y="710" on="0"/>
        <pt x="145" y="710" on="1"/>
        <pt x="183" y="710" on="0"/>
        <pt x="238" y="655" on="0"/>
        <pt x="250" y="610" on="1"/>
        <pt x="285" y="480" on="1"/>
        <pt x="297" y="435" on="0"/>
        <pt x="347" y="385" on="0"/>
        <pt x="385" y="385" on="1"/>
        <pt x="430" y="385" on="1"/>
        <pt x="430" y="670" on="1"/>
        <pt x="370" y="685" on="1"/>
        <pt x="370" y="700" on="1"/>
        <pt x="655" y="700" on="1"/>
        <pt x="655" y="685" on="1"/>
        <pt x="595" y="670" on="1"/>
        <pt x="595" y="385" on="1"/>
        <pt x="640" y="385" on="1"/>
        <pt x="678" y="385" on="0"/>
        <pt x="728" y="435" on="0"/>
        <pt x="740" y="480" on="1"/>
        <pt x="775" y="610" on="1"/>
        <pt x="787" y="655" on="0"/>
        <pt x="842" y="710" on="0"/>
        <pt x="880" y="710" on="1"/>
        <pt x="925" y="710" on="0"/>
        <pt x="980" y="658" on="0"/>
        <pt x="980" y="620" on="1"/>
        <pt x="980" y="582" on="0"/>
        <pt x="934" y="535" on="0"/>
        <pt x="900" y="535" on="1"/>
        <pt x="892" y="535" on="0"/>
        <pt x="877" y="536" on="0"/>
        <pt x="872" y="537" on="1"/>
        <pt x="865" y="538" on="0"/>
        <pt x="860" y="540" on="1"/>
        <pt x="860" y="680" on="1"/>
        <pt x="844" y="676" on="0"/>
        <pt x="813" y="640" on="0"/>
        <pt x="805" y="610" on="1"/>
        <pt x="770" y="480" on="1"/>
        <pt x="762" y="450" on="0"/>
        <pt x="741" y="411" on="0"/>
        <pt x="730" y="400" on="1"/>
        <pt x="718" y="387" on="0"/>
        <pt x="705" y="380" on="1"/>
        <pt x="730" y="380" on="1"/>
        <pt x="801" y="380" on="0"/>
        <pt x="869" y="329" on="0"/>
        <pt x="880" y="295" on="1"/>
        <pt x="970" y="30" on="1"/>
        <pt x="1020" y="15" on="1"/>
        <pt x="1020" y="0" on="1"/>
        <pt x="900" y="0" on="1"/>
        <pt x="844" y="0" on="0"/>
        <pt x="788" y="47" on="0"/>
        <pt x="775" y="85" on="1"/>
        <pt x="680" y="360" on="1"/>
        <pt x="595" y="360" on="1"/>
        <pt x="595" y="30" on="1"/>
        <pt x="655" y="15" on="1"/>
        <pt x="655" y="0" on="1"/>
        <pt x="370" y="0" on="1"/>
        <pt x="370" y="15" on="1"/>
        <pt x="430" y="30" on="1"/>
        <pt x="430" y="360" on="1"/>
        <pt x="345" y="360" on="1"/>
        <pt x="250" y="85" on="1"/>
        <pt x="237" y="47" on="0"/>
        <pt x="181" y="0" on="0"/>
        <pt x="125" y="0" on="1"/>
        <pt x="5" y="0" on="1"/>
        <pt x="5" y="15" on="1"/>
        <pt x="55" y="30" on="1"/>
        <pt x="145" y="295" on="1"/>
        <pt x="156" y="329" on="0"/>
        <pt x="224" y="380" on="0"/>
        <pt x="295" y="380" on="1"/>
      </contour>
    </TTGlyph>
    <TTGlyph name="afii10025" xMin="25" yMin="-15" xMax="585" yMax="715">
      <contour>
        <pt x="335" y="365" on="1"/>
        <pt x="405" y="362" on="0"/>
        <pt x="460" y="342" on="1"/>
        <pt x="483" y="333" on="0"/>
        <pt x="528" y="306" on="0"/>
        <pt x="563" y="267" on="0"/>
        <pt x="585" y="214" on="0"/>
        <pt x="585" y="180" on="1"/>
        <pt x="585" y="141" on="0"/>
        <pt x="550" y="70" on="0"/>
        <pt x="475" y="16" on="0"/>
        <pt x="357" y="-15" on="0"/>
        <pt x="275" y="-15" on="1"/>
        <pt x="219" y="-15" on="0"/>
        <pt x="127" y="20" on="0"/>
        <pt x="61" y="79" on="0"/>
        <pt x="25" y="157" on="0"/>
        <pt x="25" y="200" on="1"/>
        <pt x="50" y="200" on="1"/>
        <pt x="50" y="162" on="0"/>
        <pt x="82" y="94" on="0"/>
        <pt x="137" y="41" on="0"/>
        <pt x="212" y="10" on="0"/>
        <pt x="255" y="10" on="1"/>
        <pt x="330" y="10" on="0"/>
        <pt x="415" y="97" on="0"/>
        <pt x="415" y="180" on="1"/>
        <pt x="415" y="267" on="0"/>
        <pt x="335" y="355" on="0"/>
        <pt x="275" y="355" on="1"/>
        <pt x="200" y="355" on="1"/>
        <pt x="200" y="380" on="1"/>
        <pt x="265" y="380" on="1"/>
        <pt x="318" y="380" on="0"/>
        <pt x="385" y="456" on="0"/>
        <pt x="385" y="535" on="1"/>
        <pt x="385" y="614" on="0"/>
        <pt x="319" y="690" on="0"/>
        <pt x="270" y="690" on="1"/>
        <pt x="246" y="690" on="0"/>
        <pt x="205" y="675" on="0"/>
        <pt x="171" y="650" on="0"/>
        <pt x="144" y="618" on="0"/>
        <pt x="134" y="602" on="1"/>
        <pt x="109" y="563" on="0"/>
        <pt x="95" y="515" on="1"/>
        <pt x="55" y="515" on="1"/>
        <pt x="55" y="705" on="1"/>
        <pt x="80" y="705" on="1"/>
        <pt x="90" y="699" on="0"/>
        <pt x="100" y="691" on="1"/>
        <pt x="108" y="684" on="0"/>
        <pt x="127" y="663" on="0"/>
        <pt x="135" y="650" on="1"/>
        <pt x="154" y="668" on="0"/>
        <pt x="179" y="682" on="1"/>
        <pt x="199" y="694" on="0"/>
        <pt x="256" y="715" on="0"/>
        <pt x="290" y="715" on="1"/>
        <pt x="356" y="715" on="0"/>
        <pt x="455" y="684" on="0"/>
        <pt x="521" y="633" on="0"/>
        <pt x="555" y="569" on="0"/>
        <pt x="555" y="535" on="1"/>
        <pt x="555" y="504" on="0"/>
        <pt x="536" y="457" on="0"/>
        <pt x="505" y="422" on="0"/>
        <pt x="466" y="399" on="0"/>
        <pt x="445" y="391" on="1"/>
        <pt x="397" y="373" on="0"/>
        <pt x="335" y="370" on="1"/>
      </contour>
    </TTGlyph>
    <TTGlyph name="afii10026" xMin="50" yMin="0" xMax="735" yMax="700">
      <contour>
        <pt x="50" y="685" on="1"/>
        <pt x="50" y="700" on="1"/>
        <pt x="335" y="700" on="1"/>
        <pt x="335" y="685" on="1"/>
        <pt x="275" y="670" on="1"/>
        <pt x="275" y="165" on="1"/>
        <pt x="510" y="595" on="1"/>
        <pt x="510" y="670" on="1"/>
        <pt x="450" y="685" on="1"/>
        <pt x="450" y="700" on="1"/>
        <pt x="735" y="700" on="1"/>
        <pt x="735" y="685" on="1"/>
        <pt x="675" y="670" on="1"/>
        <pt x="675" y="30" on="1"/>
        <pt x="735" y="15" on="1"/>
        <pt x="735" y="0" on="1"/>
        <pt x="450" y="0" on="1"/>
        <pt x="450" y="15" on="1"/>
        <pt x="510" y="30" on="1"/>
        <pt x="510" y="535" on="1"/>
        <pt x="275" y="105" on="1"/>
        <pt x="275" y="30" on="1"/>
        <pt x="335" y="15" on="1"/>
        <pt x="335" y="0" on="1"/>
        <pt x="50" y="0" on="1"/>
        <pt x="50" y="15" on="1"/>
        <pt x="110" y="30" on="1"/>
        <pt x="110" y="670" on="1"/>
      </contour>
    </TTGlyph>
    <TTGlyph name="afii10027" xMin="50" yMin="0" xMax="735" yMax="915">
      <contour>
        <pt x="390" y="790" on="1"/>
        <pt x="416" y="790" on="0"/>
        <pt x="445" y="801" on="0"/>
        <pt x="445" y="800" on="1"/>
        <pt x="445" y="910" on="1"/>
        <pt x="451" y="911" on="0"/>
        <pt x="457" y="912" on="1"/>
        <pt x="462" y="913" on="0"/>
        <pt x="474" y="915" on="0"/>
        <pt x="480" y="915" on="1"/>
        <pt x="506" y="915" on="0"/>
        <pt x="540" y="881" on="0"/>
        <pt x="540" y="855" on="1"/>
        <pt x="540" y="821" on="0"/>
        <pt x="472" y="770" on="0"/>
        <pt x="390" y="770" on="1"/>
        <pt x="349" y="770" on="0"/>
        <pt x="292" y="784" on="0"/>
        <pt x="256" y="807" on="0"/>
        <pt x="240" y="838" on="0"/>
        <pt x="240" y="855" on="1"/>
        <pt x="240" y="881" on="0"/>
        <pt x="274" y="915" on="0"/>
        <pt x="300" y="915" on="1"/>
        <pt x="305" y="915" on="0"/>
        <pt x="318" y="913" on="0"/>
        <pt x="323" y="912" on="1"/>
        <pt x="329" y="911" on="0"/>
        <pt x="335" y="910" on="1"/>
        <pt x="335" y="800" on="1"/>
        <pt x="335" y="801" on="0"/>
        <pt x="364" y="790" on="0"/>
      </contour>
      <contour>
        <pt x="50" y="685" on="1"/>
        <pt x="50" y="700" on="1"/>
        <pt x="335" y="700" on="1"/>
        <pt x="335" y="685" on="1"/>
        <pt x="275" y="670" on="1"/>
        <pt x="275" y="165" on="1"/>
        <pt x="510" y="595" on="1"/>
        <pt x="510" y="670" on="1"/>
        <pt x="450" y="685" on="1"/>
        <pt x="450" y="700" on="1"/>
        <pt x="735" y="700" on="1"/>
        <pt x="735" y="685" on="1"/>
        <pt x="675" y="670" on="1"/>
        <pt x="675" y="30" on="1"/>
        <pt x="735" y="15" on="1"/>
        <pt x="735" y="0" on="1"/>
        <pt x="450" y="0" on="1"/>
        <pt x="450" y="15" on="1"/>
        <pt x="510" y="30" on="1"/>
        <pt x="510" y="535" on="1"/>
        <pt x="275" y="105" on="1"/>
        <pt x="275" y="30" on="1"/>
        <pt x="335" y="15" on="1"/>
        <pt x="335" y="0" on="1"/>
        <pt x="50" y="0" on="1"/>
        <pt x="50" y="15" on="1"/>
        <pt x="110" y="30" on="1"/>
        <pt x="110" y="670" on="1"/>
      </contour>
    </TTGlyph>
    <TTGlyph name="afii10028" xMin="50" yMin="0" xMax="705" yMax="710">
      <contour>
        <pt x="415" y="380" on="1"/>
        <pt x="486" y="380" on="0"/>
        <pt x="554" y="329" on="0"/>
        <pt x="565" y="295" on="1"/>
        <pt x="655" y="30" on="1"/>
        <pt x="705" y="15" on="1"/>
        <pt x="705" y="0" on="1"/>
        <pt x="585" y="0" on="1"/>
        <pt x="529" y="0" on="0"/>
        <pt x="473" y="47" on="0"/>
        <pt x="460" y="85" on="1"/>
        <pt x="365" y="360" on="1"/>
        <pt x="275" y="360" on="1"/>
        <pt x="275" y="30" on="1"/>
        <pt x="335" y="15" on="1"/>
        <pt x="335" y="0" on="1"/>
        <pt x="50" y="0" on="1"/>
        <pt x="50" y="15" on="1"/>
        <pt x="110" y="30" on="1"/>
        <pt x="110" y="670" on="1"/>
        <pt x="50" y="685" on="1"/>
        <pt x="50" y="700" on="1"/>
        <pt x="335" y="700" on="1"/>
        <pt x="335" y="685" on="1"/>
        <pt x="275" y="670" on="1"/>
        <pt x="275" y="385" on="1"/>
        <pt x="325" y="385" on="1"/>
        <pt x="363" y="385" on="0"/>
        <pt x="413" y="435" on="0"/>
        <pt x="425" y="480" on="1"/>
        <pt x="460" y="610" on="1"/>
        <pt x="472" y="655" on="0"/>
        <pt x="527" y="710" on="0"/>
        <pt x="565" y="710" on="1"/>
        <pt x="610" y="710" on="0"/>
        <pt x="665" y="658" on="0"/>
        <pt x="665" y="620" on="1"/>
        <pt x="665" y="582" on="0"/>
        <pt x="619" y="535" on="0"/>
        <pt x="585" y="535" on="1"/>
        <pt x="577" y="535" on="0"/>
        <pt x="562" y="536" on="0"/>
        <pt x="557" y="537" on="1"/>
        <pt x="550" y="538" on="0"/>
        <pt x="545" y="540" on="1"/>
        <pt x="545" y="680" on="1"/>
        <pt x="529" y="676" on="0"/>
        <pt x="498" y="640" on="0"/>
        <pt x="490" y="610" on="1"/>
        <pt x="455" y="480" on="1"/>
        <pt x="447" y="450" on="0"/>
        <pt x="426" y="411" on="0"/>
        <pt x="415" y="400" on="1"/>
        <pt x="403" y="387" on="0"/>
        <pt x="390" y="380" on="1"/>
      </contour>
    </TTGlyph>
    <TTGlyph name="afii10029" xMin="-10" yMin="-15" xMax="660" yMax="700">
      <contour>
        <pt x="90" y="-15" on="1"/>
        <pt x="45" y="-15" on="0"/>
        <pt x="-10" y="37" on="0"/>
        <pt x="-10" y="75" on="1"/>
        <pt x="-10" y="113" on="0"/>
        <pt x="36" y="160" on="0"/>
        <pt x="70" y="160" on="1"/>
        <pt x="78" y="160" on="0"/>
        <pt x="91" y="158" on="0"/>
        <pt x="97" y="157" on="1"/>
        <pt x="103" y="156" on="0"/>
        <pt x="110" y="155" on="1"/>
        <pt x="110" y="15" on="1"/>
        <pt x="123" y="19" on="0"/>
        <pt x="150" y="41" on="0"/>
        <pt x="174" y="93" on="0"/>
        <pt x="192" y="181" on="0"/>
        <pt x="195" y="250" on="1"/>
        <pt x="215" y="665" on="1"/>
        <pt x="145" y="685" on="1"/>
        <pt x="145" y="700" on="1"/>
        <pt x="660" y="700" on="1"/>
        <pt x="660" y="685" on="1"/>
        <pt x="600" y="670" on="1"/>
        <pt x="600" y="30" on="1"/>
        <pt x="660" y="15" on="1"/>
        <pt x="660" y="0" on="1"/>
        <pt x="375" y="0" on="1"/>
        <pt x="375" y="15" on="1"/>
        <pt x="435" y="30" on="1"/>
        <pt x="435" y="675" on="1"/>
        <pt x="245" y="675" on="1"/>
        <pt x="225" y="250" on="1"/>
        <pt x="221" y="173" on="0"/>
        <pt x="196" y="71" on="0"/>
        <pt x="160" y="10" on="0"/>
        <pt x="114" y="-15" on="0"/>
      </contour>
    </TTGlyph>
    <TTGlyph name="afii10030" xMin="30" yMin="-10" xMax="935" yMax="700">
      <contour>
        <pt x="935" y="700" on="1"/>
        <pt x="935" y="685" on="1"/>
        <pt x="875" y="670" on="1"/>
        <pt x="875" y="30" on="1"/>
        <pt x="935" y="15" on="1"/>
        <pt x="935" y="0" on="1"/>
        <pt x="650" y="0" on="1"/>
        <pt x="650" y="15" on="1"/>
        <pt x="710" y="30" on="1"/>
        <pt x="710" y="575" on="1"/>
        <pt x="475" y="-10" on="1"/>
        <pt x="445" y="-10" on="1"/>
        <pt x="140" y="575" on="1"/>
        <pt x="140" y="45" on="1"/>
        <pt x="220" y="15" on="1"/>
        <pt x="220" y="0" on="1"/>
        <pt x="30" y="0" on="1"/>
        <pt x="30" y="15" on="1"/>
        <pt x="110" y="45" on="1"/>
        <pt x="110" y="670" on="1"/>
        <pt x="40" y="685" on="1"/>
        <pt x="40" y="700" on="1"/>
        <pt x="175" y="700" on="1"/>
        <pt x="203" y="700" on="0"/>
        <pt x="245" y="687" on="0"/>
        <pt x="277" y="665" on="0"/>
        <pt x="300" y="634" on="0"/>
        <pt x="310" y="615" on="1"/>
        <pt x="528" y="198" on="1"/>
        <pt x="695" y="615" on="1"/>
        <pt x="703" y="636" on="0"/>
        <pt x="724" y="667" on="0"/>
        <pt x="754" y="689" on="0"/>
        <pt x="798" y="700" on="0"/>
        <pt x="830" y="700" on="1"/>
      </contour>
    </TTGlyph>
    <TTGlyph name="afii10031" xMin="50" yMin="0" xMax="715" yMax="700">
      <contour>
        <pt x="50" y="685" on="1"/>
        <pt x="50" y="700" on="1"/>
        <pt x="335" y="700" on="1"/>
        <pt x="335" y="685" on="1"/>
        <pt x="275" y="670" on="1"/>
        <pt x="275" y="360" on="1"/>
        <pt x="490" y="360" on="1"/>
        <pt x="490" y="670" on="1"/>
        <pt x="430" y="685" on="1"/>
        <pt x="430" y="700" on="1"/>
        <pt x="715" y="700" on="1"/>
        <pt x="715" y="685" on="1"/>
        <pt x="655" y="670" on="1"/>
        <pt x="655" y="30" on="1"/>
        <pt x="715" y="15" on="1"/>
        <pt x="715" y="0" on="1"/>
        <pt x="430" y="0" on="1"/>
        <pt x="430" y="15" on="1"/>
        <pt x="490" y="30" on="1"/>
        <pt x="490" y="335" on="1"/>
        <pt x="275" y="335" on="1"/>
        <pt x="275" y="30" on="1"/>
        <pt x="335" y="15" on="1"/>
        <pt x="335" y="0" on="1"/>
        <pt x="50" y="0" on="1"/>
        <pt x="50" y="15" on="1"/>
        <pt x="110" y="30" on="1"/>
        <pt x="110" y="670" on="1"/>
      </contour>
    </TTGlyph>
    <TTGlyph name="afii10032" xMin="45" yMin="-15" xMax="695" yMax="715">
      <contour>
        <pt x="520" y="350" on="1"/>
        <pt x="520" y="449" on="0"/>
        <pt x="493" y="582" on="0"/>
        <pt x="450" y="662" on="0"/>
        <pt x="396" y="695" on="0"/>
        <pt x="370" y="695" on="1"/>
        <pt x="344" y="695" on="0"/>
        <pt x="290" y="662" on="0"/>
        <pt x="247" y="582" on="0"/>
        <pt x="220" y="449" on="0"/>
        <pt x="220" y="350" on="1"/>
        <pt x="220" y="251" on="0"/>
        <pt x="247" y="118" on="0"/>
        <pt x="290" y="38" on="0"/>
        <pt x="344" y="5" on="0"/>
        <pt x="370" y="5" on="1"/>
        <pt x="396" y="5" on="0"/>
        <pt x="450" y="38" on="0"/>
        <pt x="493" y="118" on="0"/>
        <pt x="520" y="251" on="0"/>
      </contour>
      <contour>
        <pt x="695" y="350" on="1"/>
        <pt x="695" y="262" on="0"/>
        <pt x="648" y="126" on="0"/>
        <pt x="563" y="33" on="0"/>
        <pt x="443" y="-15" on="0"/>
        <pt x="370" y="-15" on="1"/>
        <pt x="297" y="-15" on="0"/>
        <pt x="177" y="33" on="0"/>
        <pt x="92" y="126" on="0"/>
        <pt x="45" y="262" on="0"/>
        <pt x="45" y="350" on="1"/>
        <pt x="45" y="438" on="0"/>
        <pt x="92" y="574" on="0"/>
        <pt x="177" y="667" on="0"/>
        <pt x="297" y="715" on="0"/>
        <pt x="370" y="715" on="1"/>
        <pt x="443" y="715" on="0"/>
        <pt x="563" y="667" on="0"/>
        <pt x="648" y="574" on="0"/>
        <pt x="695" y="438" on="0"/>
      </contour>
    </TTGlyph>
    <TTGlyph name="afii10033" xMin="50" yMin="0" xMax="715" yMax="700">
      <contour>
        <pt x="50" y="685" on="1"/>
        <pt x="50" y="700" on="1"/>
        <pt x="715" y="700" on="1"/>
        <pt x="715" y="685" on="1"/>
        <pt x="655" y="670" on="1"/>
        <pt x="655" y="30" on="1"/>
        <pt x="715" y="15" on="1"/>
        <pt x="715" y="0" on="1"/>
        <pt x="430" y="0" on="1"/>
        <pt x="430" y="15" on="1"/>
        <pt x="490" y="30" on="1"/>
        <pt x="490" y="675" on="1"/>
        <pt x="275" y="675" on="1"/>
        <pt x="275" y="30" on="1"/>
        <pt x="335" y="15" on="1"/>
        <pt x="335" y="0" on="1"/>
        <pt x="50" y="0" on="1"/>
        <pt x="50" y="15" on="1"/>
        <pt x="110" y="30" on="1"/>
        <pt x="110" y="670" on="1"/>
      </contour>
    </TTGlyph>
    <TTGlyph name="afii10034" xMin="50" yMin="0" xMax="640" yMax="700">
      <contour>
        <pt x="330" y="295" on="1"/>
        <pt x="360" y="295" on="0"/>
        <pt x="411" y="318" on="0"/>
        <pt x="449" y="365" on="0"/>
        <pt x="470" y="436" on="0"/>
        <pt x="470" y="485" on="1"/>
        <pt x="470" y="582" on="0"/>
        <pt x="390" y="675" on="0"/>
        <pt x="330" y="675" on="1"/>
        <pt x="275" y="675" on="1"/>
        <pt x="275" y="295" on="1"/>
      </contour>
      <contour>
        <pt x="275" y="270" on="1"/>
        <pt x="275" y="30" on="1"/>
        <pt x="335" y="15" on="1"/>
        <pt x="335" y="0" on="1"/>
        <pt x="50" y="0" on="1"/>
        <pt x="50" y="15" on="1"/>
        <pt x="110" y="30" on="1"/>
        <pt x="110" y="670" on="1"/>
        <pt x="50" y="685" on="1"/>
        <pt x="50" y="700" on="1"/>
        <pt x="330" y="700" on="1"/>
        <pt x="416" y="700" on="0"/>
        <pt x="535" y="671" on="0"/>
        <pt x="608" y="615" on="0"/>
        <pt x="640" y="536" on="0"/>
        <pt x="640" y="485" on="1"/>
        <pt x="640" y="434" on="0"/>
        <pt x="608" y="355" on="0"/>
        <pt x="535" y="299" on="0"/>
        <pt x="416" y="270" on="0"/>
        <pt x="330" y="270" on="1"/>
      </contour>
    </TTGlyph>
    <TTGlyph name="afii10035" xMin="45" yMin="-15" xMax="615" yMax="715">
      <contour>
        <pt x="361" y="715" on="1"/>
        <pt x="396" y="715" on="0"/>
        <pt x="455" y="694" on="0"/>
        <pt x="476" y="682" on="1"/>
        <pt x="501" y="668" on="0"/>
        <pt x="520" y="650" on="1"/>
        <pt x="528" y="663" on="0"/>
        <pt x="547" y="684" on="0"/>
        <pt x="555" y="691" on="1"/>
        <pt x="565" y="699" on="0"/>
        <pt x="575" y="705" on="1"/>
        <pt x="600" y="705" on="1"/>
        <pt x="600" y="515" on="1"/>
        <pt x="560" y="515" on="1"/>
        <pt x="546" y="563" on="0"/>
        <pt x="521" y="602" on="1"/>
        <pt x="500" y="635" on="0"/>
        <pt x="430" y="690" on="0"/>
        <pt x="380" y="690" on="1"/>
        <pt x="350" y="690" on="0"/>
        <pt x="292" y="657" on="0"/>
        <pt x="247" y="578" on="0"/>
        <pt x="220" y="447" on="0"/>
        <pt x="220" y="350" on="1"/>
        <pt x="220" y="252" on="0"/>
        <pt x="248" y="122" on="0"/>
        <pt x="298" y="43" on="0"/>
        <pt x="366" y="10" on="0"/>
        <pt x="405" y="10" on="1"/>
        <pt x="441" y="10" on="0"/>
        <pt x="507" y="41" on="0"/>
        <pt x="559" y="94" on="0"/>
        <pt x="590" y="162" on="0"/>
        <pt x="590" y="200" on="1"/>
        <pt x="615" y="200" on="1"/>
        <pt x="615" y="157" on="0"/>
        <pt x="580" y="79" on="0"/>
        <pt x="518" y="20" on="0"/>
        <pt x="434" y="-15" on="0"/>
        <pt x="385" y="-15" on="1"/>
        <pt x="306" y="-15" on="0"/>
        <pt x="180" y="33" on="0"/>
        <pt x="92" y="126" on="0"/>
        <pt x="45" y="262" on="0"/>
        <pt x="45" y="350" on="1"/>
        <pt x="45" y="438" on="0"/>
        <pt x="91" y="574" on="0"/>
        <pt x="175" y="667" on="0"/>
        <pt x="291" y="715" on="0"/>
      </contour>
    </TTGlyph>
    <TTGlyph name="afii10036" xMin="25" yMin="0" xMax="610" yMax="700">
      <contour>
        <pt x="175" y="0" on="1"/>
        <pt x="175" y="15" on="1"/>
        <pt x="235" y="30" on="1"/>
        <pt x="235" y="675" on="1"/>
        <pt x="120" y="675" on="1"/>
        <pt x="120" y="635" on="0"/>
        <pt x="99" y="578" on="0"/>
        <pt x="87" y="558" on="1"/>
        <pt x="73" y="535" on="0"/>
        <pt x="55" y="520" on="1"/>
        <pt x="25" y="520" on="1"/>
        <pt x="25" y="700" on="1"/>
        <pt x="610" y="700" on="1"/>
        <pt x="610" y="520" on="1"/>
        <pt x="580" y="520" on="1"/>
        <pt x="561" y="535" on="0"/>
        <pt x="547" y="558" on="1"/>
        <pt x="535" y="578" on="0"/>
        <pt x="515" y="635" on="0"/>
        <pt x="515" y="675" on="1"/>
        <pt x="400" y="675" on="1"/>
        <pt x="400" y="30" on="1"/>
        <pt x="460" y="15" on="1"/>
        <pt x="460" y="0" on="1"/>
      </contour>
    </TTGlyph>
    <TTGlyph name="afii10037" xMin="-10" yMin="-15" xMax="680" yMax="700">
      <contour>
        <pt x="40" y="670" on="1"/>
        <pt x="-10" y="685" on="1"/>
        <pt x="-10" y="700" on="1"/>
        <pt x="120" y="700" on="1"/>
        <pt x="173" y="700" on="0"/>
        <pt x="235" y="649" on="0"/>
        <pt x="255" y="615" on="1"/>
        <pt x="424" y="322" on="1"/>
        <pt x="570" y="655" on="1"/>
        <pt x="495" y="685" on="1"/>
        <pt x="495" y="700" on="1"/>
        <pt x="680" y="700" on="1"/>
        <pt x="680" y="685" on="1"/>
        <pt x="600" y="655" on="1"/>
        <pt x="375" y="140" on="1"/>
        <pt x="339" y="57" on="0"/>
        <pt x="267" y="-15" on="0"/>
        <pt x="225" y="-15" on="1"/>
        <pt x="180" y="-15" on="0"/>
        <pt x="125" y="37" on="0"/>
        <pt x="125" y="75" on="1"/>
        <pt x="125" y="113" on="0"/>
        <pt x="171" y="160" on="0"/>
        <pt x="205" y="160" on="1"/>
        <pt x="213" y="160" on="0"/>
        <pt x="226" y="158" on="0"/>
        <pt x="232" y="157" on="1"/>
        <pt x="238" y="156" on="0"/>
        <pt x="245" y="155" on="1"/>
        <pt x="245" y="15" on="1"/>
        <pt x="268" y="19" on="0"/>
        <pt x="319" y="76" on="0"/>
        <pt x="345" y="140" on="1"/>
      </contour>
    </TTGlyph>
    <TTGlyph name="afii10038" xMin="20" yMin="0" xMax="875" yMax="715">
      <contour>
        <pt x="365" y="85" on="1"/>
        <pt x="281" y="89" on="0"/>
        <pt x="152" y="135" on="0"/>
        <pt x="65" y="209" on="0"/>
        <pt x="20" y="306" on="0"/>
        <pt x="20" y="360" on="1"/>
        <pt x="20" y="414" on="0"/>
        <pt x="65" y="511" on="0"/>
        <pt x="152" y="585" on="0"/>
        <pt x="281" y="631" on="0"/>
        <pt x="365" y="635" on="1"/>
        <pt x="365" y="685" on="1"/>
        <pt x="305" y="700" on="1"/>
        <pt x="305" y="715" on="1"/>
        <pt x="590" y="715" on="1"/>
        <pt x="590" y="700" on="1"/>
        <pt x="530" y="685" on="1"/>
        <pt x="530" y="635" on="1"/>
        <pt x="614" y="631" on="0"/>
        <pt x="743" y="585" on="0"/>
        <pt x="830" y="511" on="0"/>
        <pt x="875" y="414" on="0"/>
        <pt x="875" y="360" on="1"/>
        <pt x="875" y="306" on="0"/>
        <pt x="830" y="209" on="0"/>
        <pt x="743" y="135" on="0"/>
        <pt x="614" y="89" on="0"/>
        <pt x="530" y="85" on="1"/>
        <pt x="530" y="30" on="1"/>
        <pt x="590" y="15" on="1"/>
        <pt x="590" y="0" on="1"/>
        <pt x="305" y="0" on="1"/>
        <pt x="305" y="15" on="1"/>
        <pt x="365" y="30" on="1"/>
      </contour>
      <contour>
        <pt x="530" y="105" on="1"/>
        <pt x="564" y="109" on="0"/>
        <pt x="625" y="143" on="0"/>
        <pt x="672" y="206" on="0"/>
        <pt x="700" y="298" on="0"/>
        <pt x="700" y="360" on="1"/>
        <pt x="700" y="422" on="0"/>
        <pt x="672" y="514" on="0"/>
        <pt x="625" y="577" on="0"/>
        <pt x="564" y="611" on="0"/>
        <pt x="530" y="615" on="1"/>
      </contour>
      <contour>
        <pt x="365" y="615" on="1"/>
        <pt x="331" y="611" on="0"/>
        <pt x="270" y="577" on="0"/>
        <pt x="223" y="514" on="0"/>
        <pt x="195" y="422" on="0"/>
        <pt x="195" y="360" on="1"/>
        <pt x="195" y="298" on="0"/>
        <pt x="223" y="206" on="0"/>
        <pt x="270" y="143" on="0"/>
        <pt x="331" y="109" on="0"/>
        <pt x="365" y="105" on="1"/>
      </contour>
    </TTGlyph>
    <TTGlyph name="afii10039" xMin="-5" yMin="0" xMax="670" yMax="700">
      <contour>
        <pt x="265" y="296" on="1"/>
        <pt x="45" y="670" on="1"/>
        <pt x="-5" y="685" on="1"/>
        <pt x="-5" y="700" on="1"/>
        <pt x="140" y="700" on="1"/>
        <pt x="193" y="700" on="0"/>
        <pt x="252" y="653" on="0"/>
        <pt x="275" y="615" on="1"/>
        <pt x="371" y="451" on="1"/>
        <pt x="510" y="655" on="1"/>
        <pt x="435" y="685" on="1"/>
        <pt x="435" y="700" on="1"/>
        <pt x="625" y="700" on="1"/>
        <pt x="625" y="685" on="1"/>
        <pt x="545" y="655" on="1"/>
        <pt x="388" y="424" on="1"/>
        <pt x="620" y="30" on="1"/>
        <pt x="670" y="15" on="1"/>
        <pt x="670" y="0" on="1"/>
        <pt x="525" y="0" on="1"/>
        <pt x="472" y="0" on="0"/>
        <pt x="413" y="47" on="0"/>
        <pt x="390" y="85" on="1"/>
        <pt x="282" y="268" on="1"/>
        <pt x="130" y="45" on="1"/>
        <pt x="205" y="15" on="1"/>
        <pt x="205" y="0" on="1"/>
        <pt x="15" y="0" on="1"/>
        <pt x="15" y="15" on="1"/>
        <pt x="95" y="45" on="1"/>
      </contour>
    </TTGlyph>
    <TTGlyph name="afii10040" xMin="50" yMin="-170" xMax="750" yMax="700">
      <contour>
        <pt x="50" y="0" on="1"/>
        <pt x="50" y="15" on="1"/>
        <pt x="110" y="30" on="1"/>
        <pt x="110" y="670" on="1"/>
        <pt x="50" y="685" on="1"/>
        <pt x="50" y="700" on="1"/>
        <pt x="335" y="700" on="1"/>
        <pt x="335" y="685" on="1"/>
        <pt x="275" y="670" on="1"/>
        <pt x="275" y="25" on="1"/>
        <pt x="490" y="25" on="1"/>
        <pt x="490" y="670" on="1"/>
        <pt x="430" y="685" on="1"/>
        <pt x="430" y="700" on="1"/>
        <pt x="715" y="700" on="1"/>
        <pt x="715" y="685" on="1"/>
        <pt x="655" y="670" on="1"/>
        <pt x="655" y="25" on="1"/>
        <pt x="750" y="25" on="1"/>
        <pt x="750" y="-170" on="1"/>
        <pt x="720" y="-170" on="1"/>
        <pt x="695" y="-152" on="0"/>
        <pt x="677" y="-126" on="1"/>
        <pt x="661" y="-104" on="0"/>
        <pt x="635" y="-42" on="0"/>
        <pt x="635" y="0" on="1"/>
      </contour>
    </TTGlyph>
    <TTGlyph name="afii10041" xMin="20" yMin="0" xMax="675" yMax="700">
      <contour>
        <pt x="450" y="670" on="1"/>
        <pt x="390" y="685" on="1"/>
        <pt x="390" y="700" on="1"/>
        <pt x="675" y="700" on="1"/>
        <pt x="675" y="685" on="1"/>
        <pt x="615" y="670" on="1"/>
        <pt x="615" y="30" on="1"/>
        <pt x="675" y="15" on="1"/>
        <pt x="675" y="0" on="1"/>
        <pt x="390" y="0" on="1"/>
        <pt x="390" y="15" on="1"/>
        <pt x="450" y="30" on="1"/>
        <pt x="450" y="295" on="1"/>
        <pt x="434" y="286" on="0"/>
        <pt x="415" y="280" on="1"/>
        <pt x="398" y="274" on="0"/>
        <pt x="350" y="265" on="0"/>
        <pt x="320" y="265" on="1"/>
        <pt x="256" y="265" on="0"/>
        <pt x="165" y="290" on="0"/>
        <pt x="107" y="336" on="0"/>
        <pt x="80" y="401" on="0"/>
        <pt x="80" y="440" on="1"/>
        <pt x="80" y="670" on="1"/>
        <pt x="20" y="685" on="1"/>
        <pt x="20" y="700" on="1"/>
        <pt x="305" y="700" on="1"/>
        <pt x="305" y="685" on="1"/>
        <pt x="245" y="670" on="1"/>
        <pt x="245" y="440" on="1"/>
        <pt x="245" y="357" on="0"/>
        <pt x="303" y="290" on="0"/>
        <pt x="360" y="290" on="1"/>
        <pt x="379" y="290" on="0"/>
        <pt x="412" y="299" on="0"/>
        <pt x="424" y="305" on="1"/>
        <pt x="438" y="311" on="0"/>
        <pt x="450" y="320" on="1"/>
      </contour>
    </TTGlyph>
    <TTGlyph name="afii10042" xMin="50" yMin="0" xMax="1035" yMax="700">
      <contour>
        <pt x="110" y="30" on="1"/>
        <pt x="110" y="670" on="1"/>
        <pt x="50" y="685" on="1"/>
        <pt x="50" y="700" on="1"/>
        <pt x="335" y="700" on="1"/>
        <pt x="335" y="685" on="1"/>
        <pt x="275" y="670" on="1"/>
        <pt x="275" y="25" on="1"/>
        <pt x="460" y="25" on="1"/>
        <pt x="460" y="670" on="1"/>
        <pt x="400" y="685" on="1"/>
        <pt x="400" y="700" on="1"/>
        <pt x="685" y="700" on="1"/>
        <pt x="685" y="685" on="1"/>
        <pt x="625" y="670" on="1"/>
        <pt x="625" y="25" on="1"/>
        <pt x="810" y="25" on="1"/>
        <pt x="810" y="670" on="1"/>
        <pt x="750" y="685" on="1"/>
        <pt x="750" y="700" on="1"/>
        <pt x="1035" y="700" on="1"/>
        <pt x="1035" y="685" on="1"/>
        <pt x="975" y="670" on="1"/>
        <pt x="975" y="30" on="1"/>
        <pt x="1035" y="15" on="1"/>
        <pt x="1035" y="0" on="1"/>
        <pt x="50" y="0" on="1"/>
        <pt x="50" y="15" on="1"/>
      </contour>
    </TTGlyph>
    <TTGlyph name="afii10043" xMin="50" yMin="-170" xMax="1070" yMax="700">
      <contour>
        <pt x="975" y="25" on="1"/>
        <pt x="1070" y="25" on="1"/>
        <pt x="1070" y="-170" on="1"/>
        <pt x="1040" y="-170" on="1"/>
        <pt x="1015" y="-152" on="0"/>
        <pt x="997" y="-126" on="1"/>
        <pt x="981" y="-104" on="0"/>
        <pt x="955" y="-42" on="0"/>
        <pt x="955" y="0" on="1"/>
        <pt x="50" y="0" on="1"/>
        <pt x="50" y="15" on="1"/>
        <pt x="110" y="30" on="1"/>
        <pt x="110" y="670" on="1"/>
        <pt x="50" y="685" on="1"/>
        <pt x="50" y="700" on="1"/>
        <pt x="335" y="700" on="1"/>
        <pt x="335" y="685" on="1"/>
        <pt x="275" y="670" on="1"/>
        <pt x="275" y="25" on="1"/>
        <pt x="460" y="25" on="1"/>
        <pt x="460" y="670" on="1"/>
        <pt x="400" y="685" on="1"/>
        <pt x="400" y="700" on="1"/>
        <pt x="685" y="700" on="1"/>
        <pt x="685" y="685" on="1"/>
        <pt x="625" y="670" on="1"/>
        <pt x="625" y="25" on="1"/>
        <pt x="810" y="25" on="1"/>
        <pt x="810" y="670" on="1"/>
        <pt x="750" y="685" on="1"/>
        <pt x="750" y="700" on="1"/>
        <pt x="1035" y="700" on="1"/>
        <pt x="1035" y="685" on="1"/>
        <pt x="975" y="670" on="1"/>
      </contour>
    </TTGlyph>
    <TTGlyph name="afii10044" xMin="25" yMin="0" xMax="730" yMax="700">
      <contour>
        <pt x="120" y="675" on="1"/>
        <pt x="120" y="635" on="0"/>
        <pt x="99" y="578" on="0"/>
        <pt x="87" y="558" on="1"/>
        <pt x="73" y="535" on="0"/>
        <pt x="55" y="520" on="1"/>
        <pt x="25" y="520" on="1"/>
        <pt x="25" y="700" on="1"/>
        <pt x="425" y="700" on="1"/>
        <pt x="425" y="685" on="1"/>
        <pt x="365" y="670" on="1"/>
        <pt x="365" y="420" on="1"/>
        <pt x="420" y="420" on="1"/>
        <pt x="506" y="420" on="0"/>
        <pt x="625" y="391" on="0"/>
        <pt x="698" y="337" on="0"/>
        <pt x="730" y="259" on="0"/>
        <pt x="730" y="210" on="1"/>
        <pt x="730" y="161" on="0"/>
        <pt x="698" y="83" on="0"/>
        <pt x="625" y="29" on="0"/>
        <pt x="506" y="0" on="0"/>
        <pt x="420" y="0" on="1"/>
        <pt x="140" y="0" on="1"/>
        <pt x="140" y="15" on="1"/>
        <pt x="200" y="30" on="1"/>
        <pt x="200" y="675" on="1"/>
      </contour>
      <contour>
        <pt x="365" y="395" on="1"/>
        <pt x="365" y="25" on="1"/>
        <pt x="420" y="25" on="1"/>
        <pt x="480" y="25" on="0"/>
        <pt x="560" y="116" on="0"/>
        <pt x="560" y="210" on="1"/>
        <pt x="560" y="304" on="0"/>
        <pt x="480" y="395" on="0"/>
        <pt x="420" y="395" on="1"/>
      </contour>
    </TTGlyph>
    <TTGlyph name="afii10045" xMin="50" yMin="0" xMax="965" yMax="700">
      <contour>
        <pt x="680" y="685" on="1"/>
        <pt x="680" y="700" on="1"/>
        <pt x="965" y="700" on="1"/>
        <pt x="965" y="685" on="1"/>
        <pt x="905" y="670" on="1"/>
        <pt x="905" y="30" on="1"/>
        <pt x="965" y="15" on="1"/>
        <pt x="965" y="0" on="1"/>
        <pt x="680" y="0" on="1"/>
        <pt x="680" y="15" on="1"/>
        <pt x="740" y="30" on="1"/>
        <pt x="740" y="670" on="1"/>
      </contour>
      <contour>
        <pt x="340" y="420" on="1"/>
        <pt x="426" y="420" on="0"/>
        <pt x="545" y="391" on="0"/>
        <pt x="618" y="337" on="0"/>
        <pt x="650" y="259" on="0"/>
        <pt x="650" y="210" on="1"/>
        <pt x="650" y="161" on="0"/>
        <pt x="618" y="83" on="0"/>
        <pt x="545" y="29" on="0"/>
        <pt x="426" y="0" on="0"/>
        <pt x="340" y="0" on="1"/>
        <pt x="50" y="0" on="1"/>
        <pt x="50" y="15" on="1"/>
        <pt x="110" y="30" on="1"/>
        <pt x="110" y="670" on="1"/>
        <pt x="50" y="685" on="1"/>
        <pt x="50" y="700" on="1"/>
        <pt x="335" y="700" on="1"/>
        <pt x="335" y="685" on="1"/>
        <pt x="275" y="670" on="1"/>
        <pt x="275" y="420" on="1"/>
      </contour>
      <contour>
        <pt x="275" y="395" on="1"/>
        <pt x="275" y="25" on="1"/>
        <pt x="340" y="25" on="1"/>
        <pt x="400" y="25" on="0"/>
        <pt x="480" y="116" on="0"/>
        <pt x="480" y="210" on="1"/>
        <pt x="480" y="304" on="0"/>
        <pt x="400" y="395" on="0"/>
        <pt x="340" y="395" on="1"/>
      </contour>
    </TTGlyph>
    <TTGlyph name="afii10046" xMin="50" yMin="0" xMax="650" yMax="700">
      <contour>
        <pt x="340" y="420" on="1"/>
        <pt x="426" y="420" on="0"/>
        <pt x="545" y="391" on="0"/>
        <pt x="618" y="337" on="0"/>
        <pt x="650" y="259" on="0"/>
        <pt x="650" y="210" on="1"/>
        <pt x="650" y="161" on="0"/>
        <pt x="618" y="83" on="0"/>
        <pt x="545" y="29" on="0"/>
        <pt x="426" y="0" on="0"/>
        <pt x="340" y="0" on="1"/>
        <pt x="50" y="0" on="1"/>
        <pt x="50" y="15" on="1"/>
        <pt x="110" y="30" on="1"/>
        <pt x="110" y="670" on="1"/>
        <pt x="50" y="685" on="1"/>
        <pt x="50" y="700" on="1"/>
        <pt x="335" y="700" on="1"/>
        <pt x="335" y="685" on="1"/>
        <pt x="275" y="670" on="1"/>
        <pt x="275" y="420" on="1"/>
      </contour>
      <contour>
        <pt x="275" y="395" on="1"/>
        <pt x="275" y="25" on="1"/>
        <pt x="340" y="25" on="1"/>
        <pt x="400" y="25" on="0"/>
        <pt x="480" y="116" on="0"/>
        <pt x="480" y="210" on="1"/>
        <pt x="480" y="304" on="0"/>
        <pt x="400" y="395" on="0"/>
        <pt x="340" y="395" on="1"/>
      </contour>
    </TTGlyph>
    <TTGlyph name="afii10047" xMin="35" yMin="-15" xMax="605" yMax="715">
      <contour>
        <pt x="289" y="715" on="1"/>
        <pt x="359" y="715" on="0"/>
        <pt x="475" y="667" on="0"/>
        <pt x="559" y="574" on="0"/>
        <pt x="605" y="438" on="0"/>
        <pt x="605" y="350" on="1"/>
        <pt x="605" y="262" on="0"/>
        <pt x="558" y="126" on="0"/>
        <pt x="470" y="33" on="0"/>
        <pt x="344" y="-15" on="0"/>
        <pt x="265" y="-15" on="1"/>
        <pt x="216" y="-15" on="0"/>
        <pt x="132" y="20" on="0"/>
        <pt x="70" y="79" on="0"/>
        <pt x="35" y="157" on="0"/>
        <pt x="35" y="200" on="1"/>
        <pt x="60" y="200" on="1"/>
        <pt x="60" y="162" on="0"/>
        <pt x="91" y="94" on="0"/>
        <pt x="143" y="41" on="0"/>
        <pt x="209" y="10" on="0"/>
        <pt x="245" y="10" on="1"/>
        <pt x="284" y="10" on="0"/>
        <pt x="351" y="41" on="0"/>
        <pt x="399" y="116" on="0"/>
        <pt x="428" y="241" on="0"/>
        <pt x="430" y="335" on="1"/>
        <pt x="300" y="335" on="1"/>
        <pt x="296" y="314" on="0"/>
        <pt x="282" y="278" on="0"/>
        <pt x="274" y="264" on="1"/>
        <pt x="265" y="248" on="0"/>
        <pt x="255" y="235" on="1"/>
        <pt x="225" y="235" on="1"/>
        <pt x="225" y="460" on="1"/>
        <pt x="255" y="460" on="1"/>
        <pt x="265" y="447" on="0"/>
        <pt x="274" y="431" on="1"/>
        <pt x="282" y="417" on="0"/>
        <pt x="296" y="380" on="0"/>
        <pt x="300" y="360" on="1"/>
        <pt x="430" y="360" on="1"/>
        <pt x="430" y="454" on="0"/>
        <pt x="402" y="580" on="0"/>
        <pt x="357" y="657" on="0"/>
        <pt x="300" y="690" on="0"/>
        <pt x="270" y="690" on="1"/>
        <pt x="219" y="690" on="0"/>
        <pt x="150" y="635" on="0"/>
        <pt x="129" y="602" on="1"/>
        <pt x="104" y="563" on="0"/>
        <pt x="90" y="515" on="1"/>
        <pt x="50" y="515" on="1"/>
        <pt x="50" y="705" on="1"/>
        <pt x="75" y="705" on="1"/>
        <pt x="85" y="699" on="0"/>
        <pt x="95" y="691" on="1"/>
        <pt x="103" y="684" on="0"/>
        <pt x="122" y="663" on="0"/>
        <pt x="130" y="650" on="1"/>
        <pt x="149" y="668" on="0"/>
        <pt x="174" y="682" on="1"/>
        <pt x="195" y="694" on="0"/>
        <pt x="254" y="715" on="0"/>
      </contour>
    </TTGlyph>
    <TTGlyph name="afii10048" xMin="50" yMin="-15" xMax="970" yMax="715">
      <contour>
        <pt x="665" y="715" on="1"/>
        <pt x="731" y="715" on="0"/>
        <pt x="842" y="667" on="0"/>
        <pt x="924" y="574" on="0"/>
        <pt x="970" y="438" on="0"/>
        <pt x="970" y="350" on="1"/>
        <pt x="970" y="262" on="0"/>
        <pt x="924" y="126" on="0"/>
        <pt x="842" y="33" on="0"/>
        <pt x="731" y="-15" on="0"/>
        <pt x="665" y="-15" on="1"/>
        <pt x="601" y="-15" on="0"/>
        <pt x="491" y="31" on="0"/>
        <pt x="410" y="120" on="0"/>
        <pt x="362" y="251" on="0"/>
        <pt x="360" y="335" on="1"/>
        <pt x="275" y="335" on="1"/>
        <pt x="275" y="30" on="1"/>
        <pt x="335" y="15" on="1"/>
        <pt x="335" y="0" on="1"/>
        <pt x="50" y="0" on="1"/>
        <pt x="50" y="15" on="1"/>
        <pt x="110" y="30" on="1"/>
        <pt x="110" y="670" on="1"/>
        <pt x="50" y="685" on="1"/>
        <pt x="50" y="700" on="1"/>
        <pt x="335" y="700" on="1"/>
        <pt x="335" y="685" on="1"/>
        <pt x="275" y="670" on="1"/>
        <pt x="275" y="360" on="1"/>
        <pt x="360" y="360" on="1"/>
        <pt x="362" y="446" on="0"/>
        <pt x="408" y="579" on="0"/>
        <pt x="489" y="669" on="0"/>
        <pt x="599" y="715" on="0"/>
      </contour>
      <contour>
        <pt x="665" y="695" on="1"/>
        <pt x="642" y="695" on="0"/>
        <pt x="596" y="665" on="0"/>
        <pt x="559" y="587" on="0"/>
        <pt x="535" y="453" on="0"/>
        <pt x="535" y="350" on="1"/>
        <pt x="535" y="247" on="0"/>
        <pt x="559" y="113" on="0"/>
        <pt x="596" y="35" on="0"/>
        <pt x="642" y="5" on="0"/>
        <pt x="665" y="5" on="1"/>
        <pt x="687" y="5" on="0"/>
        <pt x="734" y="35" on="0"/>
        <pt x="771" y="113" on="0"/>
        <pt x="795" y="247" on="0"/>
        <pt x="795" y="350" on="1"/>
        <pt x="795" y="453" on="0"/>
        <pt x="771" y="587" on="0"/>
        <pt x="734" y="665" on="0"/>
        <pt x="687" y="695" on="0"/>
      </contour>
    </TTGlyph>
    <TTGlyph name="afii10049" xMin="5" yMin="0" xMax="655" yMax="700">
      <contour>
        <pt x="300" y="325" on="1"/>
        <pt x="235" y="327" on="0"/>
        <pt x="185" y="347" on="1"/>
        <pt x="163" y="355" on="0"/>
        <pt x="122" y="381" on="0"/>
        <pt x="90" y="420" on="0"/>
        <pt x="70" y="471" on="0"/>
        <pt x="70" y="505" on="1"/>
        <pt x="70" y="548" on="0"/>
        <pt x="102" y="620" on="0"/>
        <pt x="177" y="671" on="0"/>
        <pt x="300" y="700" on="0"/>
        <pt x="390" y="700" on="1"/>
        <pt x="655" y="700" on="1"/>
        <pt x="655" y="685" on="1"/>
        <pt x="595" y="670" on="1"/>
        <pt x="595" y="30" on="1"/>
        <pt x="655" y="15" on="1"/>
        <pt x="655" y="0" on="1"/>
        <pt x="360" y="0" on="1"/>
        <pt x="360" y="15" on="1"/>
        <pt x="430" y="30" on="1"/>
        <pt x="430" y="310" on="1"/>
        <pt x="360" y="310" on="1"/>
        <pt x="260" y="85" on="1"/>
        <pt x="243" y="47" on="0"/>
        <pt x="185" y="0" on="0"/>
        <pt x="140" y="0" on="1"/>
        <pt x="5" y="0" on="1"/>
        <pt x="5" y="15" on="1"/>
        <pt x="55" y="30" on="1"/>
        <pt x="145" y="230" on="1"/>
        <pt x="160" y="264" on="0"/>
        <pt x="211" y="301" on="0"/>
        <pt x="237" y="309" on="1"/>
        <pt x="267" y="319" on="0"/>
        <pt x="300" y="320" on="1"/>
      </contour>
      <contour>
        <pt x="430" y="335" on="1"/>
        <pt x="430" y="675" on="1"/>
        <pt x="390" y="675" on="1"/>
        <pt x="322" y="675" on="0"/>
        <pt x="240" y="588" on="0"/>
        <pt x="240" y="505" on="1"/>
        <pt x="240" y="422" on="0"/>
        <pt x="322" y="335" on="0"/>
        <pt x="390" y="335" on="1"/>
      </contour>
    </TTGlyph>
    <TTGlyph name="afii10050" xMin="50" yMin="0" xMax="585" yMax="855">
      <contour>
        <pt x="275" y="675" on="1"/>
        <pt x="275" y="30" on="1"/>
        <pt x="335" y="15" on="1"/>
        <pt x="335" y="0" on="1"/>
        <pt x="50" y="0" on="1"/>
        <pt x="50" y="15" on="1"/>
        <pt x="110" y="30" on="1"/>
        <pt x="110" y="670" on="1"/>
        <pt x="50" y="685" on="1"/>
        <pt x="50" y="700" on="1"/>
        <pt x="490" y="700" on="1"/>
        <pt x="490" y="739" on="0"/>
        <pt x="510" y="797" on="0"/>
        <pt x="522" y="817" on="1"/>
        <pt x="536" y="840" on="0"/>
        <pt x="555" y="855" on="1"/>
        <pt x="585" y="855" on="1"/>
        <pt x="585" y="675" on="1"/>
      </contour>
    </TTGlyph>
    <TTGlyph name="afii10051" xMin="25" yMin="-30" xMax="730" yMax="700">
      <contour>
        <pt x="565" y="260" on="1"/>
        <pt x="565" y="343" on="0"/>
        <pt x="507" y="410" on="0"/>
        <pt x="450" y="410" on="1"/>
        <pt x="431" y="410" on="0"/>
        <pt x="398" y="400" on="0"/>
        <pt x="386" y="395" on="1"/>
        <pt x="372" y="388" on="0"/>
        <pt x="360" y="380" on="1"/>
        <pt x="360" y="30" on="1"/>
        <pt x="420" y="15" on="1"/>
        <pt x="420" y="0" on="1"/>
        <pt x="135" y="0" on="1"/>
        <pt x="135" y="15" on="1"/>
        <pt x="195" y="30" on="1"/>
        <pt x="195" y="675" on="1"/>
        <pt x="120" y="675" on="1"/>
        <pt x="120" y="635" on="0"/>
        <pt x="99" y="578" on="0"/>
        <pt x="87" y="558" on="1"/>
        <pt x="73" y="535" on="0"/>
        <pt x="55" y="520" on="1"/>
        <pt x="25" y="520" on="1"/>
        <pt x="25" y="700" on="1"/>
        <pt x="540" y="700" on="1"/>
        <pt x="540" y="520" on="1"/>
        <pt x="510" y="520" on="1"/>
        <pt x="491" y="535" on="0"/>
        <pt x="477" y="558" on="1"/>
        <pt x="465" y="578" on="0"/>
        <pt x="445" y="635" on="0"/>
        <pt x="445" y="675" on="1"/>
        <pt x="360" y="675" on="1"/>
        <pt x="360" y="405" on="1"/>
        <pt x="375" y="413" on="0"/>
        <pt x="395" y="420" on="1"/>
        <pt x="412" y="425" on="0"/>
        <pt x="460" y="435" on="0"/>
        <pt x="490" y="435" on="1"/>
        <pt x="617" y="435" on="0"/>
        <pt x="730" y="339" on="0"/>
        <pt x="730" y="260" on="1"/>
        <pt x="730" y="90" on="1"/>
        <pt x="730" y="64" on="0"/>
        <pt x="709" y="20" on="0"/>
        <pt x="657" y="-12" on="0"/>
        <pt x="571" y="-30" on="0"/>
        <pt x="505" y="-30" on="1"/>
        <pt x="505" y="-10" on="1"/>
        <pt x="528" y="-10" on="0"/>
        <pt x="565" y="37" on="0"/>
        <pt x="565" y="90" on="1"/>
      </contour>
    </TTGlyph>
    <TTGlyph name="afii10052" xMin="50" yMin="0" xMax="585" yMax="904">
      <component glyphName=".ttfautohint" x="50" y="0" flags="0x0"/>
      <component glyphName="afii10020" x="0" y="0" flags="0x204"/>
      <component glyphName="acute" x="270" y="204" flags="0x4"/>
    </TTGlyph>
    <TTGlyph name="afii10053" xMin="45" yMin="-15" xMax="615" yMax="715">
      <contour>
        <pt x="361" y="715" on="1"/>
        <pt x="396" y="715" on="0"/>
        <pt x="455" y="694" on="0"/>
        <pt x="476" y="682" on="1"/>
        <pt x="501" y="668" on="0"/>
        <pt x="520" y="650" on="1"/>
        <pt x="528" y="663" on="0"/>
        <pt x="547" y="684" on="0"/>
        <pt x="555" y="691" on="1"/>
        <pt x="565" y="699" on="0"/>
        <pt x="575" y="705" on="1"/>
        <pt x="600" y="705" on="1"/>
        <pt x="600" y="515" on="1"/>
        <pt x="560" y="515" on="1"/>
        <pt x="546" y="563" on="0"/>
        <pt x="521" y="602" on="1"/>
        <pt x="500" y="635" on="0"/>
        <pt x="430" y="690" on="0"/>
        <pt x="380" y="690" on="1"/>
        <pt x="350" y="690" on="0"/>
        <pt x="292" y="657" on="0"/>
        <pt x="247" y="580" on="0"/>
        <pt x="220" y="454" on="0"/>
        <pt x="220" y="360" on="1"/>
        <pt x="350" y="360" on="1"/>
        <pt x="354" y="380" on="0"/>
        <pt x="368" y="417" on="0"/>
        <pt x="376" y="431" on="1"/>
        <pt x="385" y="447" on="0"/>
        <pt x="395" y="460" on="1"/>
        <pt x="425" y="460" on="1"/>
        <pt x="425" y="235" on="1"/>
        <pt x="395" y="235" on="1"/>
        <pt x="385" y="248" on="0"/>
        <pt x="376" y="264" on="1"/>
        <pt x="368" y="278" on="0"/>
        <pt x="354" y="314" on="0"/>
        <pt x="350" y="335" on="1"/>
        <pt x="220" y="335" on="1"/>
        <pt x="222" y="241" on="0"/>
        <pt x="251" y="116" on="0"/>
        <pt x="299" y="41" on="0"/>
        <pt x="366" y="10" on="0"/>
        <pt x="405" y="10" on="1"/>
        <pt x="441" y="10" on="0"/>
        <pt x="507" y="41" on="0"/>
        <pt x="559" y="94" on="0"/>
        <pt x="590" y="162" on="0"/>
        <pt x="590" y="200" on="1"/>
        <pt x="615" y="200" on="1"/>
        <pt x="615" y="157" on="0"/>
        <pt x="580" y="79" on="0"/>
        <pt x="518" y="20" on="0"/>
        <pt x="434" y="-15" on="0"/>
        <pt x="385" y="-15" on="1"/>
        <pt x="306" y="-15" on="0"/>
        <pt x="180" y="33" on="0"/>
        <pt x="92" y="126" on="0"/>
        <pt x="45" y="262" on="0"/>
        <pt x="45" y="350" on="1"/>
        <pt x="45" y="438" on="0"/>
        <pt x="91" y="574" on="0"/>
        <pt x="175" y="667" on="0"/>
        <pt x="291" y="715" on="0"/>
      </contour>
    </TTGlyph>
    <TTGlyph name="afii10054" xMin="35" yMin="-15" xMax="570" yMax="715">
      <contour>
        <pt x="275" y="10" on="1"/>
        <pt x="332" y="10" on="0"/>
        <pt x="400" y="78" on="0"/>
        <pt x="400" y="135" on="1"/>
        <pt x="400" y="174" on="0"/>
        <pt x="347" y="231" on="0"/>
        <pt x="269" y="281" on="0"/>
        <pt x="176" y="331" on="0"/>
        <pt x="98" y="395" on="0"/>
        <pt x="45" y="480" on="0"/>
        <pt x="45" y="540" on="1"/>
        <pt x="45" y="576" on="0"/>
        <pt x="75" y="639" on="0"/>
        <pt x="136" y="687" on="0"/>
        <pt x="228" y="715" on="0"/>
        <pt x="290" y="715" on="1"/>
        <pt x="325" y="715" on="0"/>
        <pt x="385" y="694" on="0"/>
        <pt x="406" y="682" on="1"/>
        <pt x="431" y="668" on="0"/>
        <pt x="450" y="650" on="1"/>
        <pt x="458" y="663" on="0"/>
        <pt x="477" y="684" on="0"/>
        <pt x="485" y="691" on="1"/>
        <pt x="495" y="699" on="0"/>
        <pt x="505" y="705" on="1"/>
        <pt x="530" y="705" on="1"/>
        <pt x="530" y="515" on="1"/>
        <pt x="490" y="515" on="1"/>
        <pt x="476" y="563" on="0"/>
        <pt x="451" y="602" on="1"/>
        <pt x="430" y="635" on="0"/>
        <pt x="360" y="690" on="0"/>
        <pt x="310" y="690" on="1"/>
        <pt x="291" y="690" on="0"/>
        <pt x="257" y="674" on="0"/>
        <pt x="231" y="645" on="0"/>
        <pt x="215" y="604" on="0"/>
        <pt x="215" y="580" on="1"/>
        <pt x="215" y="537" on="0"/>
        <pt x="268" y="476" on="0"/>
        <pt x="346" y="424" on="0"/>
        <pt x="439" y="374" on="0"/>
        <pt x="517" y="313" on="0"/>
        <pt x="570" y="235" on="0"/>
        <pt x="570" y="180" on="1"/>
        <pt x="570" y="141" on="0"/>
        <pt x="536" y="70" on="0"/>
        <pt x="468" y="16" on="0"/>
        <pt x="364" y="-15" on="0"/>
        <pt x="295" y="-15" on="1"/>
        <pt x="251" y="-15" on="0"/>
        <pt x="185" y="5" on="0"/>
        <pt x="162" y="17" on="1"/>
        <pt x="135" y="31" on="0"/>
        <pt x="115" y="50" on="1"/>
        <pt x="107" y="36" on="0"/>
        <pt x="88" y="16" on="0"/>
        <pt x="80" y="9" on="1"/>
        <pt x="70" y="1" on="0"/>
        <pt x="60" y="-5" on="1"/>
        <pt x="35" y="-5" on="1"/>
        <pt x="35" y="185" on="1"/>
        <pt x="75" y="185" on="1"/>
        <pt x="90" y="136" on="0"/>
        <pt x="117" y="97" on="1"/>
        <pt x="129" y="80" on="0"/>
        <pt x="159" y="49" on="0"/>
        <pt x="198" y="25" on="0"/>
        <pt x="246" y="10" on="0"/>
      </contour>
    </TTGlyph>
    <TTGlyph name="afii10055" xMin="50" yMin="0" xMax="335" yMax="700">
      <contour>
        <pt x="50" y="685" on="1"/>
        <pt x="50" y="700" on="1"/>
        <pt x="335" y="700" on="1"/>
        <pt x="335" y="685" on="1"/>
        <pt x="275" y="670" on="1"/>
        <pt x="275" y="30" on="1"/>
        <pt x="335" y="15" on="1"/>
        <pt x="335" y="0" on="1"/>
        <pt x="50" y="0" on="1"/>
        <pt x="50" y="15" on="1"/>
        <pt x="110" y="30" on="1"/>
        <pt x="110" y="670" on="1"/>
      </contour>
    </TTGlyph>
    <TTGlyph name="afii10056" xMin="30" yMin="0" xMax="355" yMax="914">
      <component glyphName=".ttfautohint" x="30" y="0" flags="0x0"/>
      <component glyphName="afii10055" x="0" y="0" flags="0x204"/>
      <component glyphName="dieresis" x="10" y="214" flags="0x4"/>
    </TTGlyph>
    <TTGlyph name="afii10057" xMin="0" yMin="-15" xMax="510" yMax="700">
      <contour>
        <pt x="165" y="5" on="1"/>
        <pt x="191" y="5" on="0"/>
        <pt x="235" y="25" on="0"/>
        <pt x="267" y="71" on="0"/>
        <pt x="285" y="146" on="0"/>
        <pt x="285" y="200" on="1"/>
        <pt x="285" y="670" on="1"/>
        <pt x="225" y="685" on="1"/>
        <pt x="225" y="700" on="1"/>
        <pt x="510" y="700" on="1"/>
        <pt x="510" y="685" on="1"/>
        <pt x="450" y="670" on="1"/>
        <pt x="450" y="200" on="1"/>
        <pt x="450" y="99" on="0"/>
        <pt x="324" y="-15" on="0"/>
        <pt x="185" y="-15" on="1"/>
        <pt x="136" y="-15" on="0"/>
        <pt x="66" y="4" on="0"/>
        <pt x="21" y="35" on="0"/>
        <pt x="0" y="74" on="0"/>
        <pt x="0" y="95" on="1"/>
        <pt x="0" y="129" on="0"/>
        <pt x="41" y="170" on="0"/>
        <pt x="75" y="170" on="1"/>
        <pt x="83" y="170" on="0"/>
        <pt x="96" y="168" on="0"/>
        <pt x="102" y="167" on="1"/>
        <pt x="108" y="166" on="0"/>
        <pt x="115" y="165" on="1"/>
        <pt x="115" y="15" on="1"/>
        <pt x="121" y="12" on="0"/>
        <pt x="129" y="10" on="1"/>
        <pt x="144" y="5" on="0"/>
      </contour>
    </TTGlyph>
    <TTGlyph name="afii10058" xMin="-10" yMin="-15" xMax="975" yMax="700">
      <contour>
        <pt x="90" y="-15" on="1"/>
        <pt x="45" y="-15" on="0"/>
        <pt x="-10" y="37" on="0"/>
        <pt x="-10" y="75" on="1"/>
        <pt x="-10" y="113" on="0"/>
        <pt x="36" y="160" on="0"/>
        <pt x="70" y="160" on="1"/>
        <pt x="78" y="160" on="0"/>
        <pt x="91" y="158" on="0"/>
        <pt x="97" y="157" on="1"/>
        <pt x="103" y="156" on="0"/>
        <pt x="110" y="155" on="1"/>
        <pt x="110" y="15" on="1"/>
        <pt x="123" y="19" on="0"/>
        <pt x="150" y="41" on="0"/>
        <pt x="174" y="93" on="0"/>
        <pt x="192" y="181" on="0"/>
        <pt x="195" y="250" on="1"/>
        <pt x="215" y="665" on="1"/>
        <pt x="145" y="685" on="1"/>
        <pt x="145" y="700" on="1"/>
        <pt x="660" y="700" on="1"/>
        <pt x="660" y="685" on="1"/>
        <pt x="600" y="670" on="1"/>
        <pt x="600" y="420" on="1"/>
        <pt x="665" y="420" on="1"/>
        <pt x="751" y="420" on="0"/>
        <pt x="870" y="391" on="0"/>
        <pt x="943" y="337" on="0"/>
        <pt x="975" y="259" on="0"/>
        <pt x="975" y="210" on="1"/>
        <pt x="975" y="161" on="0"/>
        <pt x="943" y="83" on="0"/>
        <pt x="870" y="29" on="0"/>
        <pt x="751" y="0" on="0"/>
        <pt x="665" y="0" on="1"/>
        <pt x="375" y="0" on="1"/>
        <pt x="375" y="15" on="1"/>
        <pt x="435" y="30" on="1"/>
        <pt x="435" y="675" on="1"/>
        <pt x="245" y="675" on="1"/>
        <pt x="225" y="250" on="1"/>
        <pt x="221" y="173" on="0"/>
        <pt x="196" y="71" on="0"/>
        <pt x="160" y="10" on="0"/>
        <pt x="114" y="-15" on="0"/>
      </contour>
      <contour>
        <pt x="600" y="395" on="1"/>
        <pt x="600" y="25" on="1"/>
        <pt x="665" y="25" on="1"/>
        <pt x="725" y="25" on="0"/>
        <pt x="805" y="116" on="0"/>
        <pt x="805" y="210" on="1"/>
        <pt x="805" y="304" on="0"/>
        <pt x="725" y="395" on="0"/>
        <pt x="665" y="395" on="1"/>
      </contour>
    </TTGlyph>
    <TTGlyph name="afii10059" xMin="50" yMin="0" xMax="1030" yMax="700">
      <contour>
        <pt x="720" y="400" on="1"/>
        <pt x="806" y="400" on="0"/>
        <pt x="925" y="371" on="0"/>
        <pt x="998" y="319" on="0"/>
        <pt x="1030" y="245" on="0"/>
        <pt x="1030" y="200" on="1"/>
        <pt x="1030" y="155" on="0"/>
        <pt x="998" y="81" on="0"/>
        <pt x="925" y="29" on="0"/>
        <pt x="806" y="0" on="0"/>
        <pt x="720" y="0" on="1"/>
        <pt x="430" y="0" on="1"/>
        <pt x="430" y="15" on="1"/>
        <pt x="490" y="30" on="1"/>
        <pt x="490" y="375" on="1"/>
        <pt x="275" y="375" on="1"/>
        <pt x="275" y="30" on="1"/>
        <pt x="335" y="15" on="1"/>
        <pt x="335" y="0" on="1"/>
        <pt x="50" y="0" on="1"/>
        <pt x="50" y="15" on="1"/>
        <pt x="110" y="30" on="1"/>
        <pt x="110" y="670" on="1"/>
        <pt x="50" y="685" on="1"/>
        <pt x="50" y="700" on="1"/>
        <pt x="335" y="700" on="1"/>
        <pt x="335" y="685" on="1"/>
        <pt x="275" y="670" on="1"/>
        <pt x="275" y="400" on="1"/>
        <pt x="490" y="400" on="1"/>
        <pt x="490" y="670" on="1"/>
        <pt x="430" y="685" on="1"/>
        <pt x="430" y="700" on="1"/>
        <pt x="715" y="700" on="1"/>
        <pt x="715" y="685" on="1"/>
        <pt x="655" y="670" on="1"/>
        <pt x="655" y="400" on="1"/>
      </contour>
      <contour>
        <pt x="655" y="375" on="1"/>
        <pt x="655" y="25" on="1"/>
        <pt x="720" y="25" on="1"/>
        <pt x="780" y="25" on="0"/>
        <pt x="860" y="113" on="0"/>
        <pt x="860" y="200" on="1"/>
        <pt x="860" y="287" on="0"/>
        <pt x="780" y="375" on="0"/>
        <pt x="720" y="375" on="1"/>
      </contour>
    </TTGlyph>
    <TTGlyph name="afii10060" xMin="25" yMin="0" xMax="790" yMax="700">
      <contour>
        <pt x="360" y="30" on="1"/>
        <pt x="420" y="15" on="1"/>
        <pt x="420" y="0" on="1"/>
        <pt x="135" y="0" on="1"/>
        <pt x="135" y="15" on="1"/>
        <pt x="195" y="30" on="1"/>
        <pt x="195" y="675" on="1"/>
        <pt x="120" y="675" on="1"/>
        <pt x="120" y="635" on="0"/>
        <pt x="99" y="578" on="0"/>
        <pt x="87" y="558" on="1"/>
        <pt x="73" y="535" on="0"/>
        <pt x="55" y="520" on="1"/>
        <pt x="25" y="520" on="1"/>
        <pt x="25" y="700" on="1"/>
        <pt x="540" y="700" on="1"/>
        <pt x="540" y="520" on="1"/>
        <pt x="510" y="520" on="1"/>
        <pt x="491" y="535" on="0"/>
        <pt x="477" y="558" on="1"/>
        <pt x="465" y="578" on="0"/>
        <pt x="445" y="635" on="0"/>
        <pt x="445" y="675" on="1"/>
        <pt x="360" y="675" on="1"/>
        <pt x="360" y="405" on="1"/>
        <pt x="375" y="413" on="0"/>
        <pt x="395" y="420" on="1"/>
        <pt x="412" y="425" on="0"/>
        <pt x="460" y="435" on="0"/>
        <pt x="490" y="435" on="1"/>
        <pt x="617" y="435" on="0"/>
        <pt x="730" y="339" on="0"/>
        <pt x="730" y="260" on="1"/>
        <pt x="730" y="30" on="1"/>
        <pt x="790" y="15" on="1"/>
        <pt x="790" y="0" on="1"/>
        <pt x="505" y="0" on="1"/>
        <pt x="505" y="15" on="1"/>
        <pt x="565" y="30" on="1"/>
        <pt x="565" y="260" on="1"/>
        <pt x="565" y="343" on="0"/>
        <pt x="507" y="410" on="0"/>
        <pt x="450" y="410" on="1"/>
        <pt x="431" y="410" on="0"/>
        <pt x="398" y="400" on="0"/>
        <pt x="386" y="395" on="1"/>
        <pt x="372" y="388" on="0"/>
        <pt x="360" y="380" on="1"/>
      </contour>
    </TTGlyph>
    <TTGlyph name="afii10061" xMin="50" yMin="0" xMax="705" yMax="884">
      <component glyphName=".ttfautohint" x="50" y="0" flags="0x0"/>
      <component glyphName="afii10028" x="0" y="0" flags="0x204"/>
      <component glyphName="acute" x="310" y="184" flags="0x4"/>
    </TTGlyph>
    <TTGlyph name="afii10062" xMin="-10" yMin="-15" xMax="680" yMax="889">
      <component glyphName=".ttfautohint" x="0" y="0" flags="0x0"/>
      <component glyphName="afii10037" x="0" y="0" flags="0x204"/>
      <component glyphName="breve" x="190" y="194" flags="0x4"/>
    </TTGlyph>
    <TTGlyph name="afii10065" xMin="50" yMin="-15" xMax="585" yMax="515">
      <contour>
        <pt x="235" y="235" on="1"/>
        <pt x="229" y="222" on="0"/>
        <pt x="225" y="205" on="1"/>
        <pt x="221" y="191" on="0"/>
        <pt x="215" y="153" on="0"/>
        <pt x="215" y="130" on="1"/>
        <pt x="215" y="70" on="0"/>
        <pt x="252" y="20" on="0"/>
        <pt x="275" y="20" on="1"/>
        <pt x="298" y="20" on="0"/>
        <pt x="331" y="45" on="0"/>
        <pt x="342" y="60" on="1"/>
        <pt x="355" y="78" on="0"/>
        <pt x="365" y="100" on="1"/>
        <pt x="365" y="245" on="1"/>
        <pt x="342" y="245" on="0"/>
        <pt x="296" y="242" on="0"/>
        <pt x="277" y="240" on="1"/>
        <pt x="255" y="237" on="0"/>
      </contour>
      <contour>
        <pt x="275" y="515" on="1"/>
        <pt x="335" y="515" on="0"/>
        <pt x="428" y="483" on="0"/>
        <pt x="492" y="426" on="0"/>
        <pt x="525" y="347" on="0"/>
        <pt x="525" y="300" on="1"/>
        <pt x="525" y="30" on="1"/>
        <pt x="585" y="15" on="1"/>
        <pt x="585" y="0" on="1"/>
        <pt x="495" y="0" on="1"/>
        <pt x="459" y="0" on="0"/>
        <pt x="415" y="23" on="0"/>
        <pt x="402" y="37" on="1"/>
        <pt x="387" y="54" on="0"/>
        <pt x="380" y="75" on="1"/>
        <pt x="367" y="49" on="0"/>
        <pt x="347" y="30" on="1"/>
        <pt x="330" y="13" on="0"/>
        <pt x="274" y="-15" on="0"/>
        <pt x="235" y="-15" on="1"/>
        <pt x="188" y="-15" on="0"/>
        <pt x="119" y="6" on="0"/>
        <pt x="73" y="43" on="0"/>
        <pt x="50" y="92" on="0"/>
        <pt x="50" y="120" on="1"/>
        <pt x="50" y="143" on="0"/>
        <pt x="60" y="182" on="0"/>
        <pt x="67" y="197" on="1"/>
        <pt x="75" y="215" on="0"/>
        <pt x="85" y="230" on="1"/>
        <pt x="127" y="240" on="0"/>
        <pt x="174" y="248" on="1"/>
        <pt x="214" y="255" on="0"/>
        <pt x="314" y="268" on="0"/>
        <pt x="365" y="270" on="1"/>
        <pt x="365" y="300" on="1"/>
        <pt x="365" y="358" on="0"/>
        <pt x="350" y="434" on="0"/>
        <pt x="322" y="478" on="0"/>
        <pt x="281" y="495" on="0"/>
        <pt x="255" y="495" on="1"/>
        <pt x="244" y="495" on="0"/>
        <pt x="226" y="492" on="0"/>
        <pt x="219" y="490" on="1"/>
        <pt x="211" y="487" on="0"/>
        <pt x="205" y="485" on="1"/>
        <pt x="205" y="335" on="1"/>
        <pt x="198" y="333" on="0"/>
        <pt x="192" y="332" on="1"/>
        <pt x="186" y="331" on="0"/>
        <pt x="173" y="330" on="0"/>
        <pt x="165" y="330" on="1"/>
        <pt x="131" y="330" on="0"/>
        <pt x="90" y="371" on="0"/>
        <pt x="90" y="405" on="1"/>
        <pt x="90" y="426" on="0"/>
        <pt x="111" y="465" on="0"/>
        <pt x="156" y="496" on="0"/>
        <pt x="226" y="515" on="0"/>
      </contour>
    </TTGlyph>
    <TTGlyph name="afii10066" xMin="50" yMin="-15" xMax="560" yMax="750">
      <contour>
        <pt x="305" y="435" on="1"/>
        <pt x="290" y="435" on="0"/>
        <pt x="260" y="416" on="0"/>
        <pt x="235" y="367" on="0"/>
        <pt x="220" y="284" on="0"/>
        <pt x="220" y="220" on="1"/>
        <pt x="220" y="156" on="0"/>
        <pt x="235" y="73" on="0"/>
        <pt x="260" y="24" on="0"/>
        <pt x="290" y="5" on="0"/>
        <pt x="305" y="5" on="1"/>
        <pt x="320" y="5" on="0"/>
        <pt x="350" y="24" on="0"/>
        <pt x="375" y="73" on="0"/>
        <pt x="390" y="156" on="0"/>
        <pt x="390" y="220" on="1"/>
        <pt x="390" y="284" on="0"/>
        <pt x="375" y="367" on="0"/>
        <pt x="350" y="416" on="0"/>
        <pt x="320" y="435" on="0"/>
      </contour>
      <contour>
        <pt x="85" y="300" on="1"/>
        <pt x="92" y="326" on="0"/>
        <pt x="129" y="381" on="0"/>
        <pt x="186" y="426" on="0"/>
        <pt x="260" y="455" on="0"/>
        <pt x="305" y="455" on="1"/>
        <pt x="430" y="455" on="0"/>
        <pt x="560" y="329" on="0"/>
        <pt x="560" y="220" on="1"/>
        <pt x="560" y="111" on="0"/>
        <pt x="430" y="-15" on="0"/>
        <pt x="305" y="-15" on="1"/>
        <pt x="180" y="-15" on="0"/>
        <pt x="50" y="115" on="0"/>
        <pt x="50" y="240" on="1"/>
        <pt x="50" y="300" on="1"/>
        <pt x="50" y="394" on="0"/>
        <pt x="82" y="523" on="0"/>
        <pt x="141" y="607" on="0"/>
        <pt x="224" y="651" on="0"/>
        <pt x="275" y="660" on="1"/>
        <pt x="505" y="700" on="1"/>
        <pt x="520" y="750" on="1"/>
        <pt x="535" y="750" on="1"/>
        <pt x="535" y="660" on="1"/>
        <pt x="535" y="615" on="0"/>
        <pt x="492" y="568" on="0"/>
        <pt x="450" y="560" on="1"/>
        <pt x="220" y="520" on="1"/>
        <pt x="196" y="516" on="0"/>
        <pt x="147" y="485" on="0"/>
        <pt x="109" y="431" on="0"/>
        <pt x="85" y="352" on="0"/>
      </contour>
    </TTGlyph>
    <TTGlyph name="afii10067" xMin="40" yMin="0" xMax="575" yMax="500">
      <contour>
        <pt x="365" y="255" on="1"/>
        <pt x="423" y="253" on="0"/>
        <pt x="470" y="240" on="1"/>
        <pt x="489" y="234" on="0"/>
        <pt x="527" y="217" on="0"/>
        <pt x="557" y="192" on="0"/>
        <pt x="575" y="157" on="0"/>
        <pt x="575" y="135" on="1"/>
        <pt x="575" y="109" on="0"/>
        <pt x="549" y="60" on="0"/>
        <pt x="488" y="22" on="0"/>
        <pt x="388" y="0" on="0"/>
        <pt x="315" y="0" on="1"/>
        <pt x="40" y="0" on="1"/>
        <pt x="40" y="15" on="1"/>
        <pt x="100" y="30" on="1"/>
        <pt x="100" y="470" on="1"/>
        <pt x="40" y="485" on="1"/>
        <pt x="40" y="500" on="1"/>
        <pt x="295" y="500" on="1"/>
        <pt x="364" y="500" on="0"/>
        <pt x="460" y="478" on="0"/>
        <pt x="519" y="442" on="0"/>
        <pt x="545" y="397" on="0"/>
        <pt x="545" y="375" on="1"/>
        <pt x="545" y="353" on="0"/>
        <pt x="530" y="320" on="0"/>
        <pt x="504" y="296" on="0"/>
        <pt x="472" y="279" on="0"/>
        <pt x="455" y="274" on="1"/>
        <pt x="415" y="262" on="0"/>
        <pt x="365" y="260" on="1"/>
      </contour>
      <contour>
        <pt x="260" y="245" on="1"/>
        <pt x="260" y="25" on="1"/>
        <pt x="315" y="25" on="1"/>
        <pt x="357" y="25" on="0"/>
        <pt x="410" y="82" on="0"/>
        <pt x="410" y="135" on="1"/>
        <pt x="410" y="188" on="0"/>
        <pt x="357" y="245" on="0"/>
        <pt x="315" y="245" on="1"/>
      </contour>
      <contour>
        <pt x="260" y="475" on="1"/>
        <pt x="260" y="270" on="1"/>
        <pt x="295" y="270" on="1"/>
        <pt x="328" y="270" on="0"/>
        <pt x="380" y="326" on="0"/>
        <pt x="380" y="375" on="1"/>
        <pt x="380" y="420" on="0"/>
        <pt x="329" y="475" on="0"/>
        <pt x="295" y="475" on="1"/>
      </contour>
    </TTGlyph>
    <TTGlyph name="afii10068" xMin="40" yMin="0" xMax="505" yMax="500">
      <contour>
        <pt x="40" y="485" on="1"/>
        <pt x="40" y="500" on="1"/>
        <pt x="505" y="500" on="1"/>
        <pt x="505" y="325" on="1"/>
        <pt x="475" y="325" on="1"/>
        <pt x="456" y="341" on="0"/>
        <pt x="442" y="364" on="1"/>
        <pt x="430" y="384" on="0"/>
        <pt x="410" y="439" on="0"/>
        <pt x="410" y="475" on="1"/>
        <pt x="260" y="475" on="1"/>
        <pt x="260" y="30" on="1"/>
        <pt x="320" y="15" on="1"/>
        <pt x="320" y="0" on="1"/>
        <pt x="40" y="0" on="1"/>
        <pt x="40" y="15" on="1"/>
        <pt x="100" y="30" on="1"/>
        <pt x="100" y="470" on="1"/>
      </contour>
    </TTGlyph>
    <TTGlyph name="afii10069" xMin="-10" yMin="-165" xMax="600" yMax="500">
      <contour>
        <pt x="350" y="25" on="1"/>
        <pt x="350" y="475" on="1"/>
        <pt x="195" y="475" on="1"/>
        <pt x="175" y="170" on="1"/>
        <pt x="172" y="132" on="0"/>
        <pt x="150" y="78" on="0"/>
        <pt x="137" y="60" on="1"/>
        <pt x="122" y="39" on="0"/>
        <pt x="105" y="25" on="1"/>
      </contour>
      <contour>
        <pt x="570" y="500" on="1"/>
        <pt x="570" y="485" on="1"/>
        <pt x="510" y="470" on="1"/>
        <pt x="510" y="25" on="1"/>
        <pt x="600" y="25" on="1"/>
        <pt x="600" y="-165" on="1"/>
        <pt x="570" y="-165" on="1"/>
        <pt x="545" y="-149" on="0"/>
        <pt x="527" y="-124" on="1"/>
        <pt x="511" y="-104" on="0"/>
        <pt x="485" y="-42" on="0"/>
        <pt x="485" y="0" on="1"/>
        <pt x="105" y="0" on="1"/>
        <pt x="105" y="-42" on="0"/>
        <pt x="78" y="-104" on="0"/>
        <pt x="62" y="-124" on="1"/>
        <pt x="44" y="-149" on="0"/>
        <pt x="20" y="-165" on="1"/>
        <pt x="-10" y="-165" on="1"/>
        <pt x="-10" y="25" on="1"/>
        <pt x="70" y="25" on="1"/>
        <pt x="89" y="39" on="0"/>
        <pt x="105" y="60" on="1"/>
        <pt x="119" y="78" on="0"/>
        <pt x="142" y="132" on="0"/>
        <pt x="145" y="170" on="1"/>
        <pt x="165" y="465" on="1"/>
        <pt x="95" y="485" on="1"/>
        <pt x="95" y="500" on="1"/>
      </contour>
    </TTGlyph>
    <TTGlyph name="afii10070" xMin="40" yMin="-15" xMax="525" yMax="515">
      <contour>
        <pt x="210" y="250" on="1"/>
        <pt x="244" y="250" on="0"/>
        <pt x="296" y="253" on="0"/>
        <pt x="314" y="255" on="1"/>
        <pt x="335" y="257" on="0"/>
        <pt x="350" y="260" on="1"/>
        <pt x="352" y="270" on="0"/>
        <pt x="355" y="282" on="1"/>
        <pt x="357" y="293" on="0"/>
        <pt x="360" y="320" on="0"/>
        <pt x="360" y="335" on="1"/>
        <pt x="360" y="380" on="0"/>
        <pt x="346" y="441" on="0"/>
        <pt x="325" y="479" on="0"/>
        <pt x="298" y="495" on="0"/>
        <pt x="285" y="495" on="1"/>
        <pt x="272" y="495" on="0"/>
        <pt x="245" y="476" on="0"/>
        <pt x="224" y="423" on="0"/>
        <pt x="210" y="327" on="0"/>
      </contour>
      <contour>
        <pt x="310" y="-15" on="1"/>
        <pt x="182" y="-15" on="0"/>
        <pt x="40" y="126" on="0"/>
        <pt x="40" y="250" on="1"/>
        <pt x="40" y="312" on="0"/>
        <pt x="76" y="410" on="0"/>
        <pt x="140" y="479" on="0"/>
        <pt x="231" y="515" on="0"/>
        <pt x="285" y="515" on="1"/>
        <pt x="341" y="515" on="0"/>
        <pt x="430" y="483" on="0"/>
        <pt x="492" y="429" on="0"/>
        <pt x="525" y="356" on="0"/>
        <pt x="525" y="315" on="1"/>
        <pt x="525" y="301" on="0"/>
        <pt x="522" y="280" on="0"/>
        <pt x="520" y="272" on="1"/>
        <pt x="517" y="262" on="0"/>
        <pt x="515" y="255" on="1"/>
        <pt x="471" y="246" on="0"/>
        <pt x="422" y="240" on="1"/>
        <pt x="380" y="234" on="0"/>
        <pt x="270" y="225" on="0"/>
        <pt x="210" y="225" on="1"/>
        <pt x="210" y="163" on="0"/>
        <pt x="228" y="80" on="0"/>
        <pt x="260" y="31" on="0"/>
        <pt x="304" y="10" on="0"/>
        <pt x="330" y="10" on="1"/>
        <pt x="360" y="10" on="0"/>
        <pt x="413" y="32" on="0"/>
        <pt x="452" y="69" on="0"/>
        <pt x="475" y="116" on="0"/>
        <pt x="475" y="140" on="1"/>
        <pt x="500" y="140" on="1"/>
        <pt x="500" y="110" on="0"/>
        <pt x="473" y="54" on="0"/>
        <pt x="423" y="11" on="0"/>
        <pt x="353" y="-15" on="0"/>
      </contour>
    </TTGlyph>
    <TTGlyph name="afii10071" xMin="40" yMin="-15" xMax="525" yMax="720">
      <contour>
        <pt x="120" y="650" on="1"/>
        <pt x="120" y="680" on="0"/>
        <pt x="160" y="720" on="0"/>
        <pt x="190" y="720" on="1"/>
        <pt x="220" y="720" on="0"/>
        <pt x="260" y="680" on="0"/>
        <pt x="260" y="650" on="1"/>
        <pt x="260" y="620" on="0"/>
        <pt x="220" y="580" on="0"/>
        <pt x="190" y="580" on="1"/>
        <pt x="160" y="580" on="0"/>
        <pt x="120" y="620" on="0"/>
      </contour>
      <contour>
        <pt x="305" y="650" on="1"/>
        <pt x="305" y="680" on="0"/>
        <pt x="345" y="720" on="0"/>
        <pt x="375" y="720" on="1"/>
        <pt x="405" y="720" on="0"/>
        <pt x="445" y="680" on="0"/>
        <pt x="445" y="650" on="1"/>
        <pt x="445" y="620" on="0"/>
        <pt x="405" y="580" on="0"/>
        <pt x="375" y="580" on="1"/>
        <pt x="345" y="580" on="0"/>
        <pt x="305" y="620" on="0"/>
      </contour>
      <contour>
        <pt x="210" y="250" on="1"/>
        <pt x="244" y="250" on="0"/>
        <pt x="296" y="253" on="0"/>
        <pt x="314" y="255" on="1"/>
        <pt x="335" y="257" on="0"/>
        <pt x="350" y="260" on="1"/>
        <pt x="352" y="270" on="0"/>
        <pt x="355" y="282" on="1"/>
        <pt x="357" y="293" on="0"/>
        <pt x="360" y="320" on="0"/>
        <pt x="360" y="335" on="1"/>
        <pt x="360" y="380" on="0"/>
        <pt x="346" y="441" on="0"/>
        <pt x="325" y="479" on="0"/>
        <pt x="298" y="495" on="0"/>
        <pt x="285" y="495" on="1"/>
        <pt x="272" y="495" on="0"/>
        <pt x="245" y="476" on="0"/>
        <pt x="224" y="423" on="0"/>
        <pt x="210" y="327" on="0"/>
      </contour>
      <contour>
        <pt x="310" y="-15" on="1"/>
        <pt x="182" y="-15" on="0"/>
        <pt x="40" y="126" on="0"/>
        <pt x="40" y="250" on="1"/>
        <pt x="40" y="312" on="0"/>
        <pt x="76" y="410" on="0"/>
        <pt x="140" y="479" on="0"/>
        <pt x="231" y="515" on="0"/>
        <pt x="285" y="515" on="1"/>
        <pt x="341" y="515" on="0"/>
        <pt x="430" y="483" on="0"/>
        <pt x="492" y="429" on="0"/>
        <pt x="525" y="356" on="0"/>
        <pt x="525" y="315" on="1"/>
        <pt x="525" y="301" on="0"/>
        <pt x="522" y="280" on="0"/>
        <pt x="520" y="272" on="1"/>
        <pt x="517" y="262" on="0"/>
        <pt x="515" y="255" on="1"/>
        <pt x="471" y="246" on="0"/>
        <pt x="422" y="240" on="1"/>
        <pt x="380" y="234" on="0"/>
        <pt x="270" y="225" on="0"/>
        <pt x="210" y="225" on="1"/>
        <pt x="210" y="163" on="0"/>
        <pt x="228" y="80" on="0"/>
        <pt x="260" y="31" on="0"/>
        <pt x="304" y="10" on="0"/>
        <pt x="330" y="10" on="1"/>
        <pt x="360" y="10" on="0"/>
        <pt x="413" y="32" on="0"/>
        <pt x="452" y="69" on="0"/>
        <pt x="475" y="116" on="0"/>
        <pt x="475" y="140" on="1"/>
        <pt x="500" y="140" on="1"/>
        <pt x="500" y="110" on="0"/>
        <pt x="473" y="54" on="0"/>
        <pt x="423" y="11" on="0"/>
        <pt x="353" y="-15" on="0"/>
      </contour>
    </TTGlyph>
    <TTGlyph name="afii10072" xMin="5" yMin="0" xMax="875" yMax="510">
      <contour>
        <pt x="635" y="270" on="1"/>
        <pt x="667" y="270" on="0"/>
        <pt x="714" y="256" on="0"/>
        <pt x="748" y="233" on="0"/>
        <pt x="769" y="202" on="0"/>
        <pt x="775" y="185" on="1"/>
        <pt x="825" y="30" on="1"/>
        <pt x="875" y="15" on="1"/>
        <pt x="875" y="0" on="1"/>
        <pt x="770" y="0" on="1"/>
        <pt x="714" y="0" on="0"/>
        <pt x="651" y="51" on="0"/>
        <pt x="640" y="85" on="1"/>
        <pt x="585" y="250" on="1"/>
        <pt x="520" y="250" on="1"/>
        <pt x="520" y="30" on="1"/>
        <pt x="580" y="15" on="1"/>
        <pt x="580" y="0" on="1"/>
        <pt x="300" y="0" on="1"/>
        <pt x="300" y="15" on="1"/>
        <pt x="360" y="30" on="1"/>
        <pt x="360" y="250" on="1"/>
        <pt x="295" y="250" on="1"/>
        <pt x="240" y="85" on="1"/>
        <pt x="229" y="51" on="0"/>
        <pt x="166" y="0" on="0"/>
        <pt x="110" y="0" on="1"/>
        <pt x="5" y="0" on="1"/>
        <pt x="5" y="15" on="1"/>
        <pt x="55" y="30" on="1"/>
        <pt x="105" y="185" on="1"/>
        <pt x="111" y="202" on="0"/>
        <pt x="132" y="233" on="0"/>
        <pt x="166" y="256" on="0"/>
        <pt x="213" y="270" on="0"/>
        <pt x="245" y="270" on="1"/>
        <pt x="275" y="270" on="1"/>
        <pt x="264" y="274" on="0"/>
        <pt x="253" y="284" on="1"/>
        <pt x="244" y="292" on="0"/>
        <pt x="225" y="319" on="0"/>
        <pt x="220" y="340" on="1"/>
        <pt x="195" y="430" on="1"/>
        <pt x="184" y="473" on="0"/>
        <pt x="155" y="480" on="1"/>
        <pt x="155" y="345" on="1"/>
        <pt x="148" y="343" on="0"/>
        <pt x="142" y="342" on="1"/>
        <pt x="136" y="341" on="0"/>
        <pt x="123" y="340" on="0"/>
        <pt x="115" y="340" on="1"/>
        <pt x="81" y="340" on="0"/>
        <pt x="40" y="382" on="0"/>
        <pt x="40" y="420" on="1"/>
        <pt x="40" y="462" on="0"/>
        <pt x="90" y="510" on="0"/>
        <pt x="135" y="510" on="1"/>
        <pt x="169" y="510" on="0"/>
        <pt x="214" y="468" on="0"/>
        <pt x="225" y="430" on="1"/>
        <pt x="250" y="340" on="1"/>
        <pt x="258" y="314" on="0"/>
        <pt x="295" y="275" on="0"/>
        <pt x="325" y="275" on="1"/>
        <pt x="360" y="275" on="1"/>
        <pt x="360" y="470" on="1"/>
        <pt x="300" y="485" on="1"/>
        <pt x="300" y="500" on="1"/>
        <pt x="580" y="500" on="1"/>
        <pt x="580" y="485" on="1"/>
        <pt x="520" y="470" on="1"/>
        <pt x="520" y="275" on="1"/>
        <pt x="550" y="275" on="1"/>
        <pt x="580" y="275" on="0"/>
        <pt x="622" y="314" on="0"/>
        <pt x="630" y="340" on="1"/>
        <pt x="655" y="430" on="1"/>
        <pt x="666" y="468" on="0"/>
        <pt x="711" y="510" on="0"/>
        <pt x="745" y="510" on="1"/>
        <pt x="790" y="510" on="0"/>
        <pt x="840" y="462" on="0"/>
        <pt x="840" y="420" on="1"/>
        <pt x="840" y="382" on="0"/>
        <pt x="799" y="340" on="0"/>
        <pt x="765" y="340" on="1"/>
        <pt x="757" y="340" on="0"/>
        <pt x="742" y="341" on="0"/>
        <pt x="737" y="342" on="1"/>
        <pt x="730" y="343" on="0"/>
        <pt x="725" y="345" on="1"/>
        <pt x="725" y="480" on="1"/>
        <pt x="696" y="473" on="0"/>
        <pt x="685" y="430" on="1"/>
        <pt x="660" y="340" on="1"/>
        <pt x="654" y="319" on="0"/>
        <pt x="636" y="292" on="0"/>
        <pt x="627" y="284" on="1"/>
        <pt x="616" y="274" on="0"/>
        <pt x="605" y="270" on="1"/>
      </contour>
    </TTGlyph>
    <TTGlyph name="afii10073" xMin="30" yMin="-15" xMax="500" yMax="515">
      <contour>
        <pt x="295" y="260" on="1"/>
        <pt x="352" y="258" on="0"/>
        <pt x="397" y="244" on="1"/>
        <pt x="416" y="238" on="0"/>
        <pt x="453" y="219" on="0"/>
        <pt x="482" y="192" on="0"/>
        <pt x="500" y="154" on="0"/>
        <pt x="500" y="130" on="1"/>
        <pt x="500" y="100" on="0"/>
        <pt x="474" y="47" on="0"/>
        <pt x="413" y="8" on="0"/>
        <pt x="313" y="-15" on="0"/>
        <pt x="240" y="-15" on="1"/>
        <pt x="189" y="-15" on="0"/>
        <pt x="111" y="11" on="0"/>
        <pt x="58" y="54" on="0"/>
        <pt x="30" y="110" on="0"/>
        <pt x="30" y="140" on="1"/>
        <pt x="55" y="140" on="1"/>
        <pt x="55" y="116" on="0"/>
        <pt x="78" y="69" on="0"/>
        <pt x="122" y="32" on="0"/>
        <pt x="182" y="10" on="0"/>
        <pt x="220" y="10" on="1"/>
        <pt x="335" y="10" on="0"/>
        <pt x="335" y="130" on="1"/>
        <pt x="335" y="190" on="0"/>
        <pt x="282" y="250" on="0"/>
        <pt x="240" y="250" on="1"/>
        <pt x="175" y="250" on="1"/>
        <pt x="175" y="275" on="1"/>
        <pt x="220" y="275" on="1"/>
        <pt x="262" y="275" on="0"/>
        <pt x="315" y="332" on="0"/>
        <pt x="315" y="385" on="1"/>
        <pt x="315" y="438" on="0"/>
        <pt x="262" y="495" on="0"/>
        <pt x="220" y="495" on="1"/>
        <pt x="206" y="495" on="0"/>
        <pt x="185" y="492" on="0"/>
        <pt x="177" y="490" on="1"/>
        <pt x="167" y="487" on="0"/>
        <pt x="160" y="485" on="1"/>
        <pt x="160" y="335" on="1"/>
        <pt x="153" y="333" on="0"/>
        <pt x="147" y="332" on="1"/>
        <pt x="141" y="331" on="0"/>
        <pt x="128" y="330" on="0"/>
        <pt x="120" y="330" on="1"/>
        <pt x="86" y="330" on="0"/>
        <pt x="45" y="371" on="0"/>
        <pt x="45" y="405" on="1"/>
        <pt x="45" y="426" on="0"/>
        <pt x="67" y="465" on="0"/>
        <pt x="113" y="496" on="0"/>
        <pt x="187" y="515" on="0"/>
        <pt x="240" y="515" on="1"/>
        <pt x="306" y="515" on="0"/>
        <pt x="397" y="493" on="0"/>
        <pt x="454" y="456" on="0"/>
        <pt x="480" y="409" on="0"/>
        <pt x="480" y="385" on="1"/>
        <pt x="480" y="362" on="0"/>
        <pt x="464" y="328" on="0"/>
        <pt x="438" y="303" on="0"/>
        <pt x="404" y="286" on="0"/>
        <pt x="387" y="280" on="1"/>
        <pt x="347" y="267" on="0"/>
        <pt x="295" y="265" on="1"/>
      </contour>
    </TTGlyph>
    <TTGlyph name="afii10074" xMin="40" yMin="0" xMax="640" yMax="500">
      <contour>
        <pt x="360" y="485" on="1"/>
        <pt x="360" y="500" on="1"/>
        <pt x="640" y="500" on="1"/>
        <pt x="640" y="485" on="1"/>
        <pt x="580" y="470" on="1"/>
        <pt x="580" y="30" on="1"/>
        <pt x="640" y="15" on="1"/>
        <pt x="640" y="0" on="1"/>
        <pt x="360" y="0" on="1"/>
        <pt x="360" y="15" on="1"/>
        <pt x="420" y="30" on="1"/>
        <pt x="420" y="360" on="1"/>
        <pt x="260" y="85" on="1"/>
        <pt x="260" y="30" on="1"/>
        <pt x="320" y="15" on="1"/>
        <pt x="320" y="0" on="1"/>
        <pt x="40" y="0" on="1"/>
        <pt x="40" y="15" on="1"/>
        <pt x="100" y="30" on="1"/>
        <pt x="100" y="470" on="1"/>
        <pt x="40" y="485" on="1"/>
        <pt x="40" y="500" on="1"/>
        <pt x="320" y="500" on="1"/>
        <pt x="320" y="485" on="1"/>
        <pt x="260" y="470" on="1"/>
        <pt x="260" y="140" on="1"/>
        <pt x="420" y="415" on="1"/>
        <pt x="420" y="470" on="1"/>
      </contour>
    </TTGlyph>
    <TTGlyph name="afii10075" xMin="40" yMin="0" xMax="640" yMax="715">
      <contour>
        <pt x="360" y="485" on="1"/>
        <pt x="360" y="500" on="1"/>
        <pt x="640" y="500" on="1"/>
        <pt x="640" y="485" on="1"/>
        <pt x="580" y="470" on="1"/>
        <pt x="580" y="30" on="1"/>
        <pt x="640" y="15" on="1"/>
        <pt x="640" y="0" on="1"/>
        <pt x="360" y="0" on="1"/>
        <pt x="360" y="15" on="1"/>
        <pt x="420" y="30" on="1"/>
        <pt x="420" y="360" on="1"/>
        <pt x="260" y="85" on="1"/>
        <pt x="260" y="30" on="1"/>
        <pt x="320" y="15" on="1"/>
        <pt x="320" y="0" on="1"/>
        <pt x="40" y="0" on="1"/>
        <pt x="40" y="15" on="1"/>
        <pt x="100" y="30" on="1"/>
        <pt x="100" y="470" on="1"/>
        <pt x="40" y="485" on="1"/>
        <pt x="40" y="500" on="1"/>
        <pt x="320" y="500" on="1"/>
        <pt x="320" y="485" on="1"/>
        <pt x="260" y="470" on="1"/>
        <pt x="260" y="140" on="1"/>
        <pt x="420" y="415" on="1"/>
        <pt x="420" y="470" on="1"/>
      </contour>
      <contour>
        <pt x="340" y="590" on="1"/>
        <pt x="366" y="590" on="0"/>
        <pt x="395" y="601" on="0"/>
        <pt x="395" y="600" on="1"/>
        <pt x="395" y="710" on="1"/>
        <pt x="401" y="711" on="0"/>
        <pt x="407" y="712" on="1"/>
        <pt x="412" y="713" on="0"/>
        <pt x="424" y="715" on="0"/>
        <pt x="430" y="715" on="1"/>
        <pt x="456" y="715" on="0"/>
        <pt x="490" y="681" on="0"/>
        <pt x="490" y="655" on="1"/>
        <pt x="490" y="621" on="0"/>
        <pt x="422" y="570" on="0"/>
        <pt x="340" y="570" on="1"/>
        <pt x="299" y="570" on="0"/>
        <pt x="242" y="584" on="0"/>
        <pt x="206" y="607" on="0"/>
        <pt x="190" y="638" on="0"/>
        <pt x="190" y="655" on="1"/>
        <pt x="190" y="681" on="0"/>
        <pt x="224" y="715" on="0"/>
        <pt x="250" y="715" on="1"/>
        <pt x="255" y="715" on="0"/>
        <pt x="268" y="713" on="0"/>
        <pt x="273" y="712" on="1"/>
        <pt x="279" y="711" on="0"/>
        <pt x="285" y="710" on="1"/>
        <pt x="285" y="600" on="1"/>
        <pt x="285" y="601" on="0"/>
        <pt x="314" y="590" on="0"/>
      </contour>
    </TTGlyph>
    <TTGlyph name="afii10076" xMin="40" yMin="0" xMax="620" yMax="510">
      <contour>
        <pt x="380" y="270" on="1"/>
        <pt x="412" y="270" on="0"/>
        <pt x="459" y="256" on="0"/>
        <pt x="493" y="233" on="0"/>
        <pt x="514" y="202" on="0"/>
        <pt x="520" y="185" on="1"/>
        <pt x="570" y="30" on="1"/>
        <pt x="620" y="15" on="1"/>
        <pt x="620" y="0" on="1"/>
        <pt x="515" y="0" on="1"/>
        <pt x="459" y="0" on="0"/>
        <pt x="396" y="51" on="0"/>
        <pt x="385" y="85" on="1"/>
        <pt x="330" y="250" on="1"/>
        <pt x="260" y="250" on="1"/>
        <pt x="260" y="30" on="1"/>
        <pt x="320" y="15" on="1"/>
        <pt x="320" y="0" on="1"/>
        <pt x="40" y="0" on="1"/>
        <pt x="40" y="15" on="1"/>
        <pt x="100" y="30" on="1"/>
        <pt x="100" y="470" on="1"/>
        <pt x="40" y="485" on="1"/>
        <pt x="40" y="500" on="1"/>
        <pt x="320" y="500" on="1"/>
        <pt x="320" y="485" on="1"/>
        <pt x="260" y="470" on="1"/>
        <pt x="260" y="275" on="1"/>
        <pt x="295" y="275" on="1"/>
        <pt x="325" y="275" on="0"/>
        <pt x="367" y="314" on="0"/>
        <pt x="375" y="340" on="1"/>
        <pt x="400" y="430" on="1"/>
        <pt x="411" y="468" on="0"/>
        <pt x="456" y="510" on="0"/>
        <pt x="490" y="510" on="1"/>
        <pt x="535" y="510" on="0"/>
        <pt x="585" y="462" on="0"/>
        <pt x="585" y="420" on="1"/>
        <pt x="585" y="382" on="0"/>
        <pt x="544" y="340" on="0"/>
        <pt x="510" y="340" on="1"/>
        <pt x="502" y="340" on="0"/>
        <pt x="487" y="341" on="0"/>
        <pt x="482" y="342" on="1"/>
        <pt x="475" y="343" on="0"/>
        <pt x="470" y="345" on="1"/>
        <pt x="470" y="480" on="1"/>
        <pt x="441" y="473" on="0"/>
        <pt x="430" y="430" on="1"/>
        <pt x="405" y="340" on="1"/>
        <pt x="399" y="319" on="0"/>
        <pt x="381" y="292" on="0"/>
        <pt x="372" y="284" on="1"/>
        <pt x="361" y="274" on="0"/>
        <pt x="350" y="270" on="1"/>
      </contour>
    </TTGlyph>
</ttFont>
